<?xml version="1.0" standalone="no"?>
<!DOCTYPE svg PUBLIC "-//W3C//DTD SVG 1.1//EN" "http://www.w3.org/Graphics/SVG/1.1/DTD/svg11.dtd" >
<svg>
<metadata>
Created by FontForge 20120731 at Sat Sep 13 19:57:10 2014
 By World Wide Web Server
Copyright (c) 2013 Monotype GmbH. Metro Nova is a trademark of Monotype GmbH registered in the U.S. Patent and Trademark Office and may be registered in certain other jurisdictions.
</metadata>
<defs>
<font id="MetroNovaPro-LightItalic" horiz-adv-x="560" >
  <font-face 
    font-family="Metro Nova Pro Light"
    font-weight="300"
    font-style="italic"
    font-stretch="normal"
    units-per-em="1000"
    panose-1="2 12 4 4 2 2 3 9 2 3"
    ascent="770"
    descent="-230"
    x-height="479"
    cap-height="772"
    bbox="-258 -237 1185 996"
    underline-thickness="50"
    underline-position="-50"
    slope="-12"
    stemh="42"
    stemv="43"
    unicode-range="U+000D-FB02"
  />
<missing-glyph horiz-adv-x="493" 
d="M159 55c18 0 31 -13 31 -31c0 -19 -13 -31 -30 -31c-20 0 -32 12 -32 31c0 18 12 31 31 31zM176 172l-38 -8v140c129 7 209 69 209 158c0 80 -63 131 -157 131c-26 0 -50 -5 -75 -15l11 45c20 6 40 8 65 8c113 0 197 -60 197 -169c0 -101 -86 -175 -212 -193v-97zM0 -128
v870h493v-870h-493zM42 701v-788h409v788h-409z" />
    <glyph glyph-name=".notdef" horiz-adv-x="493" 
d="M159 55c18 0 31 -13 31 -31c0 -19 -13 -31 -30 -31c-20 0 -32 12 -32 31c0 18 12 31 31 31zM176 172l-38 -8v140c129 7 209 69 209 158c0 80 -63 131 -157 131c-26 0 -50 -5 -75 -15l11 45c20 6 40 8 65 8c113 0 197 -60 197 -169c0 -101 -86 -175 -212 -193v-97zM0 -128
v870h493v-870h-493zM42 701v-788h409v788h-409z" />
    <glyph glyph-name="NULL" horiz-adv-x="0" 
 />
    <glyph glyph-name="CR" unicode="&#xd;" horiz-adv-x="220" 
 />
    <glyph glyph-name="space" unicode=" " horiz-adv-x="220" 
 />
    <glyph glyph-name="circumflex" unicode="&#x2c6;" horiz-adv-x="252" 
d="M284 568l-66 91l-102 -91h-40l136 149h30l72 -149h-30z" />
    <glyph glyph-name="tilde" unicode="&#x2dc;" horiz-adv-x="292" 
d="M169 643c-28 0 -51 -24 -59 -56l-24 6c16 63 51 99 88 99c44 0 82 -54 116 -54c29 0 50 23 59 56l24 -6c-16 -63 -51 -99 -88 -99c-44 0 -82 54 -116 54z" />
    <glyph glyph-name="dieresis" unicode="&#xa8;" horiz-adv-x="256" 
d="M136 676c19 0 32 -13 32 -31c0 -25 -19 -42 -43 -42c-20 0 -32 12 -32 30c0 25 18 43 43 43zM299 676c19 0 32 -13 32 -31c0 -25 -19 -42 -43 -42c-20 0 -32 12 -32 30c0 25 18 43 43 43z" />
    <glyph glyph-name="macron" unicode="&#xaf;" horiz-adv-x="274" 
d="M352 660l-9 -42h-254l9 42h254z" />
    <glyph glyph-name="breve" unicode="&#x2d8;" horiz-adv-x="248" 
d="M201 621c56 0 86 33 97 86h38c-13 -64 -56 -129 -141 -129c-65 0 -91 38 -91 87c0 15 1 26 4 42h32c-2 -10 -3 -19 -3 -28c0 -36 19 -58 64 -58z" />
    <glyph glyph-name="ring" unicode="&#x2da;" horiz-adv-x="206" 
d="M94 641c0 55 54 103 108 103c48 0 82 -37 82 -83c0 -55 -53 -103 -107 -103c-47 0 -83 37 -83 83zM130 641c0 -27 19 -48 47 -48c36 0 72 31 72 68c0 27 -19 48 -47 48c-36 0 -72 -31 -72 -68z" />
    <glyph glyph-name="hungarumlaut" unicode="&#x2dd;" horiz-adv-x="263" 
d="M181 717h67l-139 -149h-33zM291 717h67l-139 -149h-34z" />
    <glyph glyph-name="dotaccent" unicode="&#x2d9;" horiz-adv-x="93" 
d="M136 676c19 0 32 -13 32 -31c0 -25 -19 -42 -43 -42c-20 0 -32 12 -32 30c0 25 18 43 43 43z" />
    <glyph glyph-name="caron" unicode="&#x2c7;" horiz-adv-x="252" 
d="M108 717h30l65 -91l103 91h40l-136 -149h-30z" />
    <glyph glyph-name="caron.alt" horiz-adv-x="112" 
d="M203 781c3 -10 4 -23 4 -35c0 -46 -22 -85 -90 -153h-33c49 60 75 92 75 142c0 10 -2 23 -4 32z" />
    <glyph glyph-name="cedilla" unicode="&#xb8;" horiz-adv-x="200" 
d="M30 0h39l-44 -61c3 1 8 2 13 2c47 0 74 -29 74 -70c0 -50 -53 -89 -116 -89c-34 0 -62 10 -78 27l12 41c11 -19 35 -29 65 -29c50 0 72 22 72 49c0 22 -17 39 -50 39c-21 0 -39 -4 -54 -10l-1 2z" />
    <glyph glyph-name="commaaccent" unicode="&#xf6c3;" horiz-adv-x="128" 
d="M39 -69c3 -9 5 -21 5 -32c0 -37 -15 -70 -101 -136h-42c82 67 95 97 95 126c0 9 -2 20 -5 28z" />
    <glyph glyph-name="commaaccent.alt" horiz-adv-x="128" 
d="M92 563c-4 9 -6 21 -6 32c0 37 14 70 100 136h42c-82 -67 -95 -97 -95 -126c0 -9 2 -20 6 -28z" />
    <glyph glyph-name="ogonek" unicode="&#x2db;" horiz-adv-x="166" 
d="M61 0l7 13l39 1l-3 -14c-109 -86 -136 -119 -136 -166c0 -17 13 -29 35 -29s43 8 61 27h2l-16 -53c-16 -11 -34 -16 -54 -16c-45 0 -73 22 -73 67c0 59 43 99 138 170z" />
    <glyph glyph-name="grave.cap" horiz-adv-x="166" 
d="M253 830l-100 119h69l62 -119h-31z" />
    <glyph glyph-name="acute.cap" horiz-adv-x="166" 
d="M311 949l-141 -119h-40l102 119h79z" />
    <glyph glyph-name="circumflex.cap" horiz-adv-x="271" 
d="M354 830l-74 73l-103 -73h-46l128 119h51l79 -119h-35z" />
    <glyph glyph-name="tilde.cap" horiz-adv-x="292" 
d="M219 875c-28 0 -52 -24 -62 -56l-24 6c20 63 58 99 97 99c42 0 82 -34 114 -34c29 0 51 23 62 56l24 -6c-20 -63 -58 -99 -97 -99c-42 0 -82 34 -114 34z" />
    <glyph glyph-name="dieresis.cap" horiz-adv-x="276" 
d="M188 923c20 0 32 -13 32 -31c0 -25 -19 -42 -42 -42c-21 0 -33 12 -33 30c0 25 18 43 43 43zM371 923c20 0 32 -13 32 -31c0 -25 -19 -42 -42 -42c-21 0 -33 12 -33 30c0 25 18 43 43 43z" />
    <glyph glyph-name="macron.cap" horiz-adv-x="274" 
d="M403 897l-9 -42h-254l9 42h254z" />
    <glyph glyph-name="breve.cap" horiz-adv-x="248" 
d="M255 873c53 0 81 27 93 70h38c-11 -56 -53 -113 -138 -113c-67 0 -93 35 -93 81c0 12 1 21 3 32h32c-1 -6 -1 -10 -1 -15c0 -35 20 -55 66 -55z" />
    <glyph glyph-name="ring.cap" horiz-adv-x="206" 
d="M149 893c0 55 53 103 106 103c48 0 82 -37 82 -83c0 -55 -52 -103 -106 -103c-48 0 -82 37 -82 83zM184 893c0 -27 19 -48 47 -48c36 0 71 31 71 68c0 27 -19 48 -47 48c-36 0 -71 -31 -71 -68z" />
    <glyph glyph-name="hungarumlaut.cap" horiz-adv-x="269" 
d="M228 949h72l-128 -119h-42zM341 949h72l-128 -119h-42z" />
    <glyph glyph-name="dotaccent.cap" horiz-adv-x="93" 
d="M188 923c20 0 32 -13 32 -31c0 -25 -19 -42 -42 -42c-21 0 -33 12 -33 30c0 25 18 43 43 43z" />
    <glyph glyph-name="caron.cap" horiz-adv-x="271" 
d="M156 949h36l73 -74l104 74h45l-128 -119h-51z" />
    <glyph glyph-name="exclam" unicode="!" horiz-adv-x="253" 
d="M86 64c20 0 32 -13 32 -31c0 -25 -19 -42 -43 -42c-20 0 -32 12 -32 30c0 25 18 43 43 43zM214 762l60 17c-45 -189 -102 -409 -143 -558l-22 4c26 145 70 369 105 537z" />
    <glyph glyph-name="quotedbl" unicode="&#x22;" horiz-adv-x="296" 
d="M283 542l-17 -4c4 67 15 144 28 208h48c-14 -67 -35 -136 -59 -204zM155 542l-17 -4c4 67 15 144 28 208h48c-14 -67 -35 -136 -59 -204z" />
    <glyph glyph-name="numbersign" unicode="#" 
d="M93 481l6 41h76l60 230h41l-60 -230h188l60 230h41l-60 -230h78l-6 -41h-83l-55 -210h88l-6 -41h-93l-60 -230h-40l60 230h-189l-60 -230h-40l60 230h-62l6 41h66l55 210h-71zM205 481l-55 -210h188l55 210h-188z" />
    <glyph glyph-name="dollar" unicode="$" 
d="M418 839l-15 -70c61 -3 110 -21 154 -49l-12 -55c-43 40 -93 59 -151 62l-70 -330c116 -48 167 -117 167 -200c0 -134 -111 -212 -256 -218l-27 -129h-35l27 129c-78 3 -142 31 -180 72l9 64c39 -63 96 -93 180 -95l74 350c-105 45 -151 98 -151 182
c0 119 102 213 236 218l15 69h35zM446 197c0 63 -36 115 -131 159l-71 -335c120 8 202 75 202 176zM177 552c0 -58 31 -101 115 -141l67 316c-117 -7 -182 -82 -182 -175z" />
    <glyph glyph-name="percent" unicode="%" horiz-adv-x="782" 
d="M756 752l-615 -752h-53l614 752h54zM227 390c-69 0 -110 41 -110 110c0 108 101 222 202 222c70 0 110 -41 110 -110c0 -108 -101 -222 -202 -222zM318 680c-81 0 -156 -94 -156 -180c0 -43 23 -68 67 -68c81 0 155 94 155 180c0 43 -23 68 -66 68zM518 30
c-69 0 -109 41 -109 110c0 108 101 222 202 222c69 0 110 -41 110 -110c0 -108 -102 -222 -203 -222zM609 320c-81 0 -155 -94 -155 -180c0 -43 23 -68 66 -68c81 0 156 94 156 180c0 43 -23 68 -67 68z" />
    <glyph glyph-name="ampersand" unicode="&#x26;" horiz-adv-x="782" 
d="M455 370l5 48c76 36 226 20 351 73l-4 -46c-43 -17 -93 -26 -143 -32c0 -12 1 -26 1 -35c0 -224 -132 -395 -372 -395c-151 0 -232 94 -232 211c0 118 74 211 205 264c-29 29 -45 69 -45 111c0 115 117 209 257 209c62 0 107 -7 150 -23l-21 -47c-32 16 -79 25 -129 25
c-123 0 -214 -82 -214 -174c0 -38 16 -77 55 -113l-1 -3c-142 -55 -209 -141 -209 -249c0 -94 64 -167 184 -167c207 0 332 142 332 351c0 7 -1 21 -1 30c-69 -9 -132 -16 -169 -38z" />
    <glyph glyph-name="quotesingle" unicode="'" horiz-adv-x="168" 
d="M155 542l-17 -4c4 67 15 144 28 208h48c-14 -67 -35 -136 -59 -204z" />
    <glyph glyph-name="parenleft" unicode="(" horiz-adv-x="337" 
d="M82 216c0 263 100 434 268 586h45c-188 -182 -270 -325 -270 -593c0 -111 26 -220 78 -313h-33c-57 87 -88 197 -88 320z" />
    <glyph glyph-name="parenright" unicode=")" horiz-adv-x="337" 
d="M300 482c0 -268 -99 -426 -269 -586h-45c189 175 270 340 270 593c0 111 -25 220 -77 313h33c56 -87 88 -197 88 -320z" />
    <glyph glyph-name="asterisk" unicode="*" horiz-adv-x="452" 
d="M294 752c14 0 24 -8 24 -20c0 -14 -6 -69 -15 -117h-18c-9 48 -15 103 -15 117c0 12 10 20 24 20zM294 377c-14 0 -24 8 -24 20c0 14 6 69 15 117h18c9 -48 15 -103 15 -117c0 -12 -10 -20 -24 -20zM129 641c0 17 12 30 24 30c3 0 6 -1 9 -3c12 -7 57 -40 94 -72l-9 -16
c-46 17 -97 39 -109 46c-6 3 -9 9 -9 15zM153 458c-12 0 -24 14 -24 29c0 6 3 13 9 16c12 7 63 29 109 46l9 -16c-37 -32 -82 -65 -94 -72c-3 -2 -6 -3 -9 -3zM459 489c0 -12 -8 -31 -24 -31c-3 0 -6 1 -9 3c-12 7 -57 40 -94 72l9 16c46 -17 97 -39 109 -46
c5 -4 9 -8 9 -14zM435 671c12 0 24 -15 24 -30c0 -6 -3 -12 -9 -15c-12 -7 -63 -29 -109 -46l-9 16c37 32 82 65 94 72c3 2 6 3 9 3z" />
    <glyph glyph-name="plus" unicode="+" 
d="M259 493h41v-214h215v-41h-215v-215h-41v215h-214v41h214v214z" />
    <glyph glyph-name="comma" unicode="," horiz-adv-x="233" 
d="M84 75c13 -14 21 -41 21 -70c0 -69 -50 -121 -110 -153l-10 18c52 33 76 66 76 115c0 24 -7 45 -23 59z" />
    <glyph glyph-name="hyphen" unicode="-" horiz-adv-x="324" 
d="M299 289l-9 -41h-254l9 41h254z" />
    <glyph glyph-name="period" unicode="." horiz-adv-x="233" 
d="M76 64c20 0 32 -13 32 -31c0 -25 -19 -42 -43 -42c-20 0 -32 12 -32 30c0 25 18 43 43 43z" />
    <glyph glyph-name="slash" unicode="/" horiz-adv-x="410" 
d="M494 780l-477 -810h-45l476 810h46z" />
    <glyph glyph-name="zero" unicode="0" 
d="M234 -16c-115 0 -184 92 -184 261c0 312 148 523 332 523c114 0 184 -89 184 -260c0 -310 -149 -524 -332 -524zM234 28c167 0 285 208 285 478c0 144 -51 218 -137 218c-169 0 -285 -207 -285 -476c0 -144 50 -220 137 -220z" />
    <glyph glyph-name="one" unicode="1" 
d="M256 0h-43l151 711l-110 -4l16 45h146z" />
    <glyph glyph-name="two" unicode="2" 
d="M182 716c54 31 122 49 190 49c128 0 191 -74 191 -171c0 -94 -41 -158 -157 -269c-83 -80 -246 -212 -341 -282h402l-14 -43h-469l7 35c87 59 277 214 385 320c121 119 141 162 141 238c0 72 -47 128 -146 128c-72 0 -140 -21 -217 -71z" />
    <glyph glyph-name="three" unicode="3" 
d="M534 596c0 -95 -70 -176 -175 -212c77 -26 115 -80 115 -152c0 -146 -137 -245 -320 -245c-68 0 -116 12 -150 32l8 46c40 -24 80 -34 142 -34c162 0 274 85 274 201c0 78 -59 132 -178 132c-49 0 -95 -3 -133 -9l22 54c24 -2 54 -3 84 -3c154 0 265 71 265 192
c0 69 -47 123 -147 123c-62 0 -105 -9 -155 -35l24 59c38 14 81 20 131 20c129 0 193 -74 193 -169z" />
    <glyph glyph-name="four" unicode="4" 
d="M351 0l54 257h-392l4 20l487 475h50l-97 -453h83l-9 -42h-83l-54 -257h-43zM96 299h318l84 392z" />
    <glyph glyph-name="five" unicode="5" 
d="M597 752l-15 -42h-334l-82 -237c12 2 33 3 49 3c184 0 275 -87 275 -210c0 -191 -166 -312 -459 -312c-10 0 -25 1 -30 2l16 48c10 -1 27 -2 40 -2c242 0 386 108 386 263c0 99 -73 169 -228 169c-38 0 -76 -3 -111 -8l111 326h382z" />
    <glyph glyph-name="six" unicode="6" 
d="M588 730c-262 -18 -432 -183 -492 -362c66 51 139 79 226 79c129 0 209 -76 209 -195c0 -146 -125 -266 -284 -266c-143 0 -219 93 -219 237c0 245 195 531 581 557zM83 317v1c-7 -32 -11 -64 -11 -95c0 -119 63 -193 175 -193c124 0 236 95 236 221
c0 91 -62 152 -162 152c-92 0 -170 -31 -238 -86z" />
    <glyph glyph-name="seven" unicode="7" 
d="M163 752h446c-147 -243 -298 -540 -379 -752h-55c101 237 260 542 363 710l-405 -5z" />
    <glyph glyph-name="eight" unicode="8" 
d="M497 207c0 -113 -106 -220 -260 -220c-129 0 -201 70 -201 170c0 110 87 191 222 229c-85 43 -115 106 -115 171c0 118 112 215 241 215c115 0 178 -69 178 -160c0 -106 -71 -181 -199 -228c88 -42 134 -101 134 -177zM452 214c0 69 -48 111 -148 152
c-137 -35 -224 -114 -224 -209c0 -72 58 -126 157 -126c129 0 215 88 215 183zM189 554c0 -71 42 -112 130 -151c117 40 198 103 198 207c0 69 -50 119 -132 119c-105 0 -196 -78 -196 -175z" />
    <glyph glyph-name="nine" unicode="9" 
d="M108 -19l-20 37c228 91 358 206 413 345c-57 -36 -123 -56 -201 -56c-133 0 -216 78 -216 200c0 145 120 265 272 265c143 0 219 -93 219 -237c0 -241 -148 -427 -467 -554zM302 353c85 0 155 19 215 60c10 39 15 79 15 121c0 120 -63 194 -176 194
c-122 0 -226 -97 -226 -221c0 -92 66 -154 172 -154z" />
    <glyph glyph-name="colon" unicode=":" horiz-adv-x="233" 
d="M166 488c20 0 32 -13 32 -31c0 -25 -19 -42 -43 -42c-20 0 -32 12 -32 30c0 25 18 43 43 43zM76 64c20 0 32 -13 32 -31c0 -25 -19 -42 -43 -42c-20 0 -32 12 -32 30c0 25 18 43 43 43z" />
    <glyph glyph-name="semicolon" unicode=";" horiz-adv-x="233" 
d="M84 75c13 -14 21 -41 21 -70c0 -69 -50 -121 -110 -153l-10 18c52 33 76 66 76 115c0 24 -7 45 -23 59zM166 488c20 0 32 -13 32 -31c0 -25 -19 -42 -43 -42c-20 0 -32 12 -32 30c0 25 18 43 43 43z" />
    <glyph glyph-name="less" unicode="&#x3c;" 
d="M515 441l-432 -184l432 -183v-43l-470 200v53l470 200v-43z" />
    <glyph glyph-name="equal" unicode="=" 
d="M515 359v-41h-470v41h470zM515 199v-41h-470v41h470z" />
    <glyph glyph-name="greater" unicode="&#x3e;" 
d="M45 31v43l431 183l-431 184v43l470 -200v-53z" />
    <glyph glyph-name="question" unicode="?" horiz-adv-x="440" 
d="M71 64c20 0 32 -13 32 -31c0 -25 -19 -42 -43 -42c-20 0 -32 12 -32 30c0 25 18 43 43 43zM124 216l-45 -10l36 171c186 10 310 104 310 231c0 84 -64 137 -168 137c-34 0 -64 -5 -94 -16l22 49c24 7 46 10 72 10c128 0 214 -64 214 -180c0 -144 -138 -250 -322 -274z
" />
    <glyph glyph-name="at" unicode="@" horiz-adv-x="890" 
d="M639 434l-58 -276c-3 -15 -5 -31 -5 -47c0 -33 19 -50 49 -50c92 0 163 80 163 223c0 186 -140 319 -340 319c-207 0 -346 -169 -346 -379c0 -223 158 -354 359 -354c83 0 169 23 228 68l19 -42c-61 -41 -150 -67 -248 -67c-230 0 -400 150 -400 396
c0 229 156 419 388 419c213 0 382 -140 382 -358c0 -174 -96 -266 -209 -266c-63 0 -89 24 -89 89c-29 -47 -88 -89 -152 -89c-87 0 -138 61 -138 165c0 154 101 271 214 271c66 0 111 -44 125 -92l15 70h43zM573 323c-18 51 -60 91 -119 91c-95 0 -167 -104 -167 -228
c0 -78 35 -124 104 -124c56 0 106 33 147 100z" />
    <glyph glyph-name="A" unicode="A" horiz-adv-x="735" 
d="M-42 0l510 768l43 7l162 -775h-44l-64 314h-349l-206 -314h-52zM483 720l-240 -364h313z" />
    <glyph glyph-name="B" unicode="B" horiz-adv-x="607" 
d="M589 608c0 -76 -52 -156 -155 -200c69 -25 106 -82 106 -157c0 -147 -134 -251 -313 -251h-169l164 772h162c136 0 205 -71 205 -164zM184 390l-74 -348h116c166 0 267 99 267 209c0 81 -55 139 -157 139h-152zM256 731l-63 -300h143c126 0 208 92 208 177
c0 69 -50 123 -160 123h-128z" />
    <glyph glyph-name="C" unicode="C" horiz-adv-x="749" 
d="M787 716l-19 -47h-3c-44 46 -116 72 -217 72c-216 0 -414 -200 -414 -428c0 -173 100 -282 263 -282c94 0 183 27 270 97h3l-23 -70c-77 -48 -165 -71 -253 -71c-189 0 -306 132 -306 326c0 255 220 472 463 472c110 0 179 -23 236 -69z" />
    <glyph glyph-name="D" unicode="D" horiz-adv-x="751" 
d="M207 0h-149l164 772h151c230 0 353 -127 353 -310c0 -273 -186 -462 -519 -462zM256 730l-146 -688h102c301 0 468 173 468 419c0 154 -103 269 -312 269h-112z" />
    <glyph glyph-name="E" unicode="E" horiz-adv-x="559" 
d="M256 730l-64 -304h310l-9 -42h-310l-73 -342h356l-9 -42h-399l164 772h389l-9 -42h-346z" />
    <glyph glyph-name="F" unicode="F" horiz-adv-x="544" 
d="M621 772l-9 -42h-356l-60 -284h330l-9 -42h-330l-86 -404h-43l164 772h399z" />
    <glyph glyph-name="G" unicode="G" horiz-adv-x="797" 
d="M731 348l-54 -255c-81 -67 -185 -106 -284 -106c-187 0 -305 133 -305 327c0 258 203 471 460 471c107 0 185 -30 235 -75l-19 -48h-2c-53 58 -130 79 -214 79c-238 0 -414 -201 -414 -427c0 -172 100 -283 259 -283c98 0 181 34 247 89l48 228h43z" />
    <glyph glyph-name="H" unicode="H" horiz-adv-x="767" 
d="M101 0h-43l164 772h43l-74 -350h461l74 350h43l-164 -772h-43l81 380h-461z" />
    <glyph glyph-name="I" unicode="I" horiz-adv-x="263" 
d="M101 0h-43l164 772h43z" />
    <glyph glyph-name="J" unicode="J" horiz-adv-x="263" 
d="M223 772h44l-139 -654c-37 -174 -79 -260 -150 -323l-95 -32l-3 11c111 65 162 144 205 347z" />
    <glyph glyph-name="K" unicode="K" horiz-adv-x="659" 
d="M101 0h-43l164 772h43l-80 -378l466 378h69l-479 -384l352 -388h-60l-349 391z" />
    <glyph glyph-name="L" unicode="L" horiz-adv-x="599" 
d="M58 0l164 772h43l-155 -730h426l-9 -42h-469z" />
    <glyph glyph-name="M" unicode="M" horiz-adv-x="989" 
d="M58 0l164 772h61l165 -708l474 708h69l-164 -772h-43l152 717l-480 -717h-37l-167 715l-151 -715h-43z" />
    <glyph glyph-name="N" unicode="N" horiz-adv-x="864" 
d="M823 772h43l-164 -772h-47l-401 719l-153 -719h-43l164 772h50l399 -715z" />
    <glyph glyph-name="O" unicode="O" horiz-adv-x="852" 
d="M389 29c234 0 388 224 388 431c0 170 -90 283 -253 283c-211 0 -388 -185 -388 -415c0 -175 95 -299 253 -299zM823 463c0 -232 -172 -478 -434 -478c-185 0 -299 141 -299 340c0 257 200 462 434 462c191 0 299 -129 299 -324z" />
    <glyph glyph-name="P" unicode="P" horiz-adv-x="555" 
d="M101 0h-43l164 772h127c152 0 240 -69 240 -184c0 -168 -119 -266 -337 -266h-83zM256 730l-78 -366h83c189 0 282 84 282 224c0 91 -69 142 -198 142h-89z" />
    <glyph glyph-name="Q" unicode="Q" horiz-adv-x="854" 
d="M389 -1c-40 0 -77 8 -111 22l-1 -2c67 -36 136 -101 221 -131c38 -13 74 -20 117 -23l-24 -44c-40 4 -96 19 -133 36c-96 43 -149 100 -219 138c-25 14 -55 27 -81 35l39 45c-66 61 -105 156 -105 265c0 251 198 447 427 447c191 0 309 -136 309 -324
c0 -260 -202 -464 -439 -464zM782 463c0 164 -99 280 -264 280c-207 0 -380 -177 -380 -403c0 -171 105 -297 251 -297c216 0 393 186 393 420z" />
    <glyph glyph-name="R" unicode="R" horiz-adv-x="642" 
d="M53 0l164 772h167c140 0 218 -61 218 -167c0 -144 -96 -221 -255 -247l228 -358h-55l-217 351c-31 -3 -64 -4 -98 -4h-35l-74 -347h-43zM251 730l-72 -341h26c229 0 351 61 351 215c0 78 -57 126 -172 126h-133z" />
    <glyph glyph-name="S" unicode="S" horiz-adv-x="553" 
d="M32 95c39 -46 91 -69 172 -69c135 0 229 76 229 187c0 68 -42 122 -137 173c-104 56 -153 101 -153 193c0 116 99 208 234 208c64 0 113 -16 157 -44l-12 -56c-38 41 -90 58 -145 58c-120 0 -189 -72 -189 -166c0 -65 38 -104 134 -155c109 -58 157 -127 157 -211
c0 -143 -122 -229 -275 -229c-78 0 -148 21 -183 54l8 57h3z" />
    <glyph glyph-name="T" unicode="T" horiz-adv-x="627" 
d="M283 0h-43l155 730h-282l9 42h607l-9 -42h-282z" />
    <glyph glyph-name="U" unicode="U" horiz-adv-x="748" 
d="M217 772h43l-105 -494c-6 -29 -9 -58 -9 -86c0 -116 76 -164 179 -164c127 0 245 76 282 250l105 494h43l-105 -494c-43 -204 -177 -292 -325 -292c-130 0 -222 63 -222 205c0 29 4 62 9 87z" />
    <glyph glyph-name="V" unicode="V" horiz-adv-x="722" 
d="M122 772h45l142 -714l464 714h51l-505 -772h-38z" />
    <glyph glyph-name="W" unicode="W" horiz-adv-x="1083" 
d="M675 0l-80 502l-303 -502h-38l-132 772h46l115 -707l302 499l-32 208h44l107 -709l429 709h52l-472 -772h-38z" />
    <glyph glyph-name="X" unicode="X" horiz-adv-x="732" 
d="M-37 0l406 405l-209 367h51l187 -338l331 338h65l-375 -375l225 -397h-51l-204 367l-361 -367h-65z" />
    <glyph glyph-name="Y" unicode="Y" horiz-adv-x="676" 
d="M298 0h-43l75 354l-212 418h48l189 -379l366 379h62l-410 -418z" />
    <glyph glyph-name="Z" unicode="Z" horiz-adv-x="715" 
d="M599 0h-641l724 730h-493l15 42h578l-723 -730h559z" />
    <glyph glyph-name="bracketleft" unicode="[" horiz-adv-x="337" 
d="M16 -104l193 906h182l-7 -31h-142l-179 -844h142l-7 -31h-182z" />
    <glyph glyph-name="backslash" unicode="\" horiz-adv-x="410" 
d="M285 -30l-141 810h38l140 -810h-37z" />
    <glyph glyph-name="bracketright" unicode="]" horiz-adv-x="337" 
d="M366 802l-193 -906h-182l7 31h142l179 844h-142l7 31h182z" />
    <glyph glyph-name="asciicircum" unicode="^" horiz-adv-x="445" 
d="M355 410l-133 275l-133 -275h-44l149 310h57l149 -310h-45z" />
    <glyph glyph-name="underscore" unicode="_" horiz-adv-x="500" 
d="M433 -71l-9 -41h-500l9 41h500z" />
    <glyph glyph-name="a" unicode="a" horiz-adv-x="489" 
d="M127 386l12 58c47 32 103 46 153 46c90 0 133 -43 133 -119c0 -14 -2 -28 -5 -44l-69 -323l-44 -13l17 78c-51 -43 -121 -78 -192 -78s-115 39 -115 102c0 65 43 122 127 154c60 23 129 38 228 48l9 42c2 10 3 23 3 34c0 50 -34 77 -92 77c-56 0 -114 -19 -165 -62z
M336 128l27 127c-62 -4 -136 -18 -184 -35c-89 -31 -118 -77 -118 -126c0 -37 24 -64 76 -64c62 0 133 33 199 98z" />
    <glyph glyph-name="b" unicode="b" horiz-adv-x="574" 
d="M207 -17c-45 0 -94 11 -119 25l-48 -21l166 783l46 10l-70 -331c46 30 92 47 153 47c113 0 191 -76 191 -200c0 -177 -132 -313 -319 -313zM329 454c-61 0 -116 -21 -160 -61l-72 -339c31 -27 68 -34 110 -34c158 0 273 117 273 276c0 95 -55 158 -151 158z" />
    <glyph glyph-name="c" unicode="c" horiz-adv-x="512" 
d="M435 96l-25 -70c-39 -24 -102 -43 -161 -43c-128 0 -202 78 -202 201c0 167 123 312 308 312c63 0 115 -18 149 -48l-20 -41c-32 29 -71 47 -130 47c-161 0 -263 -121 -263 -269c0 -91 50 -160 159 -160c69 0 127 20 182 71h3z" />
    <glyph glyph-name="d" unicode="d" horiz-adv-x="574" 
d="M380 -15l9 43c-52 -33 -107 -45 -153 -45c-127 0 -191 88 -191 198c0 186 155 315 303 315c53 0 94 -10 134 -34l65 308l45 10l-165 -776zM236 24c60 0 117 18 164 54l72 338c-27 24 -73 38 -125 38c-134 0 -256 -113 -256 -272c0 -90 49 -158 145 -158z" />
    <glyph glyph-name="e" unicode="e" horiz-adv-x="508" 
d="M276 217c-52 -12 -133 -26 -192 -33v-5c0 -89 54 -152 156 -152c63 0 131 28 178 75h3l-14 -63c-43 -33 -110 -56 -168 -56c-136 0 -196 89 -196 192c0 154 146 321 305 321c88 0 133 -47 133 -109c0 -70 -47 -135 -205 -170zM348 455c-119 0 -235 -120 -259 -234
c48 5 134 22 201 40c100 26 147 74 147 125c0 42 -33 69 -89 69z" />
    <glyph glyph-name="f" unicode="f" horiz-adv-x="331" 
d="M366 479l-8 -39h-145l-94 -440h-43l94 440h-108l8 39h109l18 87c20 94 65 159 131 189l109 25l-7 -36c-126 -24 -170 -80 -193 -189l-16 -76h145z" />
    <glyph glyph-name="g" unicode="g" horiz-adv-x="534" 
d="M297 488c48 0 85 -13 112 -33c36 36 77 66 134 66l-10 -48c-35 0 -70 -14 -100 -42c19 -24 29 -54 29 -85c0 -82 -67 -144 -163 -167c-55 -13 -104 -17 -139 -25c-47 -11 -70 -22 -70 -43c0 -17 24 -29 60 -37c41 -9 128 -17 166 -25c64 -13 93 -49 93 -101
c0 -102 -128 -185 -264 -185c-109 0 -167 62 -167 132c0 50 25 110 126 153c-42 17 -59 41 -59 64c0 38 50 62 120 78c-46 23 -75 65 -75 116c0 95 96 182 207 182zM303 11c-32 7 -88 13 -149 24c-82 -27 -136 -74 -136 -138c0 -50 43 -96 127 -96c123 0 221 73 221 146
c0 29 -18 54 -63 64zM133 306c0 -39 22 -75 62 -95c6 -3 18 -6 25 -6c12 0 26 1 50 5c81 14 149 62 149 135c0 55 -43 102 -122 102c-88 0 -164 -61 -164 -141z" />
    <glyph glyph-name="h" unicode="h" horiz-adv-x="565" 
d="M43 0l164 770l45 10l-84 -393c65 69 141 102 203 102c80 0 128 -39 128 -121c0 -16 -2 -35 -5 -50l-68 -318h-43l67 315c4 18 6 35 6 49c0 55 -33 84 -93 84c-62 0 -127 -35 -170 -82c-27 -29 -41 -55 -50 -96l-57 -270h-43z" />
    <glyph glyph-name="i" unicode="i" horiz-adv-x="233" 
d="M144 475l45 9l-103 -484h-43zM211 701c20 0 32 -13 32 -31c0 -25 -20 -42 -43 -42c-21 0 -32 12 -32 30c0 25 18 43 43 43z" />
    <glyph glyph-name="j" unicode="j" horiz-adv-x="233" 
d="M144 475l44 9l-108 -510c-24 -111 -52 -150 -88 -182l-86 -29l-3 13c80 46 112 92 136 206zM211 701c19 0 32 -13 32 -31c0 -25 -20 -42 -43 -42c-21 0 -32 12 -32 30c0 25 18 43 43 43z" />
    <glyph glyph-name="k" unicode="k" horiz-adv-x="500" 
d="M252 780l-110 -515l286 214h70l-301 -222l277 -257h-63l-270 259l-55 -259h-43l164 770z" />
    <glyph glyph-name="l" unicode="l" horiz-adv-x="233" 
d="M252 780l-166 -780h-43l164 770z" />
    <glyph glyph-name="m" unicode="m" horiz-adv-x="818" 
d="M636 0l68 319c3 16 5 30 5 43c0 55 -31 86 -84 86c-61 0 -110 -32 -149 -81c-13 -16 -23 -35 -29 -63l-65 -304h-43l68 319c3 15 5 29 5 42c0 56 -30 87 -84 87c-60 0 -112 -33 -150 -83c-13 -17 -22 -35 -28 -64l-64 -301h-43l102 479h43l-15 -70c38 46 94 80 157 80
c75 0 114 -41 123 -101c50 63 111 101 174 101c88 0 124 -49 124 -126c0 -15 -3 -37 -7 -56l-65 -307h-43z" />
    <glyph glyph-name="n" unicode="n" horiz-adv-x="565" 
d="M43 0l102 479h43l-20 -92c65 69 141 102 203 102c80 0 128 -40 128 -123c0 -15 -2 -34 -5 -48l-68 -318h-43l67 315c4 18 6 35 6 49c0 55 -33 84 -93 84c-62 0 -127 -35 -170 -82c-27 -29 -41 -55 -50 -96l-57 -270h-43z" />
    <glyph glyph-name="o" unicode="o" 
d="M240 24c143 0 225 143 225 274c0 100 -54 158 -146 158c-133 0 -225 -119 -225 -259c0 -101 48 -173 146 -173zM239 -17c-116 0 -189 81 -189 214c0 176 122 300 270 300c108 0 189 -66 189 -199c0 -152 -103 -315 -270 -315z" />
    <glyph glyph-name="p" unicode="p" horiz-adv-x="574" 
d="M145 479h43l-4 -17c45 21 90 30 137 30c120 0 203 -78 203 -203c0 -175 -123 -306 -302 -306c-48 0 -94 9 -132 32l-51 -238l-46 -14zM321 450c-58 0 -105 -11 -147 -36l-75 -356c30 -25 69 -38 123 -38c149 0 257 113 257 268c0 98 -57 162 -158 162z" />
    <glyph glyph-name="q" unicode="q" horiz-adv-x="581" 
d="M537 482l-150 -705l-46 -14l54 258c-40 -23 -99 -37 -153 -37c-123 0 -195 79 -195 201c0 182 134 311 312 311c50 0 92 -7 130 -23zM243 25c66 0 120 15 163 46l77 359c-33 16 -69 24 -124 24c-157 0 -266 -112 -266 -269c0 -98 54 -160 150 -160z" />
    <glyph glyph-name="r" unicode="r" horiz-adv-x="353" 
d="M389 484l-10 -45c-81 0 -145 -25 -191 -66c-20 -18 -31 -40 -44 -100l-58 -273h-43l102 479h43l-17 -79c54 49 110 72 172 81c14 2 30 3 46 3z" />
    <glyph glyph-name="s" unicode="s" horiz-adv-x="431" 
d="M7 37l14 48c28 -34 74 -62 140 -62c97 0 147 46 147 109c0 23 -10 47 -33 62c-48 31 -94 36 -132 60c-43 27 -58 56 -58 100c0 79 70 142 167 142c62 0 111 -22 148 -55l-24 -41c-29 40 -81 56 -124 56c-81 0 -123 -50 -123 -102c0 -30 14 -48 42 -64
c35 -20 86 -33 119 -53c44 -27 61 -60 61 -104c0 -89 -73 -150 -190 -150c-73 0 -122 23 -154 54z" />
    <glyph glyph-name="t" unicode="t" horiz-adv-x="329" 
d="M70 479h96l34 160l45 11l-37 -171h156l-8 -39h-156l-59 -277c-6 -28 -9 -50 -9 -68c0 -39 18 -64 61 -87l-1 -6l-51 -7c-35 18 -51 48 -51 100c0 18 3 40 9 68l59 277h-96z" />
    <glyph glyph-name="u" unicode="u" horiz-adv-x="564" 
d="M137 479h43l-66 -311c-3 -15 -5 -32 -5 -47c0 -63 34 -89 93 -89c69 0 135 40 184 99c14 17 24 37 29 61l61 287h43l-101 -475l-46 -13l21 99c-52 -59 -127 -99 -196 -99c-88 0 -132 44 -132 130c0 15 2 31 5 45z" />
    <glyph glyph-name="v" unicode="v" horiz-adv-x="451" 
d="M65 479h46l60 -416l263 416h52l-310 -479h-33z" />
    <glyph glyph-name="w" unicode="w" horiz-adv-x="730" 
d="M393 479h40l25 -419l255 419h52l-303 -479h-35l-29 404l-227 -404h-36l-70 479h46l53 -419z" />
    <glyph glyph-name="x" unicode="x" horiz-adv-x="524" 
d="M538 479l-255 -234l154 -245h-46l-136 218l-232 -218h-65l275 252l-142 227h52l119 -200l211 200h65z" />
    <glyph glyph-name="y" unicode="y" horiz-adv-x="465" 
d="M-40 -234c66 64 142 160 200 249l-95 464h46l80 -416l257 416h53l-314 -492c-71 -111 -120 -174 -167 -224h-60v3z" />
    <glyph glyph-name="z" unicode="z" horiz-adv-x="515" 
d="M415 0h-437l452 437h-323l13 42h410l-454 -437h355z" />
    <glyph glyph-name="braceleft" unicode="{" horiz-adv-x="337" 
d="M49 332l8 36c74 6 111 55 124 115l38 179c21 101 80 140 182 140l-7 -31c-78 0 -119 -31 -138 -122l-37 -179c-16 -74 -56 -109 -116 -122c42 -11 67 -41 67 -97c0 -10 -2 -22 -5 -35l-36 -165c-4 -19 -6 -36 -6 -50c0 -54 30 -72 92 -72l-6 -31c-83 0 -126 29 -126 101
c0 15 2 31 6 49l36 169c3 12 4 23 4 34c0 43 -22 76 -80 81z" />
    <glyph glyph-name="bar" unicode="|" horiz-adv-x="243" 
d="M143 -110h-43v902h43v-902z" />
    <glyph glyph-name="braceright" unicode="}" horiz-adv-x="337" 
d="M333 368l-8 -36c-74 -6 -111 -55 -124 -115l-38 -179c-21 -101 -80 -140 -182 -140l7 31c78 0 118 31 137 122l38 179c16 74 56 109 116 122c-42 11 -67 40 -67 95c0 11 2 23 5 37l36 165c4 19 6 36 6 50c0 54 -30 72 -92 72l6 31c83 0 126 -29 126 -101
c0 -15 -2 -31 -6 -49l-36 -169c-3 -12 -4 -23 -4 -34c0 -43 22 -76 80 -81z" />
    <glyph glyph-name="asciitilde" unicode="~" 
d="M530 291c-29 -56 -75 -94 -136 -94c-88 0 -149 98 -232 98c-46 0 -80 -33 -107 -88l-25 39c29 56 75 94 136 94c88 0 151 -98 232 -98c46 0 80 33 107 88z" />
    <glyph glyph-name="uni00A0" unicode="&#xa0;" horiz-adv-x="220" 
 />
    <glyph glyph-name="exclamdown" unicode="&#xa1;" horiz-adv-x="253" 
d="M164 416c-19 0 -30 12 -30 29c0 26 20 44 44 44c20 0 31 -11 31 -28c0 -26 -19 -45 -45 -45zM51 -220l-60 -17c42 176 96 380 134 516l22 -4c-23 -132 -63 -340 -96 -495z" />
    <glyph glyph-name="cent" unicode="&#xa2;" 
d="M538 666l-84 -180c32 -8 60 -22 83 -40l-22 -45c-22 21 -48 37 -80 45l-195 -419c10 -2 20 -2 32 -2c74 0 136 25 196 79h3l-27 -72c-41 -26 -107 -49 -170 -49c-19 0 -36 2 -53 5l-73 -158h-43l78 168c-80 27 -123 95 -123 190c0 167 122 308 316 308c13 0 26 -1 39 -2
l80 172h43zM104 187c0 -71 31 -128 97 -151l195 417c-6 1 -13 1 -19 1c-176 0 -273 -119 -273 -267z" />
    <glyph glyph-name="sterling" unicode="&#xa3;" 
d="M456 406l-17 -40c-52 3 -117 5 -179 5h-37c1 -16 1 -31 1 -44c0 -105 -25 -181 -67 -232c53 -18 105 -67 184 -67c48 0 89 20 140 73h3v-52c-35 -37 -89 -65 -143 -65c-100 0 -151 67 -209 79c-52 -53 -86 -71 -103 -71c-22 0 -35 15 -35 35c0 34 59 74 125 75
c52 52 68 133 68 212c0 18 -1 36 -2 55c-34 -1 -68 -5 -101 -9l22 44l77 4c-3 45 -6 90 -6 127c0 146 91 237 209 237c74 0 132 -29 183 -75l-31 -39c-48 51 -97 70 -151 70c-99 0 -167 -70 -167 -223c0 -28 1 -62 2 -96c23 1 44 1 64 1c50 0 125 -2 170 -4z" />
    <glyph glyph-name="currency" unicode="&#xa4;" 
d="M26 117l88 73c-16 27 -26 60 -26 96c0 62 29 119 74 161l-53 67l32 26l53 -67c39 27 87 43 134 43c50 0 92 -19 122 -49l86 71l24 -30l-87 -72c17 -27 26 -61 26 -96c0 -62 -29 -119 -74 -161l53 -67l-32 -26l-53 67c-39 -27 -86 -43 -133 -43c-50 0 -92 19 -122 49
l-88 -72zM130 286c0 -74 53 -133 130 -133c99 0 197 87 197 187c0 74 -53 133 -129 133c-100 0 -198 -87 -198 -187z" />
    <glyph glyph-name="yen" unicode="&#xa5;" 
d="M521 314l-9 -41h-203l-58 -273h-43l58 273h-204l9 41h204l-32 99h-151l8 41h129l-97 298h46l123 -397l286 397h56l-221 -298h128l-8 -41h-151l-73 -99h203z" />
    <glyph glyph-name="brokenbar" unicode="&#xa6;" horiz-adv-x="243" 
d="M143 -110h-43v322h43v-322zM143 470h-43v322h43v-322z" />
    <glyph glyph-name="section" unicode="&#xa7;" horiz-adv-x="485" 
d="M60 332c0 68 53 141 151 145c-44 31 -62 67 -62 110c0 79 79 149 184 149c72 0 128 -20 176 -56l-16 -45h-2c-44 43 -89 61 -156 61c-84 0 -141 -47 -141 -110c0 -30 14 -57 47 -83c46 -36 101 -54 148 -89c44 -33 64 -71 64 -121c0 -69 -53 -142 -150 -145
c44 -32 62 -69 62 -115c0 -79 -82 -144 -191 -144c-79 0 -136 26 -167 64l7 56h3c38 -56 93 -80 156 -80c86 0 147 42 147 106c0 34 -13 62 -47 87c-48 36 -101 54 -148 89c-44 33 -65 71 -65 121zM104 335c0 -40 24 -77 80 -113s83 -43 114 -43c76 0 111 67 111 111
c0 43 -26 79 -80 113c-58 36 -83 43 -113 43c-77 0 -112 -67 -112 -111z" />
    <glyph glyph-name="copyright" unicode="&#xa9;" horiz-adv-x="893" 
d="M75 385c0 222 179 402 401 402s402 -180 402 -402s-180 -400 -402 -400s-401 178 -401 400zM119 385c0 -197 160 -356 357 -356s358 159 358 356s-161 358 -358 358s-357 -161 -357 -358zM657 251l-10 -69c-35 -26 -97 -49 -161 -49c-148 0 -241 95 -241 249
c0 152 90 264 254 264c60 0 113 -15 153 -42l-13 -51c-38 30 -81 49 -140 49c-136 0 -207 -86 -207 -220c0 -115 64 -205 194 -205c70 0 121 23 168 74h3z" />
    <glyph glyph-name="guillemotleft" unicode="&#xab;" horiz-adv-x="415" 
d="M151 82l-100 165l160 165h40l-134 -165l64 -165h-30zM291 82l-100 165l160 165h40l-134 -165l64 -165h-30z" />
    <glyph glyph-name="logicalnot" unicode="&#xac;" 
d="M45 373h410v-270h-41v229h-369v41z" />
    <glyph glyph-name="uni00AD" unicode="&#xad;" horiz-adv-x="324" 
d="M299 289l-9 -41h-254l9 41h254z" />
    <glyph glyph-name="registered" unicode="&#xae;" horiz-adv-x="614" 
d="M105 525c0 146 116 262 262 262s262 -116 262 -262s-116 -262 -262 -262s-262 116 -262 262zM145 525c0 -123 99 -222 222 -222s222 99 222 222s-99 222 -222 222s-222 -99 -222 -222zM268 374v312h77c76 0 117 -34 117 -100c0 -47 -26 -77 -70 -93l105 -119h-57l-89 109
c-14 -2 -29 -2 -44 -2v-107h-39zM307 648v-129c78 0 112 21 112 67c0 38 -22 62 -77 62h-35z" />
    <glyph glyph-name="degree" unicode="&#xb0;" horiz-adv-x="336" 
d="M131 649c0 68 55 123 123 123c67 0 123 -55 123 -123s-55 -123 -123 -123s-123 55 -123 123zM172 649c0 -45 37 -82 82 -82c44 0 82 37 82 82s-37 82 -82 82s-82 -37 -82 -82z" />
    <glyph glyph-name="plusminus" unicode="&#xb1;" 
d="M515 339v-41h-215v-165h-41v165h-214v41h214v164h41v-164h215zM515 81v-41h-470v41h470z" />
    <glyph glyph-name="multiply" unicode="&#xd7;" 
d="M62 69l190 190l-200 200l28 28l200 -200l200 200l28 -28l-200 -200l190 -190l-28 -28l-190 190l-190 -190z" />
    <glyph glyph-name="divide" unicode="&#xf7;" 
d="M515 279v-41h-470v41h470zM280 138c22 0 37 -15 37 -37s-15 -36 -36 -36c-23 0 -37 14 -37 36s14 37 36 37zM280 452c22 0 37 -15 37 -37s-15 -36 -36 -36c-23 0 -37 14 -37 36s14 37 36 37z" />
    <glyph glyph-name="mu" unicode="&#xb5;" horiz-adv-x="552" 
d="M192 -9c-52 0 -95 19 -104 62l-59 -276l-46 -14l152 716h43l-66 -311c-4 -18 -6 -35 -6 -49c0 -66 40 -87 92 -87c69 0 128 32 186 99c15 18 24 37 30 66l60 282h43l-101 -475l-46 -13l21 97c-50 -60 -129 -97 -199 -97z" />
    <glyph glyph-name="paragraph" unicode="&#xb6;" horiz-adv-x="537" 
d="M294 772h295l-9 -41h-92l-183 -863h-42l183 863h-119l-183 -863h-42l122 576c-83 0 -130 56 -130 140c0 110 82 188 200 188z" />
    <glyph glyph-name="periodcentered" unicode="&#xb7;" horiz-adv-x="233" 
d="M127 304c20 0 32 -13 32 -31c0 -25 -19 -42 -43 -42c-20 0 -32 12 -32 30c0 25 18 43 43 43z" />
    <glyph glyph-name="guillemotright" unicode="&#xbb;" horiz-adv-x="415" 
d="M125 412l100 -165l-160 -165h-40l134 165l-64 165h30zM265 412l100 -165l-160 -165h-40l134 165l-64 165h30z" />
    <glyph glyph-name="onequarter" unicode="&#xbc;" horiz-adv-x="805" 
d="M769 780l-687 -810h-50l686 810h51zM225 360h-41l76 354l-92 -3l15 41h126zM597 0l24 112h-209l4 20l254 260h50l-52 -241h79l-8 -39h-79l-24 -112h-39zM477 151h152l43 201z" />
    <glyph glyph-name="onehalf" unicode="&#xbd;" horiz-adv-x="805" 
d="M755 780l-687 -810h-50l686 810h51zM211 360h-41l76 354l-92 -3l15 41h126zM624 132c-41 -35 -80 -65 -124 -92h195l-14 -40h-259l7 33c58 35 119 82 172 129c73 65 91 97 91 142c0 31 -21 56 -63 56c-41 0 -78 -12 -124 -44l23 59c26 18 66 27 102 27
c71 0 105 -42 105 -96c0 -51 -21 -98 -111 -174z" />
    <glyph glyph-name="threequarters" unicode="&#xbe;" horiz-adv-x="805" 
d="M818 780l-687 -810h-50l686 810h51zM616 0l24 112h-209l4 20l254 260h50l-52 -241h79l-8 -39h-79l-24 -112h-39zM496 151h152l43 201zM374 669c0 -44 -31 -83 -83 -101c39 -15 60 -42 60 -86c0 -81 -71 -132 -166 -132c-51 0 -87 9 -110 28l7 41c28 -22 57 -30 103 -30
c76 0 124 41 124 93c0 38 -29 64 -85 64c-33 0 -66 -4 -90 -10l21 51c14 -1 33 -2 51 -2c74 0 125 32 125 86c0 30 -22 52 -69 52c-40 0 -67 -7 -99 -24l22 49c20 9 50 14 78 14c74 0 111 -40 111 -93z" />
    <glyph glyph-name="questiondown" unicode="&#xbf;" horiz-adv-x="420" 
d="M298 285l46 10l-30 -141c-174 -14 -289 -109 -289 -227c0 -74 57 -121 152 -121c34 0 64 5 93 16l-22 -48c-24 -8 -45 -11 -71 -11c-117 0 -198 55 -198 164c0 138 128 244 300 268zM358 489c20 0 32 -13 32 -31c0 -25 -19 -42 -43 -42c-20 0 -32 12 -32 30
c0 25 18 43 43 43z" />
    <glyph glyph-name="Agrave" unicode="&#xc0;" horiz-adv-x="735" 
d="M-42 0l510 768l43 7l162 -775h-44l-64 314h-349l-206 -314h-52zM483 720l-240 -364h313zM543 830l-100 119h69l62 -119h-31z" />
    <glyph glyph-name="Aacute" unicode="&#xc1;" horiz-adv-x="735" 
d="M-42 0l510 768l43 7l162 -775h-44l-64 314h-349l-206 -314h-52zM483 720l-240 -364h313zM645 949l-141 -119h-40l102 119h79z" />
    <glyph glyph-name="Acircumflex" unicode="&#xc2;" horiz-adv-x="735" 
d="M-42 0l510 768l43 7l162 -775h-44l-64 314h-349l-206 -314h-52zM483 720l-240 -364h313zM614 830l-74 73l-103 -73h-46l128 119h51l79 -119h-35z" />
    <glyph glyph-name="Atilde" unicode="&#xc3;" horiz-adv-x="735" 
d="M-42 0l510 768l43 7l162 -775h-44l-64 314h-349l-206 -314h-52zM483 720l-240 -364h313zM474 875c-28 0 -52 -24 -62 -56l-24 6c20 63 58 99 97 99c42 0 82 -34 114 -34c29 0 51 23 62 56l24 -6c-20 -63 -58 -99 -97 -99c-42 0 -82 34 -114 34z" />
    <glyph glyph-name="Adieresis" unicode="&#xc4;" horiz-adv-x="735" 
d="M-42 0l510 768l43 7l162 -775h-44l-64 314h-349l-206 -314h-52zM483 720l-240 -364h313zM445 923c20 0 32 -13 32 -31c0 -25 -19 -42 -42 -42c-21 0 -33 12 -33 30c0 25 18 43 43 43zM628 923c20 0 32 -13 32 -31c0 -25 -19 -42 -42 -42c-21 0 -33 12 -33 30
c0 25 18 43 43 43z" />
    <glyph glyph-name="Amacron" unicode="&#x100;" horiz-adv-x="735" 
d="M-42 0l510 768l43 7l162 -775h-44l-64 314h-349l-206 -314h-52zM483 720l-240 -364h313zM661 897l-9 -42h-254l9 42h254z" />
    <glyph glyph-name="Abreve" unicode="&#x102;" horiz-adv-x="735" 
d="M-42 0l510 768l43 7l162 -775h-44l-64 314h-349l-206 -314h-52zM483 720l-240 -364h313zM527 873c53 0 81 27 93 70h38c-11 -56 -53 -113 -138 -113c-67 0 -93 35 -93 81c0 12 1 21 3 32h32c-1 -6 -1 -10 -1 -15c0 -35 20 -55 66 -55z" />
    <glyph glyph-name="Aring" unicode="&#xc5;" horiz-adv-x="735" 
d="M-42 0l510 768l43 7l162 -775h-44l-64 314h-349l-206 -314h-52zM483 720l-240 -364h313zM440 893c0 55 53 103 106 103c48 0 82 -37 82 -83c0 -55 -52 -103 -106 -103c-48 0 -82 37 -82 83zM475 893c0 -27 19 -48 47 -48c36 0 71 31 71 68c0 27 -19 48 -47 48
c-36 0 -71 -31 -71 -68z" />
    <glyph glyph-name="Aogonek" unicode="&#x104;" horiz-adv-x="735" 
d="M-42 0l510 768l43 7l162 -775c-109 -84 -137 -119 -137 -166c0 -17 12 -29 33 -29c23 0 44 8 63 27h2l-16 -53c-16 -11 -34 -16 -54 -16c-45 0 -73 22 -73 67c0 59 43 99 138 170l-64 314h-349l-206 -314h-52zM483 720l-240 -364h313z" />
    <glyph glyph-name="AE" unicode="&#xc6;" horiz-adv-x="857" 
d="M561 729l-64 -303h293l-9 -42h-293l-73 -342h339l-9 -42h-382l71 335h-210l-244 -335h-52l563 772h418l-9 -43h-339zM253 375h189l76 354h-7z" />
    <glyph glyph-name="Cacute" unicode="&#x106;" horiz-adv-x="749" 
d="M787 716l-19 -47h-3c-44 46 -116 72 -217 72c-216 0 -414 -200 -414 -428c0 -173 100 -282 263 -282c94 0 183 27 270 97h3l-23 -70c-77 -48 -165 -71 -253 -71c-189 0 -306 132 -306 326c0 255 220 472 463 472c110 0 179 -23 236 -69zM685 949l-141 -119h-40l102 119
h79z" />
    <glyph glyph-name="Ccircumflex" unicode="&#x108;" horiz-adv-x="749" 
d="M787 716l-19 -47h-3c-44 46 -116 72 -217 72c-216 0 -414 -200 -414 -428c0 -173 100 -282 263 -282c94 0 183 27 270 97h3l-23 -70c-77 -48 -165 -71 -253 -71c-189 0 -306 132 -306 326c0 255 220 472 463 472c110 0 179 -23 236 -69zM654 830l-74 73l-103 -73h-46
l128 119h51l79 -119h-35z" />
    <glyph glyph-name="Ccaron" unicode="&#x10c;" horiz-adv-x="749" 
d="M787 716l-19 -47h-3c-44 46 -116 72 -217 72c-216 0 -414 -200 -414 -428c0 -173 100 -282 263 -282c94 0 183 27 270 97h3l-23 -70c-77 -48 -165 -71 -253 -71c-189 0 -306 132 -306 326c0 255 220 472 463 472c110 0 179 -23 236 -69zM455 949h36l73 -74l104 74h45
l-128 -119h-51z" />
    <glyph glyph-name="Ccedilla" unicode="&#xc7;" horiz-adv-x="749" 
d="M787 716l-19 -47h-3c-44 46 -116 72 -217 72c-216 0 -414 -200 -414 -428c0 -173 100 -282 263 -282c94 0 183 27 270 97h3l-23 -70c-74 -46 -158 -69 -243 -71l-34 -48c3 1 8 2 13 2c47 0 74 -29 74 -70c0 -50 -53 -89 -116 -89c-34 0 -62 10 -78 27l12 41
c11 -19 35 -29 65 -29c50 0 72 22 72 49c0 22 -17 39 -50 39c-21 0 -39 -4 -54 -10l-1 2l59 87c-173 12 -278 140 -278 325c0 255 220 472 463 472c110 0 179 -23 236 -69z" />
    <glyph glyph-name="Cdotaccent" unicode="&#x10a;" horiz-adv-x="749" 
d="M787 716l-19 -47h-3c-44 46 -116 72 -217 72c-216 0 -414 -200 -414 -428c0 -173 100 -282 263 -282c94 0 183 27 270 97h3l-23 -70c-77 -48 -165 -71 -253 -71c-189 0 -306 132 -306 326c0 255 220 472 463 472c110 0 179 -23 236 -69zM577 923c20 0 32 -13 32 -31
c0 -25 -19 -42 -42 -42c-21 0 -33 12 -33 30c0 25 18 43 43 43z" />
    <glyph glyph-name="Dcaron" unicode="&#x10e;" horiz-adv-x="751" 
d="M207 0h-149l164 772h151c230 0 353 -127 353 -310c0 -273 -186 -462 -519 -462zM256 730l-146 -688h102c301 0 468 173 468 419c0 154 -103 269 -312 269h-112zM344 949h36l73 -74l104 74h45l-128 -119h-51z" />
    <glyph glyph-name="Dcroat" unicode="&#x110;" horiz-adv-x="751" 
d="M207 0h-149l79 375h-69l9 40h69l76 357h151c230 0 353 -127 353 -310c0 -273 -186 -462 -519 -462zM256 730l-67 -315h165l-9 -40h-165l-70 -333h102c301 0 468 173 468 419c0 154 -103 269 -312 269h-112z" />
    <glyph glyph-name="Eth" unicode="&#xd0;" horiz-adv-x="751" 
d="M207 0h-149l79 375h-69l9 40h69l76 357h151c230 0 353 -127 353 -310c0 -273 -186 -462 -519 -462zM256 730l-67 -315h165l-9 -40h-165l-70 -333h102c301 0 468 173 468 419c0 154 -103 269 -312 269h-112z" />
    <glyph glyph-name="Egrave" unicode="&#xc8;" horiz-adv-x="559" 
d="M256 730l-64 -304h310l-9 -42h-310l-73 -342h356l-9 -42h-399l164 772h389l-9 -42h-346zM452 830l-100 119h69l62 -119h-31z" />
    <glyph glyph-name="Eacute" unicode="&#xc9;" horiz-adv-x="559" 
d="M256 730l-64 -304h310l-9 -42h-310l-73 -342h356l-9 -42h-399l164 772h389l-9 -42h-346zM554 949l-141 -119h-40l102 119h79z" />
    <glyph glyph-name="Ecircumflex" unicode="&#xca;" horiz-adv-x="559" 
d="M256 730l-64 -304h310l-9 -42h-310l-73 -342h356l-9 -42h-399l164 772h389l-9 -42h-346zM523 830l-74 73l-103 -73h-46l128 119h51l79 -119h-35z" />
    <glyph glyph-name="Edieresis" unicode="&#xcb;" horiz-adv-x="559" 
d="M256 730l-64 -304h310l-9 -42h-310l-73 -342h356l-9 -42h-399l164 772h389l-9 -42h-346zM354 923c20 0 32 -13 32 -31c0 -25 -19 -42 -42 -42c-21 0 -33 12 -33 30c0 25 18 43 43 43zM537 923c20 0 32 -13 32 -31c0 -25 -19 -42 -42 -42c-21 0 -33 12 -33 30
c0 25 18 43 43 43z" />
    <glyph glyph-name="Emacron" unicode="&#x112;" horiz-adv-x="559" 
d="M256 730l-64 -304h310l-9 -42h-310l-73 -342h356l-9 -42h-399l164 772h389l-9 -42h-346zM570 897l-9 -42h-254l9 42h254z" />
    <glyph glyph-name="Ebreve" unicode="&#x114;" horiz-adv-x="559" 
d="M256 730l-64 -304h310l-9 -42h-310l-73 -342h356l-9 -42h-399l164 772h389l-9 -42h-346zM436 873c53 0 81 27 93 70h38c-11 -56 -53 -113 -138 -113c-67 0 -93 35 -93 81c0 12 1 21 3 32h32c-1 -6 -1 -10 -1 -15c0 -35 20 -55 66 -55z" />
    <glyph glyph-name="Edotaccent" unicode="&#x116;" horiz-adv-x="559" 
d="M256 730l-64 -304h310l-9 -42h-310l-73 -342h356l-9 -42h-399l164 772h389l-9 -42h-346zM446 923c20 0 32 -13 32 -31c0 -25 -19 -42 -42 -42c-21 0 -33 12 -33 30c0 25 18 43 43 43z" />
    <glyph glyph-name="Ecaron" unicode="&#x11a;" horiz-adv-x="559" 
d="M256 730l-64 -304h310l-9 -42h-310l-73 -342h356l-9 -42h-399l164 772h389l-9 -42h-346zM324 949h36l73 -74l104 74h45l-128 -119h-51z" />
    <glyph glyph-name="Eogonek" unicode="&#x118;" horiz-adv-x="559" 
d="M414 0h-356l164 772h389l-9 -42h-346l-64 -304h310l-9 -42h-310l-73 -342h356l-9 -42c-109 -86 -136 -119 -136 -166c0 -17 13 -29 35 -29s43 8 61 27h2l-16 -53c-16 -11 -34 -16 -54 -16c-45 0 -73 22 -73 67c0 59 43 99 138 170z" />
    <glyph glyph-name="Gcircumflex" unicode="&#x11c;" horiz-adv-x="784" 
d="M731 348l-54 -255c-81 -67 -185 -106 -284 -106c-187 0 -305 133 -305 327c0 258 203 471 460 471c107 0 185 -30 235 -75l-19 -48h-2c-53 58 -130 79 -214 79c-238 0 -414 -201 -414 -427c0 -172 100 -283 259 -283c98 0 181 34 247 89l48 228h43zM644 830l-74 73
l-103 -73h-46l128 119h51l79 -119h-35z" />
    <glyph glyph-name="Gbreve" unicode="&#x11e;" horiz-adv-x="784" 
d="M731 348l-54 -255c-81 -67 -185 -106 -284 -106c-187 0 -305 133 -305 327c0 258 203 471 460 471c107 0 185 -30 235 -75l-19 -48h-2c-53 58 -130 79 -214 79c-238 0 -414 -201 -414 -427c0 -172 100 -283 259 -283c98 0 181 34 247 89l48 228h43zM557 873
c53 0 81 27 93 70h38c-11 -56 -53 -113 -138 -113c-67 0 -93 35 -93 81c0 12 1 21 3 32h32c-1 -6 -1 -10 -1 -15c0 -35 20 -55 66 -55z" />
    <glyph glyph-name="Gdotaccent" unicode="&#x120;" horiz-adv-x="784" 
d="M731 348l-54 -255c-81 -67 -185 -106 -284 -106c-187 0 -305 133 -305 327c0 258 203 471 460 471c107 0 185 -30 235 -75l-19 -48h-2c-53 58 -130 79 -214 79c-238 0 -414 -201 -414 -427c0 -172 100 -283 259 -283c98 0 181 34 247 89l48 228h43zM567 923
c20 0 32 -13 32 -31c0 -25 -19 -42 -42 -42c-21 0 -33 12 -33 30c0 25 18 43 43 43z" />
    <glyph glyph-name="Gcommaaccent" unicode="&#x122;" horiz-adv-x="797" 
d="M731 348l-54 -255c-81 -67 -185 -106 -284 -106c-187 0 -305 133 -305 327c0 258 203 471 460 471c107 0 185 -30 235 -75l-19 -48h-2c-53 58 -130 79 -214 79c-238 0 -414 -201 -414 -427c0 -172 100 -283 259 -283c98 0 181 34 247 89l48 228h43zM398 -69
c3 -9 5 -21 5 -32c0 -37 -15 -70 -101 -136h-42c82 67 95 97 95 126c0 9 -2 20 -5 28z" />
    <glyph glyph-name="Hcircumflex" unicode="&#x124;" horiz-adv-x="767" 
d="M101 0h-43l164 772h43l-74 -350h461l74 350h43l-164 -772h-43l81 380h-461zM602 830l-74 73l-103 -73h-46l128 119h51l79 -119h-35z" />
    <glyph glyph-name="Hbar" unicode="&#x126;" horiz-adv-x="767" 
d="M101 0h-43l124 585h-70l9 40h70l31 147h43l-31 -147h461l31 147h43l-31 -147h70l-9 -40h-70l-124 -585h-43l81 380h-461zM191 422h461l34 163h-461z" />
    <glyph glyph-name="Igrave" unicode="&#xcc;" horiz-adv-x="263" 
d="M101 0h-43l164 772h43zM279 830l-100 119h69l62 -119h-31z" />
    <glyph glyph-name="Iacute" unicode="&#xcd;" horiz-adv-x="263" 
d="M101 0h-43l164 772h43zM381 949l-141 -119h-40l102 119h79z" />
    <glyph glyph-name="Icircumflex" unicode="&#xce;" horiz-adv-x="263" 
d="M101 0h-43l164 772h43zM350 830l-74 73l-103 -73h-46l128 119h51l79 -119h-35z" />
    <glyph glyph-name="Itilde" unicode="&#x128;" horiz-adv-x="263" 
d="M101 0h-43l164 772h43zM210 875c-28 0 -52 -24 -62 -56l-24 6c20 63 58 99 97 99c42 0 82 -34 114 -34c29 0 51 23 62 56l24 -6c-20 -63 -58 -99 -97 -99c-42 0 -82 34 -114 34z" />
    <glyph glyph-name="Idieresis" unicode="&#xcf;" horiz-adv-x="263" 
d="M101 0h-43l164 772h43zM181 923c20 0 32 -13 32 -31c0 -25 -19 -42 -42 -42c-21 0 -33 12 -33 30c0 25 18 43 43 43zM364 923c20 0 32 -13 32 -31c0 -25 -19 -42 -42 -42c-21 0 -33 12 -33 30c0 25 18 43 43 43z" />
    <glyph glyph-name="Imacron" unicode="&#x12a;" horiz-adv-x="263" 
d="M101 0h-43l164 772h43zM397 897l-9 -42h-254l9 42h254z" />
    <glyph glyph-name="Ibreve" unicode="&#x12c;" horiz-adv-x="263" 
d="M101 0h-43l164 772h43zM263 873c53 0 81 27 93 70h38c-11 -56 -53 -113 -138 -113c-67 0 -93 35 -93 81c0 12 1 21 3 32h32c-1 -6 -1 -10 -1 -15c0 -35 20 -55 66 -55z" />
    <glyph glyph-name="Idotaccent" unicode="&#x130;" horiz-adv-x="263" 
d="M101 0h-43l164 772h43zM273 923c20 0 32 -13 32 -31c0 -25 -19 -42 -42 -42c-21 0 -33 12 -33 30c0 25 18 43 43 43z" />
    <glyph glyph-name="Iogonek" unicode="&#x12e;" horiz-adv-x="263" 
d="M101 0c-85 -86 -106 -119 -106 -166c0 -17 13 -29 35 -29s43 8 61 27h2l-16 -53c-16 -11 -34 -16 -54 -16c-45 0 -73 22 -73 67c0 59 34 99 108 170l164 772h43z" />
    <glyph glyph-name="IJ" unicode="&#x132;" horiz-adv-x="484" 
d="M101 0h-43l164 772h43zM444 772h44l-139 -654c-37 -174 -79 -260 -150 -323l-95 -32l-3 11c111 65 162 144 205 347z" />
    <glyph glyph-name="Jcircumflex" unicode="&#x134;" horiz-adv-x="263" 
d="M223 772h44l-139 -654c-37 -174 -79 -260 -150 -323l-95 -32l-3 11c111 65 162 144 205 347zM352 830l-74 73l-103 -73h-46l128 119h51l79 -119h-35z" />
    <glyph glyph-name="Kcommaaccent" unicode="&#x136;" horiz-adv-x="659" 
d="M101 0h-43l164 772h43l-80 -378l466 378h69l-479 -384l352 -388h-60l-349 391zM311 -69c3 -9 5 -21 5 -32c0 -37 -15 -70 -101 -136h-42c82 67 95 97 95 126c0 9 -2 20 -5 28z" />
    <glyph glyph-name="Lacute" unicode="&#x139;" horiz-adv-x="599" 
d="M58 0l164 772h43l-155 -730h426l-9 -42h-469zM417 949l-141 -119h-40l102 119h79z" />
    <glyph glyph-name="Lcaron" unicode="&#x13d;" horiz-adv-x="599" 
d="M58 0l164 772h43l-155 -730h426l-9 -42h-469zM432 781c3 -10 4 -23 4 -35c0 -46 -22 -85 -90 -153h-33c49 60 75 92 75 142c0 10 -2 23 -4 32z" />
    <glyph glyph-name="Lcommaaccent" unicode="&#x13b;" horiz-adv-x="599" 
d="M58 0l164 772h43l-155 -730h426l-9 -42h-469zM301 -69c3 -9 5 -21 5 -32c0 -37 -15 -70 -101 -136h-42c82 67 95 97 95 126c0 9 -2 20 -5 28z" />
    <glyph glyph-name="Ldot" unicode="&#x13f;" horiz-adv-x="599" 
d="M58 0l164 772h43l-155 -730h426l-9 -42h-469zM482 497c20 0 32 -13 32 -31c0 -25 -19 -42 -42 -42c-21 0 -33 12 -33 30c0 25 18 43 43 43z" />
    <glyph glyph-name="Lslash" unicode="&#x141;" horiz-adv-x="599" 
d="M58 0l77 363l-80 -46l11 49l79 46l77 360h43l-71 -332l174 101l-12 -50l-172 -99l-74 -350h426l-9 -42h-469z" />
    <glyph glyph-name="Nacute" unicode="&#x143;" horiz-adv-x="864" 
d="M823 772h43l-164 -772h-47l-401 719l-153 -719h-43l164 772h50l399 -715zM682 949l-141 -119h-40l102 119h79z" />
    <glyph glyph-name="Ncaron" unicode="&#x147;" horiz-adv-x="864" 
d="M823 772h43l-164 -772h-47l-401 719l-153 -719h-43l164 772h50l399 -715zM452 949h36l73 -74l104 74h45l-128 -119h-51z" />
    <glyph glyph-name="Ntilde" unicode="&#xd1;" horiz-adv-x="864" 
d="M823 772h43l-164 -772h-47l-401 719l-153 -719h-43l164 772h50l399 -715zM511 875c-28 0 -52 -24 -62 -56l-24 6c20 63 58 99 97 99c42 0 82 -34 114 -34c29 0 51 23 62 56l24 -6c-20 -63 -58 -99 -97 -99c-42 0 -82 34 -114 34z" />
    <glyph glyph-name="Ncommaaccent" unicode="&#x145;" horiz-adv-x="864" 
d="M823 772h43l-164 -772h-47l-401 719l-153 -719h-43l164 772h50l399 -715zM389 -69c3 -9 5 -21 5 -32c0 -37 -15 -70 -101 -136h-42c82 67 95 97 95 126c0 9 -2 20 -5 28z" />
    <glyph glyph-name="Eng" unicode="&#x14a;" horiz-adv-x="864" 
d="M823 772h43l-176 -829c-24 -112 -85 -180 -173 -180c-36 0 -66 9 -88 24l6 53c19 -23 41 -35 83 -35c61 0 109 47 129 139l11 51l-404 724l-153 -719h-43l164 772h50l399 -715z" />
    <glyph glyph-name="Ograve" unicode="&#xd2;" horiz-adv-x="852" 
d="M389 29c234 0 388 224 388 431c0 170 -90 283 -253 283c-211 0 -388 -185 -388 -415c0 -175 95 -299 253 -299zM823 463c0 -232 -172 -478 -434 -478c-185 0 -299 141 -299 340c0 257 200 462 434 462c191 0 299 -129 299 -324zM560 830l-100 119h69l62 -119h-31z" />
    <glyph glyph-name="Oacute" unicode="&#xd3;" horiz-adv-x="852" 
d="M389 29c234 0 388 224 388 431c0 170 -90 283 -253 283c-211 0 -388 -185 -388 -415c0 -175 95 -299 253 -299zM823 463c0 -232 -172 -478 -434 -478c-185 0 -299 141 -299 340c0 257 200 462 434 462c191 0 299 -129 299 -324zM662 949l-141 -119h-40l102 119h79z" />
    <glyph glyph-name="Ocircumflex" unicode="&#xd4;" horiz-adv-x="852" 
d="M389 29c234 0 388 224 388 431c0 170 -90 283 -253 283c-211 0 -388 -185 -388 -415c0 -175 95 -299 253 -299zM823 463c0 -232 -172 -478 -434 -478c-185 0 -299 141 -299 340c0 257 200 462 434 462c191 0 299 -129 299 -324zM631 830l-74 73l-103 -73h-46l128 119h51
l79 -119h-35z" />
    <glyph glyph-name="Otilde" unicode="&#xd5;" horiz-adv-x="852" 
d="M389 29c234 0 388 224 388 431c0 170 -90 283 -253 283c-211 0 -388 -185 -388 -415c0 -175 95 -299 253 -299zM823 463c0 -232 -172 -478 -434 -478c-185 0 -299 141 -299 340c0 257 200 462 434 462c191 0 299 -129 299 -324zM491 875c-28 0 -52 -24 -62 -56l-24 6
c20 63 58 99 97 99c42 0 82 -34 114 -34c29 0 51 23 62 56l24 -6c-20 -63 -58 -99 -97 -99c-42 0 -82 34 -114 34z" />
    <glyph glyph-name="Odieresis" unicode="&#xd6;" horiz-adv-x="852" 
d="M389 29c234 0 388 224 388 431c0 170 -90 283 -253 283c-211 0 -388 -185 -388 -415c0 -175 95 -299 253 -299zM823 463c0 -232 -172 -478 -434 -478c-185 0 -299 141 -299 340c0 257 200 462 434 462c191 0 299 -129 299 -324zM462 923c20 0 32 -13 32 -31
c0 -25 -19 -42 -42 -42c-21 0 -33 12 -33 30c0 25 18 43 43 43zM645 923c20 0 32 -13 32 -31c0 -25 -19 -42 -42 -42c-21 0 -33 12 -33 30c0 25 18 43 43 43z" />
    <glyph glyph-name="Omacron" unicode="&#x14c;" horiz-adv-x="852" 
d="M389 29c234 0 388 224 388 431c0 170 -90 283 -253 283c-211 0 -388 -185 -388 -415c0 -175 95 -299 253 -299zM823 463c0 -232 -172 -478 -434 -478c-185 0 -299 141 -299 340c0 257 200 462 434 462c191 0 299 -129 299 -324zM678 897l-9 -42h-254l9 42h254z" />
    <glyph glyph-name="Obreve" unicode="&#x14e;" horiz-adv-x="852" 
d="M389 29c234 0 388 224 388 431c0 170 -90 283 -253 283c-211 0 -388 -185 -388 -415c0 -175 95 -299 253 -299zM823 463c0 -232 -172 -478 -434 -478c-185 0 -299 141 -299 340c0 257 200 462 434 462c191 0 299 -129 299 -324zM544 873c53 0 81 27 93 70h38
c-11 -56 -53 -113 -138 -113c-67 0 -93 35 -93 81c0 12 1 21 3 32h32c-1 -6 -1 -10 -1 -15c0 -35 20 -55 66 -55z" />
    <glyph glyph-name="Ohungarumlaut" unicode="&#x150;" horiz-adv-x="852" 
d="M389 29c234 0 388 224 388 431c0 170 -90 283 -253 283c-211 0 -388 -185 -388 -415c0 -175 95 -299 253 -299zM823 463c0 -232 -172 -478 -434 -478c-185 0 -299 141 -299 340c0 257 200 462 434 462c191 0 299 -129 299 -324zM547 949h72l-128 -119h-42zM660 949h72
l-128 -119h-42z" />
    <glyph glyph-name="Oslash" unicode="&#xd8;" horiz-adv-x="852" 
d="M823 463c0 -232 -172 -478 -434 -478c-85 0 -155 30 -206 81l-70 -74l-41 13l85 91c-43 59 -67 138 -67 229c0 257 200 462 434 462c89 0 160 -28 210 -78l67 71l43 -13l-83 -88c40 -55 62 -129 62 -216zM136 328c0 -78 19 -146 54 -198l512 545c-42 43 -102 68 -178 68
c-211 0 -388 -185 -388 -415zM389 29c234 0 388 224 388 431c0 73 -17 136 -49 184l-514 -544c43 -45 102 -71 175 -71z" />
    <glyph glyph-name="OE" unicode="&#x152;" horiz-adv-x="950" 
d="M654 729l-64 -303h293l-9 -42h-293l-73 -342h339l-9 -42h-443c-187 0 -307 133 -307 317c0 258 216 455 453 455h461l-9 -43h-339zM135 317c0 -161 103 -275 260 -275h70l146 688h-70c-214 0 -406 -180 -406 -413z" />
    <glyph glyph-name="Racute" unicode="&#x154;" horiz-adv-x="642" 
d="M53 0l164 772h167c140 0 218 -61 218 -167c0 -144 -96 -221 -255 -247l228 -358h-55l-217 351c-31 -3 -64 -4 -98 -4h-35l-74 -347h-43zM251 730l-72 -341h26c229 0 351 61 351 215c0 78 -57 126 -172 126h-133zM544 949l-141 -119h-40l102 119h79z" />
    <glyph glyph-name="Rcaron" unicode="&#x158;" horiz-adv-x="642" 
d="M53 0l164 772h167c140 0 218 -61 218 -167c0 -144 -96 -221 -255 -247l228 -358h-55l-217 351c-31 -3 -64 -4 -98 -4h-35l-74 -347h-43zM251 730l-72 -341h26c229 0 351 61 351 215c0 78 -57 126 -172 126h-133zM314 949h36l73 -74l104 74h45l-128 -119h-51z" />
    <glyph glyph-name="Rcommaaccent" unicode="&#x156;" horiz-adv-x="642" 
d="M53 0l164 772h167c140 0 218 -61 218 -167c0 -144 -96 -221 -255 -247l228 -358h-55l-217 351c-31 -3 -64 -4 -98 -4h-35l-74 -347h-43zM251 730l-72 -341h26c229 0 351 61 351 215c0 78 -57 126 -172 126h-133zM286 -69c3 -9 5 -21 5 -32c0 -37 -15 -70 -101 -136h-42
c82 67 95 97 95 126c0 9 -2 20 -5 28z" />
    <glyph glyph-name="Sacute" unicode="&#x15a;" horiz-adv-x="553" 
d="M32 95c39 -46 91 -69 172 -69c135 0 229 76 229 187c0 68 -42 122 -137 173c-104 56 -153 101 -153 193c0 116 99 208 234 208c64 0 113 -16 157 -44l-12 -56c-38 41 -90 58 -145 58c-120 0 -189 -72 -189 -166c0 -65 38 -104 134 -155c109 -58 157 -127 157 -211
c0 -143 -122 -229 -275 -229c-78 0 -148 21 -183 54l8 57h3zM512 949l-141 -119h-40l102 119h79z" />
    <glyph glyph-name="Scaron" unicode="&#x160;" horiz-adv-x="553" 
d="M32 95c39 -46 91 -69 172 -69c135 0 229 76 229 187c0 68 -42 122 -137 173c-104 56 -153 101 -153 193c0 116 99 208 234 208c64 0 113 -16 157 -44l-12 -56c-38 41 -90 58 -145 58c-120 0 -189 -72 -189 -166c0 -65 38 -104 134 -155c109 -58 157 -127 157 -211
c0 -143 -122 -229 -275 -229c-78 0 -148 21 -183 54l8 57h3zM282 949h36l73 -74l104 74h45l-128 -119h-51z" />
    <glyph glyph-name="Scircumflex" unicode="&#x15c;" horiz-adv-x="553" 
d="M32 95c39 -46 91 -69 172 -69c135 0 229 76 229 187c0 68 -42 122 -137 173c-104 56 -153 101 -153 193c0 116 99 208 234 208c64 0 113 -16 157 -44l-12 -56c-38 41 -90 58 -145 58c-120 0 -189 -72 -189 -166c0 -65 38 -104 134 -155c109 -58 157 -127 157 -211
c0 -143 -122 -229 -275 -229c-78 0 -148 21 -183 54l8 57h3zM481 830l-74 73l-103 -73h-46l128 119h51l79 -119h-35z" />
    <glyph glyph-name="Scedilla" unicode="&#x15e;" horiz-adv-x="553" 
d="M32 95c39 -46 91 -69 172 -69c135 0 229 76 229 187c0 68 -42 122 -137 173c-104 56 -153 101 -153 193c0 116 99 208 234 208c64 0 113 -16 157 -44l-12 -56c-38 41 -90 58 -145 58c-120 0 -189 -72 -189 -166c0 -65 38 -104 134 -155c109 -58 157 -127 157 -211
c0 -140 -117 -225 -265 -229l-32 -45c3 1 8 2 13 2c47 0 74 -29 74 -70c0 -50 -53 -89 -116 -89c-34 0 -62 10 -78 27l12 41c11 -19 35 -29 65 -29c50 0 72 22 72 49c0 22 -17 39 -50 39c-21 0 -39 -4 -54 -10l-1 2l57 84c-66 5 -124 24 -155 53l8 57h3z" />
    <glyph glyph-name="uni0218" unicode="&#x218;" horiz-adv-x="553" 
d="M32 95c39 -46 91 -69 172 -69c135 0 229 76 229 187c0 68 -42 122 -137 173c-104 56 -153 101 -153 193c0 116 99 208 234 208c64 0 113 -16 157 -44l-12 -56c-38 41 -90 58 -145 58c-120 0 -189 -72 -189 -166c0 -65 38 -104 134 -155c109 -58 157 -127 157 -211
c0 -143 -122 -229 -275 -229c-78 0 -148 21 -183 54l8 57h3zM217 -69c3 -9 5 -21 5 -32c0 -37 -15 -70 -101 -136h-42c82 67 95 97 95 126c0 9 -2 20 -5 28z" />
    <glyph glyph-name="Tcaron" unicode="&#x164;" horiz-adv-x="627" 
d="M283 0h-43l155 730h-282l9 42h607l-9 -42h-282zM333 949h36l73 -74l104 74h45l-128 -119h-51z" />
    <glyph glyph-name="uni0162" unicode="&#x162;" horiz-adv-x="627" 
d="M283 0h-43l155 730h-282l9 42h607l-9 -42h-282zM272 -69c3 -9 5 -21 5 -32c0 -37 -15 -70 -101 -136h-42c82 67 95 97 95 126c0 9 -2 20 -5 28z" />
    <glyph glyph-name="uni021A" unicode="&#x21a;" horiz-adv-x="627" 
d="M283 0h-43l155 730h-282l9 42h607l-9 -42h-282zM272 -69c3 -9 5 -21 5 -32c0 -37 -15 -70 -101 -136h-42c82 67 95 97 95 126c0 9 -2 20 -5 28z" />
    <glyph glyph-name="Tbar" unicode="&#x166;" horiz-adv-x="627" 
d="M283 0h-43l101 475h-120l9 40h119l46 215h-282l9 42h607l-9 -42h-282l-46 -215h121l-9 -40h-120z" />
    <glyph glyph-name="Ugrave" unicode="&#xd9;" horiz-adv-x="748" 
d="M217 772h43l-105 -494c-6 -29 -9 -58 -9 -86c0 -116 76 -164 179 -164c127 0 245 76 282 250l105 494h43l-105 -494c-43 -204 -177 -292 -325 -292c-130 0 -222 63 -222 205c0 29 4 62 9 87zM510 830l-100 119h69l62 -119h-31z" />
    <glyph glyph-name="Uacute" unicode="&#xda;" horiz-adv-x="748" 
d="M217 772h43l-105 -494c-6 -29 -9 -58 -9 -86c0 -116 76 -164 179 -164c127 0 245 76 282 250l105 494h43l-105 -494c-43 -204 -177 -292 -325 -292c-130 0 -222 63 -222 205c0 29 4 62 9 87zM612 949l-141 -119h-40l102 119h79z" />
    <glyph glyph-name="Ucircumflex" unicode="&#xdb;" horiz-adv-x="748" 
d="M217 772h43l-105 -494c-6 -29 -9 -58 -9 -86c0 -116 76 -164 179 -164c127 0 245 76 282 250l105 494h43l-105 -494c-43 -204 -177 -292 -325 -292c-130 0 -222 63 -222 205c0 29 4 62 9 87zM581 830l-74 73l-103 -73h-46l128 119h51l79 -119h-35z" />
    <glyph glyph-name="Utilde" unicode="&#x168;" horiz-adv-x="748" 
d="M217 772h43l-105 -494c-6 -29 -9 -58 -9 -86c0 -116 76 -164 179 -164c127 0 245 76 282 250l105 494h43l-105 -494c-43 -204 -177 -292 -325 -292c-130 0 -222 63 -222 205c0 29 4 62 9 87zM441 875c-28 0 -52 -24 -62 -56l-24 6c20 63 58 99 97 99c42 0 82 -34 114 -34
c29 0 51 23 62 56l24 -6c-20 -63 -58 -99 -97 -99c-42 0 -82 34 -114 34z" />
    <glyph glyph-name="Udieresis" unicode="&#xdc;" horiz-adv-x="748" 
d="M217 772h43l-105 -494c-6 -29 -9 -58 -9 -86c0 -116 76 -164 179 -164c127 0 245 76 282 250l105 494h43l-105 -494c-43 -204 -177 -292 -325 -292c-130 0 -222 63 -222 205c0 29 4 62 9 87zM412 923c20 0 32 -13 32 -31c0 -25 -19 -42 -42 -42c-21 0 -33 12 -33 30
c0 25 18 43 43 43zM595 923c20 0 32 -13 32 -31c0 -25 -19 -42 -42 -42c-21 0 -33 12 -33 30c0 25 18 43 43 43z" />
    <glyph glyph-name="Umacron" unicode="&#x16a;" horiz-adv-x="748" 
d="M217 772h43l-105 -494c-6 -29 -9 -58 -9 -86c0 -116 76 -164 179 -164c127 0 245 76 282 250l105 494h43l-105 -494c-43 -204 -177 -292 -325 -292c-130 0 -222 63 -222 205c0 29 4 62 9 87zM628 897l-9 -42h-254l9 42h254z" />
    <glyph glyph-name="Ubreve" unicode="&#x16c;" horiz-adv-x="748" 
d="M217 772h43l-105 -494c-6 -29 -9 -58 -9 -86c0 -116 76 -164 179 -164c127 0 245 76 282 250l105 494h43l-105 -494c-43 -204 -177 -292 -325 -292c-130 0 -222 63 -222 205c0 29 4 62 9 87zM494 873c53 0 81 27 93 70h38c-11 -56 -53 -113 -138 -113
c-67 0 -93 35 -93 81c0 12 1 21 3 32h32c-1 -6 -1 -10 -1 -15c0 -35 20 -55 66 -55z" />
    <glyph glyph-name="Uring" unicode="&#x16e;" horiz-adv-x="748" 
d="M217 772h43l-105 -494c-6 -29 -9 -58 -9 -86c0 -116 76 -164 179 -164c127 0 245 76 282 250l105 494h43l-105 -494c-43 -204 -177 -292 -325 -292c-130 0 -222 63 -222 205c0 29 4 62 9 87zM407 893c0 55 53 103 106 103c48 0 82 -37 82 -83c0 -55 -52 -103 -106 -103
c-48 0 -82 37 -82 83zM442 893c0 -27 19 -48 47 -48c36 0 71 31 71 68c0 27 -19 48 -47 48c-36 0 -71 -31 -71 -68z" />
    <glyph glyph-name="Uhungarumlaut" unicode="&#x170;" horiz-adv-x="748" 
d="M217 772h43l-105 -494c-6 -29 -9 -58 -9 -86c0 -116 76 -164 179 -164c127 0 245 76 282 250l105 494h43l-105 -494c-43 -204 -177 -292 -325 -292c-130 0 -222 63 -222 205c0 29 4 62 9 87zM497 949h72l-128 -119h-42zM610 949h72l-128 -119h-42z" />
    <glyph glyph-name="Uogonek" unicode="&#x172;" horiz-adv-x="748" 
d="M217 772h43l-105 -494c-6 -29 -9 -58 -9 -86c0 -116 76 -164 179 -164c127 0 245 76 282 250l105 494h43l-105 -494c-22 -104 -67 -180 -143 -240c-156 -124 -179 -162 -179 -204c0 -17 13 -29 35 -29s43 8 61 27h2l-16 -53c-16 -11 -34 -16 -54 -16c-45 0 -73 22 -73 67
c0 56 27 88 136 170c-16 -7 -67 -14 -94 -14c-130 0 -222 63 -222 205c0 29 4 62 9 87z" />
    <glyph glyph-name="Wgrave" unicode="&#x1e80;" horiz-adv-x="1083" 
d="M675 0l-80 502l-303 -502h-38l-132 772h46l115 -707l302 499l-32 208h44l107 -709l429 709h52l-472 -772h-38zM673 830l-100 119h69l62 -119h-31z" />
    <glyph glyph-name="Wacute" unicode="&#x1e82;" horiz-adv-x="1083" 
d="M675 0l-80 502l-303 -502h-38l-132 772h46l115 -707l302 499l-32 208h44l107 -709l429 709h52l-472 -772h-38zM775 949l-141 -119h-40l102 119h79z" />
    <glyph glyph-name="Wcircumflex" unicode="&#x174;" horiz-adv-x="1083" 
d="M675 0l-80 502l-303 -502h-38l-132 772h46l115 -707l302 499l-32 208h44l107 -709l429 709h52l-472 -772h-38zM744 830l-74 73l-103 -73h-46l128 119h51l79 -119h-35z" />
    <glyph glyph-name="Wdieresis" unicode="&#x1e84;" horiz-adv-x="1083" 
d="M675 0l-80 502l-303 -502h-38l-132 772h46l115 -707l302 499l-32 208h44l107 -709l429 709h52l-472 -772h-38zM575 923c20 0 32 -13 32 -31c0 -25 -19 -42 -42 -42c-21 0 -33 12 -33 30c0 25 18 43 43 43zM758 923c20 0 32 -13 32 -31c0 -25 -19 -42 -42 -42
c-21 0 -33 12 -33 30c0 25 18 43 43 43z" />
    <glyph glyph-name="Ygrave" unicode="&#x1ef2;" horiz-adv-x="676" 
d="M298 0h-43l75 354l-212 418h48l189 -379l366 379h62l-410 -418zM477 830l-100 119h69l62 -119h-31z" />
    <glyph glyph-name="Yacute" unicode="&#xdd;" horiz-adv-x="676" 
d="M298 0h-43l75 354l-212 418h48l189 -379l366 379h62l-410 -418zM579 949l-141 -119h-40l102 119h79z" />
    <glyph glyph-name="Ycircumflex" unicode="&#x176;" horiz-adv-x="676" 
d="M298 0h-43l75 354l-212 418h48l189 -379l366 379h62l-410 -418zM548 830l-74 73l-103 -73h-46l128 119h51l79 -119h-35z" />
    <glyph glyph-name="Ydieresis" unicode="&#x178;" horiz-adv-x="676" 
d="M298 0h-43l75 354l-212 418h48l189 -379l366 379h62l-410 -418zM379 923c20 0 32 -13 32 -31c0 -25 -19 -42 -42 -42c-21 0 -33 12 -33 30c0 25 18 43 43 43zM562 923c20 0 32 -13 32 -31c0 -25 -19 -42 -42 -42c-21 0 -33 12 -33 30c0 25 18 43 43 43z" />
    <glyph glyph-name="Zacute" unicode="&#x179;" horiz-adv-x="715" 
d="M599 0h-641l724 730h-493l15 42h578l-723 -730h559zM600 949l-141 -119h-40l102 119h79z" />
    <glyph glyph-name="Zcaron" unicode="&#x17d;" horiz-adv-x="715" 
d="M599 0h-641l724 730h-493l15 42h578l-723 -730h559zM370 949h36l73 -74l104 74h45l-128 -119h-51z" />
    <glyph glyph-name="Zdotaccent" unicode="&#x17b;" horiz-adv-x="715" 
d="M599 0h-641l724 730h-493l15 42h578l-723 -730h559zM492 923c20 0 32 -13 32 -31c0 -25 -19 -42 -42 -42c-21 0 -33 12 -33 30c0 25 18 43 43 43z" />
    <glyph glyph-name="germandblS" unicode="&#x1e9e;" horiz-adv-x="728" 
d="M716 725l-261 -308c150 -9 211 -94 211 -190c0 -133 -109 -244 -269 -244c-72 0 -124 16 -154 40l12 53c26 -29 76 -49 142 -49c147 0 223 97 223 200c0 75 -52 151 -200 151c-17 0 -34 -1 -51 -4l-1 3l278 331c-32 21 -80 32 -146 32c-146 0 -271 -92 -307 -260
l-102 -480h-43l104 491c38 177 181 293 348 293c100 0 165 -22 216 -59z" />
    <glyph glyph-name="Thorn" unicode="&#xde;" horiz-adv-x="555" 
d="M101 0h-43l164 772h43l-29 -138h82c154 0 243 -69 243 -184c0 -168 -115 -266 -330 -266h-91zM227 592l-78 -366h83c189 0 282 84 282 224c0 91 -69 142 -198 142h-89z" />
    <glyph glyph-name="agrave" unicode="&#xe0;" horiz-adv-x="489" 
d="M127 386l12 58c47 32 103 46 153 46c90 0 133 -43 133 -119c0 -14 -2 -28 -5 -44l-69 -323l-44 -13l17 78c-51 -43 -121 -78 -192 -78s-115 39 -115 102c0 65 43 122 127 154c60 23 129 38 228 48l9 42c2 10 3 23 3 34c0 50 -34 77 -92 77c-56 0 -114 -19 -165 -62z
M336 128l27 127c-62 -4 -136 -18 -184 -35c-89 -31 -118 -77 -118 -126c0 -37 24 -64 76 -64c62 0 133 33 199 98zM331 568l-94 149h61l59 -149h-26z" />
    <glyph glyph-name="aacute" unicode="&#xe1;" horiz-adv-x="489" 
d="M127 386l12 58c47 32 103 46 153 46c90 0 133 -43 133 -119c0 -14 -2 -28 -5 -44l-69 -323l-44 -13l17 78c-51 -43 -121 -78 -192 -78s-115 39 -115 102c0 65 43 122 127 154c60 23 129 38 228 48l9 42c2 10 3 23 3 34c0 50 -34 77 -92 77c-56 0 -114 -19 -165 -62z
M336 128l27 127c-62 -4 -136 -18 -184 -35c-89 -31 -118 -77 -118 -126c0 -37 24 -64 76 -64c62 0 133 33 199 98zM449 717l-148 -149h-35l115 149h68z" />
    <glyph glyph-name="acircumflex" unicode="&#xe2;" horiz-adv-x="489" 
d="M127 386l12 58c47 32 103 46 153 46c90 0 133 -43 133 -119c0 -14 -2 -28 -5 -44l-69 -323l-44 -13l17 78c-51 -43 -121 -78 -192 -78s-115 39 -115 102c0 65 43 122 127 154c60 23 129 38 228 48l9 42c2 10 3 23 3 34c0 50 -34 77 -92 77c-56 0 -114 -19 -165 -62z
M336 128l27 127c-62 -4 -136 -18 -184 -35c-89 -31 -118 -77 -118 -126c0 -37 24 -64 76 -64c62 0 133 33 199 98zM401 568l-66 91l-102 -91h-40l136 149h30l72 -149h-30z" />
    <glyph glyph-name="atilde" unicode="&#xe3;" horiz-adv-x="489" 
d="M127 386l12 58c47 32 103 46 153 46c90 0 133 -43 133 -119c0 -14 -2 -28 -5 -44l-69 -323l-44 -13l17 78c-51 -43 -121 -78 -192 -78s-115 39 -115 102c0 65 43 122 127 154c60 23 129 38 228 48l9 42c2 10 3 23 3 34c0 50 -34 77 -92 77c-56 0 -114 -19 -165 -62z
M336 128l27 127c-62 -4 -136 -18 -184 -35c-89 -31 -118 -77 -118 -126c0 -37 24 -64 76 -64c62 0 133 33 199 98zM262 643c-28 0 -51 -24 -59 -56l-24 6c16 63 51 99 88 99c44 0 82 -54 116 -54c29 0 50 23 59 56l24 -6c-16 -63 -51 -99 -88 -99c-44 0 -82 54 -116 54z" />
    <glyph glyph-name="adieresis" unicode="&#xe4;" horiz-adv-x="489" 
d="M127 386l12 58c47 32 103 46 153 46c90 0 133 -43 133 -119c0 -14 -2 -28 -5 -44l-69 -323l-44 -13l17 78c-51 -43 -121 -78 -192 -78s-115 39 -115 102c0 65 43 122 127 154c60 23 129 38 228 48l9 42c2 10 3 23 3 34c0 50 -34 77 -92 77c-56 0 -114 -19 -165 -62z
M336 128l27 127c-62 -4 -136 -18 -184 -35c-89 -31 -118 -77 -118 -126c0 -37 24 -64 76 -64c62 0 133 33 199 98zM251 676c19 0 32 -13 32 -31c0 -25 -19 -42 -43 -42c-20 0 -32 12 -32 30c0 25 18 43 43 43zM414 676c19 0 32 -13 32 -31c0 -25 -19 -42 -43 -42
c-20 0 -32 12 -32 30c0 25 18 43 43 43z" />
    <glyph glyph-name="amacron" unicode="&#x101;" horiz-adv-x="489" 
d="M127 386l12 58c47 32 103 46 153 46c90 0 133 -43 133 -119c0 -14 -2 -28 -5 -44l-69 -323l-44 -13l17 78c-51 -43 -121 -78 -192 -78s-115 39 -115 102c0 65 43 122 127 154c60 23 129 38 228 48l9 42c2 10 3 23 3 34c0 50 -34 77 -92 77c-56 0 -114 -19 -165 -62z
M336 128l27 127c-62 -4 -136 -18 -184 -35c-89 -31 -118 -77 -118 -126c0 -37 24 -64 76 -64c62 0 133 33 199 98zM458 660l-9 -42h-254l9 42h254z" />
    <glyph glyph-name="abreve" unicode="&#x103;" horiz-adv-x="489" 
d="M127 386l12 58c47 32 103 46 153 46c90 0 133 -43 133 -119c0 -14 -2 -28 -5 -44l-69 -323l-44 -13l17 78c-51 -43 -121 -78 -192 -78s-115 39 -115 102c0 65 43 122 127 154c60 23 129 38 228 48l9 42c2 10 3 23 3 34c0 50 -34 77 -92 77c-56 0 -114 -19 -165 -62z
M336 128l27 127c-62 -4 -136 -18 -184 -35c-89 -31 -118 -77 -118 -126c0 -37 24 -64 76 -64c62 0 133 33 199 98zM320 621c56 0 86 33 97 86h38c-13 -64 -56 -129 -141 -129c-65 0 -91 38 -91 87c0 15 1 26 4 42h32c-2 -10 -3 -19 -3 -28c0 -36 19 -58 64 -58z" />
    <glyph glyph-name="aring" unicode="&#xe5;" horiz-adv-x="489" 
d="M127 386l12 58c47 32 103 46 153 46c90 0 133 -43 133 -119c0 -14 -2 -28 -5 -44l-69 -323l-44 -13l17 78c-51 -43 -121 -78 -192 -78s-115 39 -115 102c0 65 43 122 127 154c60 23 129 38 228 48l9 42c2 10 3 23 3 34c0 50 -34 77 -92 77c-56 0 -114 -19 -165 -62z
M336 128l27 127c-62 -4 -136 -18 -184 -35c-89 -31 -118 -77 -118 -126c0 -37 24 -64 76 -64c62 0 133 33 199 98zM233 641c0 55 54 103 108 103c48 0 82 -37 82 -83c0 -55 -53 -103 -107 -103c-47 0 -83 37 -83 83zM269 641c0 -27 19 -48 47 -48c36 0 72 31 72 68
c0 27 -19 48 -47 48c-36 0 -72 -31 -72 -68z" />
    <glyph glyph-name="aogonek" unicode="&#x105;" horiz-adv-x="489" 
d="M127 386l12 58c47 32 103 46 153 46c90 0 133 -43 133 -119c0 -14 -2 -28 -5 -44l-70 -327c-109 -86 -136 -119 -136 -166c0 -17 13 -29 35 -29s43 8 61 27h2l-16 -53c-16 -11 -34 -16 -54 -16c-45 0 -73 22 -73 67c0 59 45 102 140 170l15 69c-51 -43 -121 -78 -192 -78
s-115 39 -115 102c0 65 43 122 127 154c60 23 129 38 228 48l9 42c2 10 3 23 3 34c0 50 -34 77 -92 77c-56 0 -114 -19 -165 -62zM336 128l27 127c-62 -4 -136 -18 -184 -35c-89 -31 -118 -77 -118 -126c0 -37 24 -64 76 -64c62 0 133 33 199 98z" />
    <glyph glyph-name="ae" unicode="&#xe6;" horiz-adv-x="794" 
d="M139 442c50 35 103 48 154 48c88 0 128 -42 128 -115v-9c50 70 127 124 228 124c80 0 118 -45 118 -105c0 -69 -54 -130 -190 -146c-49 -6 -129 -11 -184 -12c-4 -19 -6 -39 -6 -59c0 -98 49 -148 138 -148c59 0 123 31 168 83h3v-53c-44 -40 -110 -68 -169 -68
c-91 0 -145 37 -166 102c-62 -54 -148 -102 -225 -102s-122 42 -122 108c0 74 60 129 162 150c48 10 109 16 189 18l14 68c4 18 6 31 6 44c0 52 -35 78 -93 78c-56 0 -112 -20 -165 -62zM136 21c66 0 143 34 215 106c-1 11 -1 21 -1 33c0 19 2 40 7 62
c-67 -2 -130 -8 -178 -19c-82 -19 -118 -58 -118 -112c0 -40 23 -70 75 -70zM642 449c-105 0 -202 -80 -239 -188c48 2 125 9 187 18c90 13 133 59 133 107c0 39 -30 63 -81 63z" />
    <glyph glyph-name="cacute" unicode="&#x107;" horiz-adv-x="512" 
d="M435 96l-25 -70c-39 -24 -102 -43 -161 -43c-128 0 -202 78 -202 201c0 167 123 312 308 312c63 0 115 -18 149 -48l-20 -41c-32 29 -71 47 -130 47c-161 0 -263 -121 -263 -269c0 -91 50 -160 159 -160c69 0 127 20 182 71h3zM495 717l-148 -149h-35l115 149h68z" />
    <glyph glyph-name="ccircumflex" unicode="&#x109;" horiz-adv-x="512" 
d="M435 96l-25 -70c-39 -24 -102 -43 -161 -43c-128 0 -202 78 -202 201c0 167 123 312 308 312c63 0 115 -18 149 -48l-20 -41c-32 29 -71 47 -130 47c-161 0 -263 -121 -263 -269c0 -91 50 -160 159 -160c69 0 127 20 182 71h3zM447 568l-66 91l-102 -91h-40l136 149h30
l72 -149h-30z" />
    <glyph glyph-name="ccaron" unicode="&#x10d;" horiz-adv-x="512" 
d="M435 96l-25 -70c-39 -24 -102 -43 -161 -43c-128 0 -202 78 -202 201c0 167 123 312 308 312c63 0 115 -18 149 -48l-20 -41c-32 29 -71 47 -130 47c-161 0 -263 -121 -263 -269c0 -91 50 -160 159 -160c69 0 127 20 182 71h3zM271 717h30l65 -91l103 91h40l-136 -149
h-30z" />
    <glyph glyph-name="ccedilla" unicode="&#xe7;" horiz-adv-x="512" 
d="M435 96l-25 -70c-39 -24 -102 -43 -161 -43l-31 -44c3 1 8 2 13 2c47 0 74 -29 74 -70c0 -50 -53 -89 -116 -89c-34 0 -62 10 -78 27l12 41c11 -19 35 -29 65 -29c50 0 72 22 72 49c0 22 -17 39 -50 39c-21 0 -39 -4 -54 -10l-1 2l58 85c-106 13 -166 87 -166 198
c0 167 123 312 308 312c63 0 115 -18 149 -48l-20 -41c-32 29 -71 47 -130 47c-161 0 -263 -121 -263 -269c0 -91 50 -160 159 -160c69 0 127 20 182 71h3z" />
    <glyph glyph-name="cdotaccent" unicode="&#x10b;" horiz-adv-x="512" 
d="M435 96l-25 -70c-39 -24 -102 -43 -161 -43c-128 0 -202 78 -202 201c0 167 123 312 308 312c63 0 115 -18 149 -48l-20 -41c-32 29 -71 47 -130 47c-161 0 -263 -121 -263 -269c0 -91 50 -160 159 -160c69 0 127 20 182 71h3zM379 676c19 0 32 -13 32 -31
c0 -25 -19 -42 -43 -42c-20 0 -32 12 -32 30c0 25 18 43 43 43z" />
    <glyph glyph-name="dcaron" unicode="&#x10f;" horiz-adv-x="574" 
d="M380 -15l9 43c-52 -33 -107 -45 -153 -45c-127 0 -191 88 -191 198c0 186 155 315 303 315c53 0 94 -10 134 -34l65 308l45 10l-165 -776zM236 24c60 0 117 18 164 54l72 338c-27 24 -73 38 -125 38c-134 0 -256 -113 -256 -272c0 -90 49 -158 145 -158zM707 781
c3 -10 4 -23 4 -35c0 -46 -22 -85 -90 -153h-33c49 60 75 92 75 142c0 10 -2 23 -4 32z" />
    <glyph glyph-name="dcroat" unicode="&#x111;" horiz-adv-x="574" 
d="M380 -15l9 43c-52 -33 -107 -45 -153 -45c-127 0 -191 88 -191 198c0 186 155 315 303 315c53 0 94 -10 134 -34l31 148h-169l9 40h168l26 120l45 10l-28 -130h62l-9 -40h-61l-129 -606zM236 24c60 0 117 18 164 54l72 338c-27 24 -73 38 -125 38
c-134 0 -256 -113 -256 -272c0 -90 49 -158 145 -158z" />
    <glyph glyph-name="eth" unicode="&#xf0;" 
d="M213 606l6 40l158 47c-28 28 -60 50 -95 64v2l42 21c35 -17 68 -42 95 -74l122 37l-5 -40l-93 -28c52 -75 82 -177 82 -292c0 -234 -118 -400 -301 -400c-113 0 -178 88 -178 203c0 176 126 309 282 309c69 0 120 -24 156 -66c-6 94 -36 174 -81 234zM223 24
c151 0 259 138 263 353c-35 50 -86 77 -157 77c-135 0 -239 -124 -239 -273c0 -91 48 -157 133 -157z" />
    <glyph glyph-name="egrave" unicode="&#xe8;" horiz-adv-x="508" 
d="M276 217c-52 -12 -133 -26 -192 -33v-5c0 -89 54 -152 156 -152c63 0 131 28 178 75h3l-14 -63c-43 -33 -110 -56 -168 -56c-136 0 -196 89 -196 192c0 154 146 321 305 321c88 0 133 -47 133 -109c0 -70 -47 -135 -205 -170zM348 455c-119 0 -235 -120 -259 -234
c48 5 134 22 201 40c100 26 147 74 147 125c0 42 -33 69 -89 69zM373 568l-94 149h61l59 -149h-26z" />
    <glyph glyph-name="eacute" unicode="&#xe9;" horiz-adv-x="508" 
d="M276 217c-52 -12 -133 -26 -192 -33v-5c0 -89 54 -152 156 -152c63 0 131 28 178 75h3l-14 -63c-43 -33 -110 -56 -168 -56c-136 0 -196 89 -196 192c0 154 146 321 305 321c88 0 133 -47 133 -109c0 -70 -47 -135 -205 -170zM348 455c-119 0 -235 -120 -259 -234
c48 5 134 22 201 40c100 26 147 74 147 125c0 42 -33 69 -89 69zM491 717l-148 -149h-35l115 149h68z" />
    <glyph glyph-name="ecircumflex" unicode="&#xea;" horiz-adv-x="508" 
d="M276 217c-52 -12 -133 -26 -192 -33v-5c0 -89 54 -152 156 -152c63 0 131 28 178 75h3l-14 -63c-43 -33 -110 -56 -168 -56c-136 0 -196 89 -196 192c0 154 146 321 305 321c88 0 133 -47 133 -109c0 -70 -47 -135 -205 -170zM348 455c-119 0 -235 -120 -259 -234
c48 5 134 22 201 40c100 26 147 74 147 125c0 42 -33 69 -89 69zM443 568l-66 91l-102 -91h-40l136 149h30l72 -149h-30z" />
    <glyph glyph-name="edieresis" unicode="&#xeb;" horiz-adv-x="508" 
d="M276 217c-52 -12 -133 -26 -192 -33v-5c0 -89 54 -152 156 -152c63 0 131 28 178 75h3l-14 -63c-43 -33 -110 -56 -168 -56c-136 0 -196 89 -196 192c0 154 146 321 305 321c88 0 133 -47 133 -109c0 -70 -47 -135 -205 -170zM348 455c-119 0 -235 -120 -259 -234
c48 5 134 22 201 40c100 26 147 74 147 125c0 42 -33 69 -89 69zM293 676c19 0 32 -13 32 -31c0 -25 -19 -42 -43 -42c-20 0 -32 12 -32 30c0 25 18 43 43 43zM456 676c19 0 32 -13 32 -31c0 -25 -19 -42 -43 -42c-20 0 -32 12 -32 30c0 25 18 43 43 43z" />
    <glyph glyph-name="emacron" unicode="&#x113;" horiz-adv-x="508" 
d="M276 217c-52 -12 -133 -26 -192 -33v-5c0 -89 54 -152 156 -152c63 0 131 28 178 75h3l-14 -63c-43 -33 -110 -56 -168 -56c-136 0 -196 89 -196 192c0 154 146 321 305 321c88 0 133 -47 133 -109c0 -70 -47 -135 -205 -170zM348 455c-119 0 -235 -120 -259 -234
c48 5 134 22 201 40c100 26 147 74 147 125c0 42 -33 69 -89 69zM500 660l-9 -42h-254l9 42h254z" />
    <glyph glyph-name="ebreve" unicode="&#x115;" horiz-adv-x="508" 
d="M276 217c-52 -12 -133 -26 -192 -33v-5c0 -89 54 -152 156 -152c63 0 131 28 178 75h3l-14 -63c-43 -33 -110 -56 -168 -56c-136 0 -196 89 -196 192c0 154 146 321 305 321c88 0 133 -47 133 -109c0 -70 -47 -135 -205 -170zM348 455c-119 0 -235 -120 -259 -234
c48 5 134 22 201 40c100 26 147 74 147 125c0 42 -33 69 -89 69zM362 621c56 0 86 33 97 86h38c-13 -64 -56 -129 -141 -129c-65 0 -91 38 -91 87c0 15 1 26 4 42h32c-2 -10 -3 -19 -3 -28c0 -36 19 -58 64 -58z" />
    <glyph glyph-name="edotaccent" unicode="&#x117;" horiz-adv-x="508" 
d="M276 217c-52 -12 -133 -26 -192 -33v-5c0 -89 54 -152 156 -152c63 0 131 28 178 75h3l-14 -63c-43 -33 -110 -56 -168 -56c-136 0 -196 89 -196 192c0 154 146 321 305 321c88 0 133 -47 133 -109c0 -70 -47 -135 -205 -170zM348 455c-119 0 -235 -120 -259 -234
c48 5 134 22 201 40c100 26 147 74 147 125c0 42 -33 69 -89 69zM375 676c19 0 32 -13 32 -31c0 -25 -19 -42 -43 -42c-20 0 -32 12 -32 30c0 25 18 43 43 43z" />
    <glyph glyph-name="ecaron" unicode="&#x11b;" horiz-adv-x="508" 
d="M276 217c-52 -12 -133 -26 -192 -33v-5c0 -89 54 -152 156 -152c63 0 131 28 178 75h3l-14 -63c-43 -33 -110 -56 -168 -56c-136 0 -196 89 -196 192c0 154 146 321 305 321c88 0 133 -47 133 -109c0 -70 -47 -135 -205 -170zM348 455c-119 0 -235 -120 -259 -234
c48 5 134 22 201 40c100 26 147 74 147 125c0 42 -33 69 -89 69zM267 717h30l65 -91l103 91h40l-136 -149h-30z" />
    <glyph glyph-name="eogonek" unicode="&#x119;" horiz-adv-x="508" 
d="M192 -170c0 57 35 101 109 161c-21 -5 -42 -8 -62 -8c-136 0 -196 89 -196 192c0 154 141 321 305 321c88 0 133 -47 133 -109c0 -70 -47 -135 -205 -170c-52 -12 -133 -26 -192 -33v-5c0 -89 54 -152 156 -152c63 0 131 28 178 75h3l-14 -63
c-137 -106 -170 -146 -170 -205c0 -17 13 -29 35 -29s43 8 61 27h2l-16 -53c-16 -11 -34 -16 -54 -16c-45 0 -73 22 -73 67zM348 457c-119 0 -235 -121 -259 -236c48 5 134 22 201 40c100 26 147 74 147 125c0 43 -33 71 -89 71z" />
    <glyph glyph-name="gcircumflex" unicode="&#x11d;" horiz-adv-x="534" 
d="M297 488c48 0 85 -13 112 -33c36 36 77 66 134 66l-10 -48c-35 0 -70 -14 -100 -42c19 -24 29 -54 29 -85c0 -82 -67 -144 -163 -167c-55 -13 -104 -17 -139 -25c-47 -11 -70 -22 -70 -43c0 -17 24 -29 60 -37c41 -9 128 -17 166 -25c64 -13 93 -49 93 -101
c0 -102 -128 -185 -264 -185c-109 0 -167 62 -167 132c0 50 25 110 126 153c-42 17 -59 41 -59 64c0 38 50 62 120 78c-46 23 -75 65 -75 116c0 95 96 182 207 182zM303 11c-32 7 -88 13 -149 24c-82 -27 -136 -74 -136 -138c0 -50 43 -96 127 -96c123 0 221 73 221 146
c0 29 -18 54 -63 64zM133 306c0 -39 22 -75 62 -95c6 -3 18 -6 25 -6c12 0 26 1 50 5c81 14 149 62 149 135c0 55 -43 102 -122 102c-88 0 -164 -61 -164 -141zM425 568l-66 91l-102 -91h-40l136 149h30l72 -149h-30z" />
    <glyph glyph-name="gbreve" unicode="&#x11f;" horiz-adv-x="534" 
d="M297 488c48 0 85 -13 112 -33c36 36 77 66 134 66l-10 -48c-35 0 -70 -14 -100 -42c19 -24 29 -54 29 -85c0 -82 -67 -144 -163 -167c-55 -13 -104 -17 -139 -25c-47 -11 -70 -22 -70 -43c0 -17 24 -29 60 -37c41 -9 128 -17 166 -25c64 -13 93 -49 93 -101
c0 -102 -128 -185 -264 -185c-109 0 -167 62 -167 132c0 50 25 110 126 153c-42 17 -59 41 -59 64c0 38 50 62 120 78c-46 23 -75 65 -75 116c0 95 96 182 207 182zM303 11c-32 7 -88 13 -149 24c-82 -27 -136 -74 -136 -138c0 -50 43 -96 127 -96c123 0 221 73 221 146
c0 29 -18 54 -63 64zM133 306c0 -39 22 -75 62 -95c6 -3 18 -6 25 -6c12 0 26 1 50 5c81 14 149 62 149 135c0 55 -43 102 -122 102c-88 0 -164 -61 -164 -141zM344 621c56 0 86 33 97 86h38c-13 -64 -56 -129 -141 -129c-65 0 -91 38 -91 87c0 15 1 26 4 42h32
c-2 -10 -3 -19 -3 -28c0 -36 19 -58 64 -58z" />
    <glyph glyph-name="gdotaccent" unicode="&#x121;" horiz-adv-x="534" 
d="M297 488c48 0 85 -13 112 -33c36 36 77 66 134 66l-10 -48c-35 0 -70 -14 -100 -42c19 -24 29 -54 29 -85c0 -82 -67 -144 -163 -167c-55 -13 -104 -17 -139 -25c-47 -11 -70 -22 -70 -43c0 -17 24 -29 60 -37c41 -9 128 -17 166 -25c64 -13 93 -49 93 -101
c0 -102 -128 -185 -264 -185c-109 0 -167 62 -167 132c0 50 25 110 126 153c-42 17 -59 41 -59 64c0 38 50 62 120 78c-46 23 -75 65 -75 116c0 95 96 182 207 182zM303 11c-32 7 -88 13 -149 24c-82 -27 -136 -74 -136 -138c0 -50 43 -96 127 -96c123 0 221 73 221 146
c0 29 -18 54 -63 64zM133 306c0 -39 22 -75 62 -95c6 -3 18 -6 25 -6c12 0 26 1 50 5c81 14 149 62 149 135c0 55 -43 102 -122 102c-88 0 -164 -61 -164 -141zM357 676c19 0 32 -13 32 -31c0 -25 -19 -42 -43 -42c-20 0 -32 12 -32 30c0 25 18 43 43 43z" />
    <glyph glyph-name="gcommaaccent" unicode="&#x123;" horiz-adv-x="534" 
d="M297 488c48 0 85 -13 112 -33c36 36 77 66 134 66l-10 -48c-35 0 -70 -14 -100 -42c19 -24 29 -54 29 -85c0 -82 -67 -144 -163 -167c-55 -13 -104 -17 -139 -25c-47 -11 -70 -22 -70 -43c0 -17 24 -29 60 -37c41 -9 128 -17 166 -25c64 -13 93 -49 93 -101
c0 -102 -128 -185 -264 -185c-109 0 -167 62 -167 132c0 50 25 110 126 153c-42 17 -59 41 -59 64c0 38 50 62 120 78c-46 23 -75 65 -75 116c0 95 96 182 207 182zM303 11c-32 7 -88 13 -149 24c-82 -27 -136 -74 -136 -138c0 -50 43 -96 127 -96c123 0 221 73 221 146
c0 29 -18 54 -63 64zM133 306c0 -39 22 -75 62 -95c6 -3 18 -6 25 -6c12 0 26 1 50 5c81 14 149 62 149 135c0 55 -43 102 -122 102c-88 0 -164 -61 -164 -141zM295 563c-4 9 -6 21 -6 32c0 37 14 70 100 136h42c-82 -67 -95 -97 -95 -126c0 -9 2 -20 6 -28z" />
    <glyph glyph-name="hcircumflex" unicode="&#x125;" horiz-adv-x="565" 
d="M43 0l164 770l45 10l-84 -393c65 69 141 102 203 102c80 0 128 -39 128 -121c0 -16 -2 -35 -5 -50l-68 -318h-43l67 315c4 18 6 35 6 49c0 55 -33 84 -93 84c-62 0 -127 -35 -170 -82c-27 -29 -41 -55 -50 -96l-57 -270h-43zM478 830l-74 73l-103 -73h-46l128 119h51
l79 -119h-35z" />
    <glyph glyph-name="hbar" unicode="&#x127;" horiz-adv-x="565" 
d="M43 0l130 610h-60l9 40h59l26 120l45 10l-28 -130h172l-9 -40h-172l-47 -223c65 69 141 102 203 102c80 0 128 -39 128 -121c0 -16 -2 -35 -5 -50l-68 -318h-43l67 315c4 18 6 35 6 49c0 55 -33 84 -93 84c-62 0 -127 -35 -170 -82c-27 -29 -41 -55 -50 -96l-57 -270h-43
z" />
    <glyph glyph-name="dotlessi" unicode="&#x131;" horiz-adv-x="233" 
d="M144 475l45 9l-103 -484h-43z" />
    <glyph glyph-name="igrave" unicode="&#xec;" horiz-adv-x="233" 
d="M144 475l45 9l-103 -484h-43zM204 568l-94 149h61l59 -149h-26z" />
    <glyph glyph-name="iacute" unicode="&#xed;" horiz-adv-x="233" 
d="M144 475l45 9l-103 -484h-43zM322 717l-148 -149h-35l115 149h68z" />
    <glyph glyph-name="icircumflex" unicode="&#xee;" horiz-adv-x="233" 
d="M144 475l45 9l-103 -484h-43zM274 568l-66 91l-102 -91h-40l136 149h30l72 -149h-30z" />
    <glyph glyph-name="itilde" unicode="&#x129;" horiz-adv-x="233" 
d="M158 633c-28 0 -54 -24 -62 -56l-28 6c19 63 58 99 97 99c33 0 66 -34 90 -34c29 0 51 23 62 56l27 -6c-19 -63 -58 -99 -97 -99c-33 0 -65 34 -89 34zM144 475l45 9l-103 -484h-43z" />
    <glyph glyph-name="idieresis" unicode="&#xef;" horiz-adv-x="233" 
d="M134 676c19 0 32 -13 32 -31c0 -25 -19 -42 -43 -42c-20 0 -32 12 -32 30c0 25 18 43 43 43zM277 676c19 0 32 -13 32 -31c0 -25 -19 -42 -43 -42c-20 0 -32 12 -32 30c0 25 18 43 43 43zM144 475l45 9l-103 -484h-43z" />
    <glyph glyph-name="imacron" unicode="&#x12b;" horiz-adv-x="233" 
d="M144 475l45 9l-103 -484h-43zM331 660l-9 -42h-254l9 42h254z" />
    <glyph glyph-name="ibreve" unicode="&#x12d;" horiz-adv-x="233" 
d="M144 475l45 9l-103 -484h-43zM193 621c56 0 86 33 97 86h38c-13 -64 -56 -129 -141 -129c-65 0 -91 38 -91 87c0 15 1 26 4 42h32c-2 -10 -3 -19 -3 -28c0 -36 19 -58 64 -58z" />
    <glyph glyph-name="iogonek" unicode="&#x12f;" horiz-adv-x="233" 
d="M144 475l45 9l-103 -484c-95 -86 -118 -119 -118 -166c0 -17 13 -29 35 -29s43 8 61 27h2l-16 -53c-16 -11 -34 -16 -54 -16c-45 0 -73 22 -73 67c0 59 38 99 120 170zM211 701c20 0 32 -13 32 -31c0 -25 -20 -42 -43 -42c-21 0 -32 12 -32 30c0 25 18 43 43 43z" />
    <glyph glyph-name="ij" unicode="&#x133;" horiz-adv-x="416" 
d="M144 475l45 9l-103 -484h-43zM211 701c20 0 32 -13 32 -31c0 -25 -20 -42 -43 -42c-21 0 -32 12 -32 30c0 25 18 43 43 43zM327 475l44 9l-108 -510c-24 -111 -52 -150 -88 -182l-86 -29l-3 13c80 46 112 92 136 206zM394 701c19 0 32 -13 32 -31c0 -25 -20 -42 -43 -42
c-21 0 -32 12 -32 30c0 25 18 43 43 43z" />
    <glyph glyph-name="dotlessj" unicode="&#x237;" horiz-adv-x="233" 
d="M144 475l44 9l-108 -510c-24 -111 -52 -150 -88 -182l-86 -29l-3 13c80 46 112 92 136 206z" />
    <glyph glyph-name="jcircumflex" unicode="&#x135;" horiz-adv-x="233" 
d="M144 475l44 9l-108 -510c-24 -111 -52 -150 -88 -182l-86 -29l-3 13c80 46 112 92 136 206zM274 568l-66 91l-102 -91h-40l136 149h30l72 -149h-30z" />
    <glyph glyph-name="kcommaaccent" unicode="&#x137;" horiz-adv-x="500" 
d="M252 780l-110 -515l286 214h70l-301 -222l277 -257h-63l-270 259l-55 -259h-43l164 770zM233 -69c3 -9 5 -21 5 -32c0 -37 -15 -70 -101 -136h-42c82 67 95 97 95 126c0 9 -2 20 -5 28z" />
    <glyph glyph-name="kgreenlandic" unicode="&#x138;" horiz-adv-x="500" 
d="M188 479l-46 -214l286 214h70l-301 -222l277 -257h-63l-270 259l-55 -259h-43l102 479h43z" />
    <glyph glyph-name="lacute" unicode="&#x13a;" horiz-adv-x="233" 
d="M252 780l-166 -780h-43l164 770zM370 949l-141 -119h-40l102 119h79z" />
    <glyph glyph-name="lcaron" unicode="&#x13e;" horiz-adv-x="233" 
d="M252 780l-166 -780h-43l164 770zM366 781c3 -10 4 -23 4 -35c0 -46 -22 -85 -90 -153h-33c49 60 75 92 75 142c0 10 -2 23 -4 32z" />
    <glyph glyph-name="lcommaaccent" unicode="&#x13c;" horiz-adv-x="233" 
d="M252 780l-166 -780h-43l164 770zM73 -69c3 -9 5 -21 5 -32c0 -37 -15 -70 -101 -136h-42c82 67 95 97 95 126c0 9 -2 20 -5 28z" />
    <glyph glyph-name="ldot" unicode="&#x140;" horiz-adv-x="316" 
d="M252 780l-166 -780h-43l164 770zM308 412c19 0 32 -13 32 -31c0 -25 -19 -42 -43 -42c-20 0 -32 12 -32 30c0 25 18 43 43 43z" />
    <glyph glyph-name="lslash" unicode="&#x142;" horiz-adv-x="253" 
d="M262 780l-72 -338l83 48l-10 -49l-84 -48l-83 -393h-43l78 365l-84 -48l11 49l83 48l76 356z" />
    <glyph glyph-name="nacute" unicode="&#x144;" horiz-adv-x="565" 
d="M43 0l102 479h43l-20 -92c65 69 141 102 203 102c80 0 128 -40 128 -123c0 -15 -2 -34 -5 -48l-68 -318h-43l67 315c4 18 6 35 6 49c0 55 -33 84 -93 84c-62 0 -127 -35 -170 -82c-27 -29 -41 -55 -50 -96l-57 -270h-43zM492 717l-148 -149h-35l115 149h68z" />
    <glyph glyph-name="ncaron" unicode="&#x148;" horiz-adv-x="565" 
d="M43 0l102 479h43l-20 -92c65 69 141 102 203 102c80 0 128 -40 128 -123c0 -15 -2 -34 -5 -48l-68 -318h-43l67 315c4 18 6 35 6 49c0 55 -33 84 -93 84c-62 0 -127 -35 -170 -82c-27 -29 -41 -55 -50 -96l-57 -270h-43zM268 717h30l65 -91l103 91h40l-136 -149h-30z" />
    <glyph glyph-name="ntilde" unicode="&#xf1;" horiz-adv-x="565" 
d="M43 0l102 479h43l-20 -92c65 69 141 102 203 102c80 0 128 -40 128 -123c0 -15 -2 -34 -5 -48l-68 -318h-43l67 315c4 18 6 35 6 49c0 55 -33 84 -93 84c-62 0 -127 -35 -170 -82c-27 -29 -41 -55 -50 -96l-57 -270h-43zM305 643c-28 0 -51 -24 -59 -56l-24 6
c16 63 51 99 88 99c44 0 82 -54 116 -54c29 0 50 23 59 56l24 -6c-16 -63 -51 -99 -88 -99c-44 0 -82 54 -116 54z" />
    <glyph glyph-name="ncommaaccent" unicode="&#x146;" horiz-adv-x="565" 
d="M43 0l102 479h43l-20 -92c65 69 141 102 203 102c80 0 128 -40 128 -123c0 -15 -2 -34 -5 -48l-68 -318h-43l67 315c4 18 6 35 6 49c0 55 -33 84 -93 84c-62 0 -127 -35 -170 -82c-27 -29 -41 -55 -50 -96l-57 -270h-43zM243 -69c3 -9 5 -21 5 -32
c0 -37 -15 -70 -101 -136h-42c82 67 95 97 95 126c0 9 -2 20 -5 28z" />
    <glyph glyph-name="napostrophe" unicode="&#x149;" horiz-adv-x="565" 
d="M43 0l102 479h43l-20 -92c65 69 141 102 203 102c80 0 128 -40 128 -123c0 -15 -2 -34 -5 -48l-68 -318h-43l67 315c4 18 6 35 6 49c0 55 -33 84 -93 84c-62 0 -127 -35 -170 -82c-27 -29 -41 -55 -50 -96l-57 -270h-43zM218 781c3 -10 4 -23 4 -35
c0 -46 -22 -85 -90 -153h-33c49 60 75 92 75 142c0 10 -2 23 -4 32z" />
    <glyph glyph-name="eng" unicode="&#x14b;" horiz-adv-x="565" 
d="M43 0l102 479h43l-20 -92c65 69 141 102 203 102c80 0 128 -40 128 -123c0 -15 -2 -34 -5 -48l-84 -395c-21 -100 -73 -160 -149 -160c-28 0 -52 7 -69 18l4 49c14 -16 33 -25 66 -25c49 0 89 41 105 119l83 391c4 18 6 35 6 49c0 55 -33 84 -93 84
c-62 0 -127 -35 -170 -82c-27 -29 -41 -55 -50 -96l-57 -270h-43z" />
    <glyph glyph-name="ograve" unicode="&#xf2;" 
d="M240 24c143 0 225 143 225 274c0 100 -54 158 -146 158c-133 0 -225 -119 -225 -259c0 -101 48 -173 146 -173zM239 -17c-116 0 -189 81 -189 214c0 176 122 300 270 300c108 0 189 -66 189 -199c0 -152 -103 -315 -270 -315zM370 568l-94 149h61l59 -149h-26z" />
    <glyph glyph-name="oacute" unicode="&#xf3;" 
d="M240 24c143 0 225 143 225 274c0 100 -54 158 -146 158c-133 0 -225 -119 -225 -259c0 -101 48 -173 146 -173zM239 -17c-116 0 -189 81 -189 214c0 176 122 300 270 300c108 0 189 -66 189 -199c0 -152 -103 -315 -270 -315zM488 717l-148 -149h-35l115 149h68z" />
    <glyph glyph-name="ocircumflex" unicode="&#xf4;" 
d="M240 24c143 0 225 143 225 274c0 100 -54 158 -146 158c-133 0 -225 -119 -225 -259c0 -101 48 -173 146 -173zM239 -17c-116 0 -189 81 -189 214c0 176 122 300 270 300c108 0 189 -66 189 -199c0 -152 -103 -315 -270 -315zM440 568l-66 91l-102 -91h-40l136 149h30
l72 -149h-30z" />
    <glyph glyph-name="otilde" unicode="&#xf5;" 
d="M240 24c143 0 225 143 225 274c0 100 -54 158 -146 158c-133 0 -225 -119 -225 -259c0 -101 48 -173 146 -173zM239 -17c-116 0 -189 81 -189 214c0 176 122 300 270 300c108 0 189 -66 189 -199c0 -152 -103 -315 -270 -315zM301 643c-28 0 -51 -24 -59 -56l-24 6
c16 63 51 99 88 99c44 0 82 -54 116 -54c29 0 50 23 59 56l24 -6c-16 -63 -51 -99 -88 -99c-44 0 -82 54 -116 54z" />
    <glyph glyph-name="odieresis" unicode="&#xf6;" 
d="M240 24c143 0 225 143 225 274c0 100 -54 158 -146 158c-133 0 -225 -119 -225 -259c0 -101 48 -173 146 -173zM239 -17c-116 0 -189 81 -189 214c0 176 122 300 270 300c108 0 189 -66 189 -199c0 -152 -103 -315 -270 -315zM290 676c19 0 32 -13 32 -31
c0 -25 -19 -42 -43 -42c-20 0 -32 12 -32 30c0 25 18 43 43 43zM453 676c19 0 32 -13 32 -31c0 -25 -19 -42 -43 -42c-20 0 -32 12 -32 30c0 25 18 43 43 43z" />
    <glyph glyph-name="omacron" unicode="&#x14d;" 
d="M240 24c143 0 225 143 225 274c0 100 -54 158 -146 158c-133 0 -225 -119 -225 -259c0 -101 48 -173 146 -173zM239 -17c-116 0 -189 81 -189 214c0 176 122 300 270 300c108 0 189 -66 189 -199c0 -152 -103 -315 -270 -315zM497 660l-9 -42h-254l9 42h254z" />
    <glyph glyph-name="obreve" unicode="&#x14f;" 
d="M240 24c143 0 225 143 225 274c0 100 -54 158 -146 158c-133 0 -225 -119 -225 -259c0 -101 48 -173 146 -173zM239 -17c-116 0 -189 81 -189 214c0 176 122 300 270 300c108 0 189 -66 189 -199c0 -152 -103 -315 -270 -315zM359 621c56 0 86 33 97 86h38
c-13 -64 -56 -129 -141 -129c-65 0 -91 38 -91 87c0 15 1 26 4 42h32c-2 -10 -3 -19 -3 -28c0 -36 19 -58 64 -58z" />
    <glyph glyph-name="ohungarumlaut" unicode="&#x151;" 
d="M240 24c143 0 225 143 225 274c0 100 -54 158 -146 158c-133 0 -225 -119 -225 -259c0 -101 48 -173 146 -173zM239 -17c-116 0 -189 81 -189 214c0 176 122 300 270 300c108 0 189 -66 189 -199c0 -152 -103 -315 -270 -315zM370 717h67l-139 -149h-33zM480 717h67
l-139 -149h-34z" />
    <glyph glyph-name="oslash" unicode="&#xf8;" 
d="M239 -17c-44 0 -83 12 -113 33l-34 -43l-38 11l45 58c-32 37 -49 89 -49 155c0 176 122 300 270 300c43 0 82 -11 113 -32l33 42l39 -11l-44 -56c30 -33 48 -80 48 -142c0 -152 -103 -315 -270 -315zM94 197c0 -49 11 -90 33 -120l279 354c-23 16 -52 25 -87 25
c-133 0 -225 -119 -225 -259zM240 24c143 0 225 143 225 274c0 45 -11 81 -32 107l-280 -355c22 -17 51 -26 87 -26z" />
    <glyph glyph-name="oe" unicode="&#x153;" horiz-adv-x="871" 
d="M308 496c93 0 156 -57 165 -156c54 87 144 156 245 156c86 0 127 -43 127 -105c0 -93 -85 -150 -195 -176c-53 -13 -132 -26 -192 -33v-16c0 -86 46 -143 135 -143c63 0 131 28 178 75h3l-13 -57c-43 -33 -108 -58 -166 -58c-103 0 -156 57 -171 137
c-42 -77 -112 -137 -205 -137c-104 0 -170 70 -170 191c0 141 91 322 259 322zM218 25c126 0 218 138 218 280c0 87 -46 150 -127 150c-138 0 -216 -157 -216 -282c0 -89 42 -148 125 -148zM712 457c-118 0 -224 -124 -249 -242c49 5 134 23 200 40c80 21 137 72 137 135
c0 42 -32 67 -88 67z" />
    <glyph glyph-name="racute" unicode="&#x155;" horiz-adv-x="353" 
d="M389 484l-10 -45c-81 0 -145 -25 -191 -66c-20 -18 -31 -40 -44 -100l-58 -273h-43l102 479h43l-17 -79c54 49 110 72 172 81c14 2 30 3 46 3zM422 717l-148 -149h-35l115 149h68z" />
    <glyph glyph-name="rcaron" unicode="&#x159;" horiz-adv-x="353" 
d="M389 484l-10 -45c-81 0 -145 -25 -191 -66c-20 -18 -31 -40 -44 -100l-58 -273h-43l102 479h43l-17 -79c54 49 110 72 172 81c14 2 30 3 46 3zM198 717h30l65 -91l103 91h40l-136 -149h-30z" />
    <glyph glyph-name="rcommaaccent" unicode="&#x157;" horiz-adv-x="353" 
d="M389 484l-10 -45c-81 0 -145 -25 -191 -66c-20 -18 -31 -40 -44 -100l-58 -273h-43l102 479h43l-17 -79c54 49 110 72 172 81c14 2 30 3 46 3zM74 -69c3 -9 5 -21 5 -32c0 -37 -15 -70 -101 -136h-42c82 67 95 97 95 126c0 9 -2 20 -5 28z" />
    <glyph glyph-name="sacute" unicode="&#x15b;" horiz-adv-x="431" 
d="M7 37l14 48c28 -34 74 -62 140 -62c97 0 147 46 147 109c0 23 -10 47 -33 62c-48 31 -94 36 -132 60c-43 27 -58 56 -58 100c0 79 70 142 167 142c62 0 111 -22 148 -55l-24 -41c-29 40 -81 56 -124 56c-81 0 -123 -50 -123 -102c0 -30 14 -48 42 -64
c35 -20 86 -33 119 -53c44 -27 61 -60 61 -104c0 -89 -73 -150 -190 -150c-73 0 -122 23 -154 54zM409 717l-148 -149h-35l115 149h68z" />
    <glyph glyph-name="scaron" unicode="&#x161;" horiz-adv-x="431" 
d="M7 37l14 48c28 -34 74 -62 140 -62c97 0 147 46 147 109c0 23 -10 47 -33 62c-48 31 -94 36 -132 60c-43 27 -58 56 -58 100c0 79 70 142 167 142c62 0 111 -22 148 -55l-24 -41c-29 40 -81 56 -124 56c-81 0 -123 -50 -123 -102c0 -30 14 -48 42 -64
c35 -20 86 -33 119 -53c44 -27 61 -60 61 -104c0 -89 -73 -150 -190 -150c-73 0 -122 23 -154 54zM185 717h30l65 -91l103 91h40l-136 -149h-30z" />
    <glyph glyph-name="scircumflex" unicode="&#x15d;" horiz-adv-x="431" 
d="M7 37l14 48c28 -34 74 -62 140 -62c97 0 147 46 147 109c0 23 -10 47 -33 62c-48 31 -94 36 -132 60c-43 27 -58 56 -58 100c0 79 70 142 167 142c62 0 111 -22 148 -55l-24 -41c-29 40 -81 56 -124 56c-81 0 -123 -50 -123 -102c0 -30 14 -48 42 -64
c35 -20 86 -33 119 -53c44 -27 61 -60 61 -104c0 -89 -73 -150 -190 -150c-73 0 -122 23 -154 54zM361 568l-66 91l-102 -91h-40l136 149h30l72 -149h-30z" />
    <glyph glyph-name="scedilla" unicode="&#x15f;" horiz-adv-x="431" 
d="M7 37l14 48c28 -34 74 -62 140 -62c97 0 147 46 147 109c0 23 -10 47 -33 62c-48 31 -94 36 -132 60c-43 27 -58 56 -58 100c0 79 70 142 167 142c62 0 111 -22 148 -55l-24 -41c-29 40 -81 56 -124 56c-81 0 -123 -50 -123 -102c0 -30 14 -48 42 -64
c35 -20 86 -33 119 -53c44 -27 61 -60 61 -104c0 -89 -73 -150 -190 -150h-1l-31 -44c3 1 8 2 13 2c47 0 74 -29 74 -70c0 -50 -53 -89 -116 -89c-34 0 -62 10 -78 27l12 41c11 -19 35 -29 65 -29c50 0 72 22 72 49c0 22 -17 39 -50 39c-21 0 -39 -4 -54 -10l-1 2l58 84
c-53 7 -91 26 -117 52z" />
    <glyph glyph-name="uni0219" unicode="&#x219;" horiz-adv-x="431" 
d="M7 37l14 48c28 -34 74 -62 140 -62c97 0 147 46 147 109c0 23 -10 47 -33 62c-48 31 -94 36 -132 60c-43 27 -58 56 -58 100c0 79 70 142 167 142c62 0 111 -22 148 -55l-24 -41c-29 40 -81 56 -124 56c-81 0 -123 -50 -123 -102c0 -30 14 -48 42 -64
c35 -20 86 -33 119 -53c44 -27 61 -60 61 -104c0 -89 -73 -150 -190 -150c-73 0 -122 23 -154 54zM164 -69c3 -9 5 -21 5 -32c0 -37 -15 -70 -101 -136h-42c82 67 95 97 95 126c0 9 -2 20 -5 28z" />
    <glyph glyph-name="tcaron" unicode="&#x165;" horiz-adv-x="329" 
d="M70 479h96l34 160l45 11l-37 -171h156l-8 -39h-156l-59 -277c-6 -28 -9 -50 -9 -68c0 -39 18 -64 61 -87l-1 -6l-51 -7c-35 18 -51 48 -51 100c0 18 3 40 9 68l59 277h-96zM423 781c3 -10 4 -23 4 -35c0 -46 -22 -85 -90 -153h-33c49 60 75 92 75 142c0 10 -2 23 -4 32z
" />
    <glyph glyph-name="uni021B" unicode="&#x21b;" horiz-adv-x="329" 
d="M70 479h96l34 160l45 11l-37 -171h156l-8 -39h-156l-59 -277c-6 -28 -9 -50 -9 -68c0 -39 18 -64 61 -87l-1 -6l-51 -7c-35 18 -51 48 -51 100c0 18 3 40 9 68l59 277h-96zM152 -69c3 -9 5 -21 5 -32c0 -37 -15 -70 -101 -136h-42c82 67 95 97 95 126c0 9 -2 20 -5 28z
" />
    <glyph glyph-name="tbar" unicode="&#x167;" horiz-adv-x="329" 
d="M70 479h96l34 160l45 11l-37 -171h156l-8 -39h-156l-34 -161h145l-8 -39h-146l-16 -77c-6 -28 -9 -50 -9 -68c0 -39 18 -64 61 -87l-1 -6l-51 -7c-35 18 -51 48 -51 100c0 18 3 40 9 68l16 77h-86l8 39h87l34 161h-96z" />
    <glyph glyph-name="ugrave" unicode="&#xf9;" horiz-adv-x="564" 
d="M137 479h43l-66 -311c-3 -15 -5 -32 -5 -47c0 -63 34 -89 93 -89c69 0 135 40 184 99c14 17 24 37 29 61l61 287h43l-101 -475l-46 -13l21 99c-52 -59 -127 -99 -196 -99c-88 0 -132 44 -132 130c0 15 2 31 5 45zM354 568l-94 149h61l59 -149h-26z" />
    <glyph glyph-name="uacute" unicode="&#xfa;" horiz-adv-x="564" 
d="M137 479h43l-66 -311c-3 -15 -5 -32 -5 -47c0 -63 34 -89 93 -89c69 0 135 40 184 99c14 17 24 37 29 61l61 287h43l-101 -475l-46 -13l21 99c-52 -59 -127 -99 -196 -99c-88 0 -132 44 -132 130c0 15 2 31 5 45zM472 717l-148 -149h-35l115 149h68z" />
    <glyph glyph-name="ucircumflex" unicode="&#xfb;" horiz-adv-x="564" 
d="M137 479h43l-66 -311c-3 -15 -5 -32 -5 -47c0 -63 34 -89 93 -89c69 0 135 40 184 99c14 17 24 37 29 61l61 287h43l-101 -475l-46 -13l21 99c-52 -59 -127 -99 -196 -99c-88 0 -132 44 -132 130c0 15 2 31 5 45zM424 568l-66 91l-102 -91h-40l136 149h30l72 -149h-30z
" />
    <glyph glyph-name="utilde" unicode="&#x169;" horiz-adv-x="564" 
d="M137 479h43l-66 -311c-3 -15 -5 -32 -5 -47c0 -63 34 -89 93 -89c69 0 135 40 184 99c14 17 24 37 29 61l61 287h43l-101 -475l-46 -13l21 99c-52 -59 -127 -99 -196 -99c-88 0 -132 44 -132 130c0 15 2 31 5 45zM285 643c-28 0 -51 -24 -59 -56l-24 6c16 63 51 99 88 99
c44 0 82 -54 116 -54c29 0 50 23 59 56l24 -6c-16 -63 -51 -99 -88 -99c-44 0 -82 54 -116 54z" />
    <glyph glyph-name="udieresis" unicode="&#xfc;" horiz-adv-x="564" 
d="M137 479h43l-66 -311c-3 -15 -5 -32 -5 -47c0 -63 34 -89 93 -89c69 0 135 40 184 99c14 17 24 37 29 61l61 287h43l-101 -475l-46 -13l21 99c-52 -59 -127 -99 -196 -99c-88 0 -132 44 -132 130c0 15 2 31 5 45zM274 676c19 0 32 -13 32 -31c0 -25 -19 -42 -43 -42
c-20 0 -32 12 -32 30c0 25 18 43 43 43zM437 676c19 0 32 -13 32 -31c0 -25 -19 -42 -43 -42c-20 0 -32 12 -32 30c0 25 18 43 43 43z" />
    <glyph glyph-name="umacron" unicode="&#x16b;" horiz-adv-x="564" 
d="M137 479h43l-66 -311c-3 -15 -5 -32 -5 -47c0 -63 34 -89 93 -89c69 0 135 40 184 99c14 17 24 37 29 61l61 287h43l-101 -475l-46 -13l21 99c-52 -59 -127 -99 -196 -99c-88 0 -132 44 -132 130c0 15 2 31 5 45zM481 660l-9 -42h-254l9 42h254z" />
    <glyph glyph-name="ubreve" unicode="&#x16d;" horiz-adv-x="564" 
d="M137 479h43l-66 -311c-3 -15 -5 -32 -5 -47c0 -63 34 -89 93 -89c69 0 135 40 184 99c14 17 24 37 29 61l61 287h43l-101 -475l-46 -13l21 99c-52 -59 -127 -99 -196 -99c-88 0 -132 44 -132 130c0 15 2 31 5 45zM343 621c56 0 86 33 97 86h38
c-13 -64 -56 -129 -141 -129c-65 0 -91 38 -91 87c0 15 1 26 4 42h32c-2 -10 -3 -19 -3 -28c0 -36 19 -58 64 -58z" />
    <glyph glyph-name="uring" unicode="&#x16f;" horiz-adv-x="564" 
d="M137 479h43l-66 -311c-3 -15 -5 -32 -5 -47c0 -63 34 -89 93 -89c69 0 135 40 184 99c14 17 24 37 29 61l61 287h43l-101 -475l-46 -13l21 99c-52 -59 -127 -99 -196 -99c-88 0 -132 44 -132 130c0 15 2 31 5 45zM256 641c0 55 54 103 108 103c48 0 82 -37 82 -83
c0 -55 -53 -103 -107 -103c-47 0 -83 37 -83 83zM292 641c0 -27 19 -48 47 -48c36 0 72 31 72 68c0 27 -19 48 -47 48c-36 0 -72 -31 -72 -68z" />
    <glyph glyph-name="uhungarumlaut" unicode="&#x171;" horiz-adv-x="564" 
d="M137 479h43l-66 -311c-3 -15 -5 -32 -5 -47c0 -63 34 -89 93 -89c69 0 135 40 184 99c14 17 24 37 29 61l61 287h43l-101 -475l-46 -13l21 99c-52 -59 -127 -99 -196 -99c-88 0 -132 44 -132 130c0 15 2 31 5 45zM354 717h67l-139 -149h-33zM464 717h67l-139 -149h-34z
" />
    <glyph glyph-name="uogonek" unicode="&#x173;" horiz-adv-x="564" 
d="M137 479h43l-66 -311c-3 -15 -5 -32 -5 -47c0 -63 34 -89 93 -89c69 0 135 40 184 99c14 17 24 37 29 61l61 287h43l-102 -479c-109 -86 -136 -119 -136 -166c0 -17 13 -29 35 -29s43 8 61 27h2l-16 -53c-16 -11 -34 -16 -54 -16c-45 0 -73 22 -73 67c0 59 43 99 138 170
l19 90c-52 -59 -127 -99 -196 -99c-88 0 -132 44 -132 130c0 15 2 31 5 45z" />
    <glyph glyph-name="wgrave" unicode="&#x1e81;" horiz-adv-x="730" 
d="M393 479h40l25 -419l255 419h52l-303 -479h-35l-29 404l-227 -404h-36l-70 479h46l53 -419zM444 568l-94 149h61l59 -149h-26z" />
    <glyph glyph-name="wacute" unicode="&#x1e83;" horiz-adv-x="730" 
d="M393 479h40l25 -419l255 419h52l-303 -479h-35l-29 404l-227 -404h-36l-70 479h46l53 -419zM562 717l-148 -149h-35l115 149h68z" />
    <glyph glyph-name="wcircumflex" unicode="&#x175;" horiz-adv-x="730" 
d="M393 479h40l25 -419l255 419h52l-303 -479h-35l-29 404l-227 -404h-36l-70 479h46l53 -419zM514 568l-66 91l-102 -91h-40l136 149h30l72 -149h-30z" />
    <glyph glyph-name="wdieresis" unicode="&#x1e85;" horiz-adv-x="730" 
d="M393 479h40l25 -419l255 419h52l-303 -479h-35l-29 404l-227 -404h-36l-70 479h46l53 -419zM364 676c19 0 32 -13 32 -31c0 -25 -19 -42 -43 -42c-20 0 -32 12 -32 30c0 25 18 43 43 43zM527 676c19 0 32 -13 32 -31c0 -25 -19 -42 -43 -42c-20 0 -32 12 -32 30
c0 25 18 43 43 43z" />
    <glyph glyph-name="ygrave" unicode="&#x1ef3;" horiz-adv-x="465" 
d="M-40 -234c66 64 142 160 200 249l-95 464h46l80 -416l257 416h53l-314 -492c-71 -111 -120 -174 -167 -224h-60v3zM304 568l-94 149h61l59 -149h-26z" />
    <glyph glyph-name="yacute" unicode="&#xfd;" horiz-adv-x="465" 
d="M-40 -234c66 64 142 160 200 249l-95 464h46l80 -416l257 416h53l-314 -492c-71 -111 -120 -174 -167 -224h-60v3zM422 717l-148 -149h-35l115 149h68z" />
    <glyph glyph-name="ycircumflex" unicode="&#x177;" horiz-adv-x="465" 
d="M-40 -234c66 64 142 160 200 249l-95 464h46l80 -416l257 416h53l-314 -492c-71 -111 -120 -174 -167 -224h-60v3zM374 568l-66 91l-102 -91h-40l136 149h30l72 -149h-30z" />
    <glyph glyph-name="ydieresis" unicode="&#xff;" horiz-adv-x="465" 
d="M-40 -234c66 64 142 160 200 249l-95 464h46l80 -416l257 416h53l-314 -492c-71 -111 -120 -174 -167 -224h-60v3zM224 676c19 0 32 -13 32 -31c0 -25 -19 -42 -43 -42c-20 0 -32 12 -32 30c0 25 18 43 43 43zM387 676c19 0 32 -13 32 -31c0 -25 -19 -42 -43 -42
c-20 0 -32 12 -32 30c0 25 18 43 43 43z" />
    <glyph glyph-name="zacute" unicode="&#x17a;" horiz-adv-x="515" 
d="M415 0h-437l452 437h-323l13 42h410l-454 -437h355zM462 717l-148 -149h-35l115 149h68z" />
    <glyph glyph-name="zcaron" unicode="&#x17e;" horiz-adv-x="515" 
d="M415 0h-437l452 437h-323l13 42h410l-454 -437h355zM238 717h30l65 -91l103 91h40l-136 -149h-30z" />
    <glyph glyph-name="zdotaccent" unicode="&#x17c;" horiz-adv-x="515" 
d="M415 0h-437l452 437h-323l13 42h410l-454 -437h355zM346 676c19 0 32 -13 32 -31c0 -25 -19 -42 -43 -42c-20 0 -32 12 -32 30c0 25 18 43 43 43z" />
    <glyph glyph-name="germandbls" unicode="&#xdf;" horiz-adv-x="578" 
d="M558 647c0 -93 -75 -185 -219 -236c111 -39 175 -112 175 -211c0 -120 -89 -217 -226 -217c-63 0 -105 17 -129 44l6 56h3c19 -35 61 -60 121 -60c122 0 182 85 182 177c0 87 -72 159 -203 190l8 40c185 62 239 138 239 217c0 60 -39 93 -110 93
c-98 0 -179 -81 -207 -215l-112 -525h-43l114 536c30 141 129 244 248 244c100 0 153 -55 153 -133z" />
    <glyph glyph-name="thorn" unicode="&#xfe;" horiz-adv-x="574" 
d="M207 770l45 10l-67 -318c45 21 90 30 136 30c120 0 203 -78 203 -203c0 -175 -123 -306 -302 -306c-48 0 -94 9 -132 32l-51 -238l-46 -14zM321 450c-58 0 -105 -11 -147 -36l-75 -356c30 -25 69 -38 123 -38c149 0 257 113 257 268c0 98 -57 162 -158 162z" />
    <glyph glyph-name="florin" unicode="&#x192;" 
d="M-16 -33c13 -17 34 -24 59 -24c56 0 94 51 143 182l117 315h-110l8 39h116l30 79c56 149 111 214 192 214c30 0 58 -9 73 -25l-15 -46c-14 19 -34 28 -58 28c-66 0 -105 -51 -153 -182l-25 -68h135l-8 -39h-142l-121 -326c-57 -154 -111 -214 -182 -214
c-27 0 -51 8 -63 19z" />
    <glyph glyph-name="uni02C9" unicode="&#x2c9;" horiz-adv-x="334" 
d="M300 660l-9 -42h-254l9 42h254z" />
    <glyph glyph-name="uni0394" unicode="&#x394;" horiz-adv-x="725" 
d="M658 0h-695l497 751l29 8zM464 684l-422 -642h560z" />
    <glyph glyph-name="uni03A9" unicode="&#x3a9;" horiz-adv-x="790" 
d="M-21 0l3 43h255c-41 53 -83 135 -105 193c-20 52 -32 109 -32 159c0 216 156 392 401 392c189 0 281 -112 281 -262c0 -110 -33 -186 -119 -293c-46 -58 -125 -138 -188 -189h247l-15 -43h-306l7 35c66 52 164 148 226 226c77 98 101 164 101 264c0 126 -73 218 -234 218
c-232 0 -355 -161 -355 -353c0 -39 5 -87 18 -125c27 -81 84 -178 128 -230l-7 -35h-306z" />
    <glyph glyph-name="uni03BC" unicode="&#x3bc;" horiz-adv-x="552" 
d="M192 -9c-52 0 -95 19 -104 62l-59 -276l-46 -14l152 716h43l-66 -311c-4 -18 -6 -35 -6 -49c0 -66 40 -87 92 -87c69 0 128 32 186 99c15 18 24 37 30 66l60 282h43l-101 -475l-46 -13l21 97c-50 -60 -129 -97 -199 -97z" />
    <glyph glyph-name="pi" unicode="&#x3c0;" horiz-adv-x="604" 
d="M85 479h522l-8 -39h-126l-66 -309c-4 -20 -6 -37 -6 -50c0 -34 20 -48 53 -48c21 0 45 7 70 25l-15 -52c-21 -9 -43 -13 -63 -13c-57 0 -88 24 -88 87c0 13 2 31 6 51l66 309h-204l-56 -262c-15 -71 -41 -130 -88 -178h-53c54 52 82 101 98 178l56 262h-106z" />
    <glyph glyph-name="endash" unicode="&#x2013;" horiz-adv-x="600" 
d="M585 289l-9 -41h-550l9 41h550z" />
    <glyph glyph-name="emdash" unicode="&#x2014;" horiz-adv-x="1000" 
d="M985 289l-9 -41h-950l9 41h950z" />
    <glyph glyph-name="quoteleft" unicode="&#x2018;" horiz-adv-x="168" 
d="M137 537c-13 14 -21 41 -21 70c0 69 50 121 110 153l10 -18c-52 -33 -76 -66 -76 -115c0 -24 7 -45 23 -59z" />
    <glyph glyph-name="quoteright" unicode="&#x2019;" horiz-adv-x="168" 
d="M203 760c13 -14 21 -41 21 -70c0 -69 -50 -121 -110 -153l-10 18c52 33 76 66 76 115c0 24 -7 45 -23 59z" />
    <glyph glyph-name="quotesinglbase" unicode="&#x201a;" horiz-adv-x="218" 
d="M84 75c13 -14 21 -41 21 -70c0 -69 -50 -121 -110 -153l-10 18c52 33 76 66 76 115c0 24 -7 45 -23 59z" />
    <glyph glyph-name="quotedblleft" unicode="&#x201c;" horiz-adv-x="296" 
d="M280 537c-13 14 -21 41 -21 70c0 69 50 121 110 153l10 -18c-52 -33 -76 -66 -76 -115c0 -24 7 -45 23 -59zM137 537c-13 14 -21 41 -21 70c0 69 50 121 110 153l10 -18c-52 -33 -76 -66 -76 -115c0 -24 7 -45 23 -59z" />
    <glyph glyph-name="quotedblright" unicode="&#x201d;" horiz-adv-x="296" 
d="M331 760c13 -14 21 -41 21 -70c0 -69 -50 -121 -110 -153l-10 18c52 33 76 66 76 115c0 24 -7 45 -23 59zM188 760c13 -14 21 -41 21 -70c0 -69 -50 -121 -110 -153l-10 18c52 33 76 66 76 115c0 24 -7 45 -23 59z" />
    <glyph glyph-name="quotedblbase" unicode="&#x201e;" horiz-adv-x="361" 
d="M227 75c13 -14 21 -41 21 -70c0 -69 -50 -121 -110 -153l-10 18c52 33 76 66 76 115c0 24 -7 45 -23 59zM84 75c13 -14 21 -41 21 -70c0 -69 -50 -121 -110 -153l-10 18c52 33 76 66 76 115c0 24 -7 45 -23 59z" />
    <glyph glyph-name="dagger" unicode="&#x2020;" horiz-adv-x="436" 
d="M293 735h60l-62 -216l171 11l-10 -47l-167 11l-22 -169c-40 -144 -75 -289 -106 -437h-28c31 148 58 293 78 437l50 169l-171 -11l10 47l167 -11z" />
    <glyph glyph-name="daggerdbl" unicode="&#x2021;" horiz-adv-x="466" 
d="M187 -112h-60l62 216l-171 -11l10 47l167 -11l25 183l52 182l-171 -11l10 47l167 -11l29 216h60l-61 -216l171 11l-10 -47l-167 11l-24 -182l-53 -183l171 11l-10 -47l-167 11z" />
    <glyph glyph-name="bullet" unicode="&#x2022;" horiz-adv-x="300" 
d="M83 400c0 55 45 100 100 100s100 -45 100 -100s-45 -100 -100 -100s-100 45 -100 100z" />
    <glyph glyph-name="ellipsis" unicode="&#x2026;" horiz-adv-x="779" 
d="M349 64c20 0 32 -13 32 -31c0 -25 -19 -42 -43 -42c-20 0 -32 12 -32 30c0 25 18 43 43 43zM622 64c20 0 32 -13 32 -31c0 -25 -19 -42 -43 -42c-20 0 -32 12 -32 30c0 25 18 43 43 43zM76 64c20 0 32 -13 32 -31c0 -25 -19 -42 -43 -42c-20 0 -32 12 -32 30
c0 25 18 43 43 43z" />
    <glyph glyph-name="perthousand" unicode="&#x2030;" horiz-adv-x="1142" 
d="M756 752l-615 -752h-53l614 752h54zM227 390c-69 0 -110 41 -110 110c0 108 101 222 202 222c70 0 110 -41 110 -110c0 -108 -101 -222 -202 -222zM318 680c-81 0 -156 -94 -156 -180c0 -43 23 -68 67 -68c81 0 155 94 155 180c0 43 -23 68 -66 68zM518 30
c-69 0 -109 41 -109 110c0 108 101 222 202 222c69 0 110 -41 110 -110c0 -108 -102 -222 -203 -222zM609 320c-81 0 -155 -94 -155 -180c0 -43 23 -68 66 -68c81 0 156 94 156 180c0 43 -23 68 -67 68zM878 30c-69 0 -109 41 -109 110c0 108 101 222 202 222
c69 0 110 -41 110 -110c0 -108 -102 -222 -203 -222zM969 320c-81 0 -155 -94 -155 -180c0 -43 23 -68 66 -68c81 0 156 94 156 180c0 43 -23 68 -67 68z" />
    <glyph glyph-name="guilsinglleft" unicode="&#x2039;" horiz-adv-x="275" 
d="M151 82l-100 165l160 165h40l-134 -165l64 -165h-30z" />
    <glyph glyph-name="guilsinglright" unicode="&#x203a;" horiz-adv-x="275" 
d="M125 412l100 -165l-160 -165h-40l134 165l-64 165h30z" />
    <glyph glyph-name="fraction" unicode="&#x2044;" horiz-adv-x="165" 
d="M479 780l-687 -810h-50l686 810h51z" />
    <glyph glyph-name="Euro" unicode="&#x20ac;" 
d="M60 430l19 42h29c56 176 195 293 380 293c69 0 111 -10 149 -29l-20 -45c-28 19 -72 30 -128 30c-165 0 -282 -102 -334 -249h363l-19 -42h-357c-8 -31 -13 -64 -16 -98h329l-19 -42h-311c0 -176 85 -257 231 -257c52 0 97 14 144 43l-19 -60c-33 -17 -83 -27 -124 -27
c-175 0 -276 97 -276 301h-51l19 42h33c2 34 7 67 14 98h-36z" />
    <glyph glyph-name="uni20B9" unicode="&#x20b9;" 
d="M118 530l29 42h301v10c0 79 -57 128 -168 128h-124l29 42h422l-29 -42h-152c44 -27 67 -71 67 -128v-10h76l-29 -42h-52c-19 -101 -101 -161 -316 -188l220 -342h-54l-235 372l1 3c249 21 321 77 339 155h-325z" />
    <glyph glyph-name="uni20BA" unicode="&#x20ba;" 
d="M99 412l11 51l85 40l53 249h43l-49 -230l199 95l-11 -51l-198 -95l-23 -108l198 95l-11 -51l-198 -94l-57 -272c13 -4 26 -6 42 -6c143 0 256 89 307 239l36 -24c-58 -155 -183 -258 -344 -258c-34 0 -67 5 -92 13l61 288l-86 -40l11 51l86 40l23 108z" />
    <glyph glyph-name="afii61289" unicode="&#x2113;" horiz-adv-x="389" 
d="M293 25c-28 -26 -79 -40 -113 -40c-70 0 -103 27 -103 97c0 17 2 36 7 58l20 97l-75 -60l-5 40l92 77l68 316c25 117 83 170 150 170c64 0 97 -44 97 -116c0 -98 -45 -201 -275 -386l-29 -138c-5 -24 -7 -40 -7 -56c0 -43 22 -57 65 -57c42 0 82 18 122 55h3zM225 600
l-56 -262c149 128 219 215 219 327c0 45 -18 73 -53 73c-49 0 -88 -36 -110 -138z" />
    <glyph glyph-name="trademark" unicode="&#x2122;" horiz-adv-x="863" 
d="M495 350v402h52l158 -342l163 342h51v-402h-41v335l-159 -335h-28l-154 334v-334h-42zM310 350h-43v362h-141v40h325v-40h-141v-362z" />
    <glyph glyph-name="Omega" unicode="&#x2126;" horiz-adv-x="790" 
d="M-21 0l3 43h255c-41 53 -83 135 -105 193c-20 52 -32 109 -32 159c0 216 156 392 401 392c189 0 281 -112 281 -262c0 -110 -33 -186 -119 -293c-46 -58 -125 -138 -188 -189h247l-15 -43h-306l7 35c66 52 164 148 226 226c77 98 101 164 101 264c0 126 -73 218 -234 218
c-232 0 -355 -161 -355 -353c0 -39 5 -87 18 -125c27 -81 84 -178 128 -230l-7 -35h-306z" />
    <glyph glyph-name="partialdiff" unicode="&#x2202;" 
d="M290 443c73 0 133 -36 168 -87c1 14 1 29 1 44c0 209 -78 331 -200 331c-54 0 -95 -17 -132 -60h-3l-4 46c36 40 82 55 140 55c145 0 240 -135 240 -370c0 -263 -114 -419 -275 -419c-108 0 -175 80 -175 195c0 163 98 265 240 265zM225 24c117 0 209 110 230 296
c-42 57 -98 84 -165 84c-118 0 -195 -92 -195 -226c0 -92 44 -154 130 -154z" />
    <glyph glyph-name="Delta" unicode="&#x2206;" horiz-adv-x="725" 
d="M658 0h-695l497 751l29 8zM464 684l-422 -642h560z" />
    <glyph glyph-name="product" unicode="&#x220f;" horiz-adv-x="699" 
d="M139 -220h-43v952h507v-952h-43v910h-421v-910z" />
    <glyph glyph-name="summation" unicode="&#x2211;" horiz-adv-x="538" 
d="M508 -220h-478l310 476l-310 476h478v-42h-404l283 -434l-283 -434h404v-42z" />
    <glyph glyph-name="minus" unicode="&#x2212;" 
d="M515 279v-41h-470v41h470z" />
    <glyph glyph-name="uni2215" unicode="&#x2215;" horiz-adv-x="165" 
d="M479 780l-687 -810h-50l686 810h51z" />
    <glyph glyph-name="uni2219" unicode="&#x2219;" horiz-adv-x="233" 
d="M127 304c20 0 32 -13 32 -31c0 -25 -19 -42 -43 -42c-20 0 -32 12 -32 30c0 25 18 43 43 43z" />
    <glyph glyph-name="radical" unicode="&#x221a;" 
d="M261 -99l-148 444l-98 -36l-15 42l139 51l143 -430l223 918h41l-240 -989h-45z" />
    <glyph glyph-name="infinity" unicode="&#x221e;" 
d="M158 377c61 0 105 -35 137 -85h2c25 42 71 85 128 85c73 0 117 -52 117 -120c0 -75 -50 -116 -113 -116c-62 0 -105 35 -138 85h-1c-25 -42 -71 -85 -128 -85c-73 0 -117 52 -117 120c0 75 50 116 113 116zM158 182c51 0 87 26 115 74c-30 51 -62 82 -111 82
c-43 0 -75 -31 -75 -77c0 -48 26 -79 71 -79zM429 336c-51 0 -88 -26 -115 -74c29 -52 62 -82 111 -82c43 0 75 31 75 77c0 48 -26 79 -71 79z" />
    <glyph glyph-name="integral" unicode="&#x222b;" horiz-adv-x="426" 
d="M191 5v533c0 150 39 214 131 214c26 0 55 -7 74 -21l-9 -56c-17 21 -43 34 -67 34c-66 0 -85 -51 -85 -182v-533c0 -150 -39 -214 -131 -214c-26 0 -55 7 -74 21l9 55c19 -21 43 -33 67 -33c66 0 85 51 85 182z" />
    <glyph glyph-name="approxequal" unicode="&#x2248;" 
d="M530 371c-29 -56 -75 -94 -136 -94c-88 0 -149 98 -232 98c-47 0 -81 -20 -109 -68l-23 35c29 51 75 78 136 78c88 0 151 -98 232 -98c46 0 80 33 107 88zM530 195c-29 -51 -75 -78 -136 -78c-88 0 -149 98 -232 98c-46 0 -80 -33 -107 -88l-25 39c29 56 75 94 136 94
c88 0 151 -98 232 -98c47 0 81 20 109 68z" />
    <glyph glyph-name="notequal" unicode="&#x2260;" 
d="M515 199v-41h-275l-66 -108h-49l66 108h-146v41h171l72 119h-243v41h268l66 108h50l-66 -108h152v-41h-177l-73 -119h250z" />
    <glyph glyph-name="lessequal" unicode="&#x2264;" 
d="M515 461l-426 -144l426 -143v-43l-470 160v53l470 160v-43zM515 81v-41h-470v41h470z" />
    <glyph glyph-name="greaterequal" unicode="&#x2265;" 
d="M45 131v43l425 144l-425 143v43l470 -160v-53zM515 81v-41h-470v41h470z" />
    <glyph glyph-name="lozenge" unicode="&#x25ca;" horiz-adv-x="521" 
d="M45 390l187 390h57l187 -390l-187 -390h-57zM89 390l171 -356l171 356l-171 355z" />
    <glyph glyph-name="fi" unicode="&#xfb01;" horiz-adv-x="564" 
d="M366 479l-8 -39h-145l-94 -440h-43l94 440h-108l8 39h109l18 87c20 94 65 159 131 189l109 25l-7 -36c-126 -24 -170 -80 -193 -189l-16 -76h145zM475 475l45 9l-103 -484h-43zM542 701c20 0 32 -13 32 -31c0 -25 -20 -42 -43 -42c-21 0 -32 12 -32 30c0 25 18 43 43 43z
" />
    <glyph glyph-name="fl" unicode="&#xfb02;" horiz-adv-x="564" 
d="M366 479l-8 -39h-145l-94 -440h-43l94 440h-108l8 39h109l18 87c20 94 65 159 131 189l109 25l-7 -36c-126 -24 -170 -80 -193 -189l-16 -76h145zM583 780l-166 -780h-43l164 770z" />
    <glyph glyph-name="questiondown.cap" horiz-adv-x="440" 
d="M430 715c-20 0 -32 13 -32 31c0 25 19 42 43 42c20 0 32 -12 32 -30c0 -25 -18 -43 -43 -43zM377 563l45 10l-36 -171c-186 -10 -310 -104 -310 -231c0 -84 64 -137 168 -137c34 0 64 5 94 16l-22 -49c-24 -7 -46 -10 -72 -10c-128 0 -214 64 -214 180
c0 144 138 250 322 274z" />
    <glyph glyph-name="exclamdown.cap" horiz-adv-x="253" 
d="M226 706c-20 0 -32 13 -32 31c0 25 19 42 43 42c20 0 32 -12 32 -30c0 -25 -18 -43 -43 -43zM98 8l-60 -17c45 189 102 409 143 558l22 -4c-26 -145 -70 -369 -105 -537z" />
    <glyph glyph-name="periodcenterd.cap" horiz-adv-x="233" 
d="M152 423c20 0 32 -13 32 -31c0 -25 -19 -42 -43 -42c-20 0 -32 12 -32 30c0 25 18 43 43 43z" />
    <glyph glyph-name="hyphen.cap" horiz-adv-x="324" 
d="M324 407l-9 -41h-254l9 41h254z" />
    <glyph glyph-name="endash.cap" horiz-adv-x="600" 
d="M610 407l-9 -41h-550l9 41h550z" />
    <glyph glyph-name="emdash.cap" horiz-adv-x="1000" 
d="M1010 407l-9 -41h-950l9 41h950z" />
    <glyph glyph-name="uni00AD.cap" horiz-adv-x="324" 
d="M324 407l-9 -41h-254l9 41h254z" />
    <glyph glyph-name="parenleft.cap" horiz-adv-x="337" 
d="M94 293c0 232 95 385 258 516h45c-183 -161 -260 -288 -260 -523c0 -115 27 -227 80 -323h-33c-58 90 -90 203 -90 330z" />
    <glyph glyph-name="parenright.cap" horiz-adv-x="337" 
d="M303 479c0 -232 -95 -385 -258 -516h-45c183 161 260 288 260 523c0 115 -27 227 -80 323h33c58 -90 90 -203 90 -330z" />
    <glyph glyph-name="bracketleft.cap" horiz-adv-x="337" 
d="M30 -37l180 846h183l-7 -31h-143l-166 -784h143l-7 -31h-183z" />
    <glyph glyph-name="bracketright.cap" horiz-adv-x="337" 
d="M367 809l-180 -846h-182l7 31h142l166 784h-142l7 31h182z" />
    <glyph glyph-name="braceleft.cap" horiz-adv-x="337" 
d="M58 368l8 36c74 6 111 55 124 115l32 150c22 101 79 140 181 140l-7 -31c-78 0 -118 -31 -137 -122l-32 -150c-15 -74 -55 -109 -115 -122c42 -11 66 -41 66 -97c0 -10 -2 -22 -5 -35l-30 -139c-4 -19 -6 -33 -6 -47c0 -54 30 -72 92 -72l-6 -31c-83 0 -126 29 -126 101
c0 15 2 31 6 49l30 140c3 12 4 23 4 34c0 43 -21 76 -79 81z" />
    <glyph glyph-name="braceright.cap" horiz-adv-x="337" 
d="M340 404l-8 -36c-74 -6 -111 -55 -124 -115l-32 -150c-22 -101 -79 -140 -181 -140l7 31c78 0 118 31 137 122l32 150c15 74 55 109 115 122c-42 11 -66 41 -66 97c0 10 2 22 5 35l30 139c4 19 6 33 6 47c0 54 -30 72 -92 72l6 31c83 0 126 -29 126 -101
c0 -15 -2 -31 -6 -49l-30 -140c-3 -12 -4 -23 -4 -34c0 -43 21 -76 79 -81z" />
    <glyph glyph-name="guilsinglleft.cap" horiz-adv-x="275" 
d="M180 221l-100 165l160 165h40l-134 -165l64 -165h-30z" />
    <glyph glyph-name="guilsinglright.cap" horiz-adv-x="275" 
d="M155 551l100 -165l-160 -165h-40l134 165l-64 165h30z" />
    <glyph glyph-name="guillemotleft.cap" horiz-adv-x="415" 
d="M181 221l-100 165l160 165h40l-134 -165l64 -165h-30zM321 221l-100 165l160 165h40l-134 -165l64 -165h-30z" />
    <glyph glyph-name="guillemotright.cap" horiz-adv-x="415" 
d="M155 551l100 -165l-160 -165h-40l134 165l-64 165h30zM295 551l100 -165l-160 -165h-40l134 165l-64 165h30z" />
    <glyph glyph-name="A.superior" horiz-adv-x="404" 
d="M32 350l266 400l35 5l85 -405h-44l-28 141h-173l-89 -141h-52zM306 697l-111 -171h145z" />
    <glyph glyph-name="B.superior" horiz-adv-x="335" 
d="M373 665c0 -39 -26 -80 -77 -101c35 -14 53 -44 53 -83c0 -77 -71 -131 -167 -131h-101l85 402h96c74 0 111 -37 111 -87zM165 543l-33 -156h52c77 0 121 44 121 94c0 36 -26 62 -73 62h-67zM201 716l-29 -138h60c62 0 98 42 98 82c0 31 -23 56 -72 56h-57z" />
    <glyph glyph-name="C.superior" horiz-adv-x="399" 
d="M464 723l-16 -47h-3c-23 25 -57 41 -108 41c-105 0 -195 -93 -195 -200c0 -80 47 -132 124 -132c50 0 96 17 140 56h3l-20 -61c-38 -24 -84 -37 -129 -37c-101 0 -163 70 -163 174c0 130 113 242 242 242c57 0 95 -12 125 -36z" />
    <glyph glyph-name="D.superior" horiz-adv-x="405" 
d="M172 350h-91l85 402h89c122 0 186 -67 186 -165c0 -140 -96 -237 -269 -237zM201 712l-69 -322h47c140 0 217 81 217 196c0 72 -47 126 -144 126h-51z" />
    <glyph glyph-name="E.superior" horiz-adv-x="307" 
d="M201 713l-28 -134h150l-8 -38h-150l-33 -152h174l-8 -39h-217l85 402h214l-8 -39h-171z" />
    <glyph glyph-name="F.superior" horiz-adv-x="298" 
d="M384 752l-9 -39h-174l-28 -130h161l-8 -39h-161l-41 -194h-43l85 402h218z" />
    <glyph glyph-name="G.superior" horiz-adv-x="420" 
d="M437 535l-29 -140c-44 -33 -96 -52 -146 -52c-102 0 -165 69 -165 172c0 130 104 244 242 244c54 0 95 -14 124 -37l-16 -46h-3c-24 29 -62 42 -106 42c-114 0 -196 -93 -196 -203c0 -80 46 -132 123 -132c41 0 76 14 104 37l24 115h44z" />
    <glyph glyph-name="H.superior" horiz-adv-x="417" 
d="M124 350h-43l85 402h43l-37 -173h216l36 173h43l-85 -402h-43l40 189h-215z" />
    <glyph glyph-name="I.superior" horiz-adv-x="159" 
d="M124 350h-43l85 402h43z" />
    <glyph glyph-name="J.superior" horiz-adv-x="159" 
d="M167 752h43l-72 -338c-19 -90 -41 -136 -78 -168l-70 -19l-2 5c58 36 85 77 108 183z" />
    <glyph glyph-name="K.superior" horiz-adv-x="372" 
d="M124 350h-43l85 402h43l-41 -192l225 192h61l-239 -201l171 -201h-56l-164 200z" />
    <glyph glyph-name="L.superior" horiz-adv-x="323" 
d="M81 350l85 402h43l-77 -362h208l-8 -40h-251z" />
    <glyph glyph-name="M.superior" horiz-adv-x="541" 
d="M81 350l85 402h49l87 -340l234 340h55l-86 -402h-41l69 330l-228 -330h-28l-84 331l-70 -331h-42z" />
    <glyph glyph-name="N.superior" horiz-adv-x="464" 
d="M472 752h42l-85 -402h-39l-195 339l-72 -339h-42l85 402h40l194 -338z" />
    <glyph glyph-name="O.superior" horiz-adv-x="455" 
d="M260 383c109 0 183 106 183 203c0 80 -42 133 -117 133c-100 0 -184 -87 -184 -196c0 -82 45 -140 118 -140zM488 590c0 -122 -93 -248 -229 -248c-100 0 -161 74 -161 177c0 134 105 241 229 241c102 0 161 -68 161 -170z" />
    <glyph glyph-name="P.superior" horiz-adv-x="313" 
d="M124 350h-43l85 402h80c82 0 129 -38 129 -101c0 -91 -63 -144 -179 -144h-39zM201 714l-36 -169h38c86 0 129 39 129 103c0 42 -31 66 -90 66h-41z" />
    <glyph glyph-name="Q.superior" horiz-adv-x="456" 
d="M260 350c-21 0 -40 4 -57 11l-1 -2c33 -15 69 -44 112 -57c22 -7 44 -11 69 -12l-22 -41c-23 2 -53 9 -75 19c-50 21 -81 49 -118 68c-14 7 -30 14 -44 17l30 39c-34 32 -55 79 -55 134c0 130 105 234 228 234c101 0 164 -72 164 -172c0 -133 -106 -238 -231 -238z
M446 587c0 77 -46 131 -122 131c-98 0 -180 -84 -180 -192c0 -79 48 -138 117 -138c101 0 185 89 185 199z" />
    <glyph glyph-name="R.superior" horiz-adv-x="355" 
d="M80 350l85 402h95c78 0 122 -35 122 -94c0 -71 -49 -113 -126 -130l112 -178h-53l-103 172c-11 -1 -23 -1 -35 -1h-18l-36 -171h-43zM200 714l-34 -160h11c105 0 160 32 160 100c0 38 -28 60 -82 60h-55z" />
    <glyph glyph-name="S.superior" horiz-adv-x="300" 
d="M77 420c23 -25 50 -39 90 -39c59 0 99 33 99 75c0 38 -16 62 -66 91c-52 30 -74 55 -74 105c0 60 55 108 126 108c35 0 63 -9 88 -27l-10 -44c-24 22 -50 32 -78 32c-51 0 -82 -31 -82 -69c0 -32 17 -50 66 -78c56 -32 76 -65 76 -115c0 -71 -66 -117 -148 -117
c-41 0 -76 10 -97 29l7 49h3z" />
    <glyph glyph-name="T.superior" horiz-adv-x="349" 
d="M219 350h-43l77 362h-141l9 40h325l-9 -40h-141z" />
    <glyph glyph-name="U.superior" horiz-adv-x="405" 
d="M163 752h43l-54 -253c-3 -13 -4 -27 -4 -40c0 -52 34 -74 81 -74c59 0 115 34 132 114l54 253h43l-54 -254c-23 -108 -94 -155 -175 -155c-72 0 -124 35 -124 113c0 13 1 25 4 40z" />
    <glyph glyph-name="V.superior" horiz-adv-x="399" 
d="M117 752h46l64 -343l220 343h52l-263 -402h-36z" />
    <glyph glyph-name="W.superior" horiz-adv-x="597" 
d="M413 350l-41 238l-147 -238h-35l-73 402h46l55 -342l144 234l-19 108h46l52 -337l205 337h51l-251 -402h-33z" />
    <glyph glyph-name="X.superior" horiz-adv-x="402" 
d="M34 350l206 212l-108 190h50l88 -161l150 161h62l-192 -196l117 -206h-51l-95 175l-165 -175h-62z" />
    <glyph glyph-name="Y.superior" horiz-adv-x="372" 
d="M224 350h-42l39 186l-106 216h48l84 -178l168 178h59l-210 -217z" />
    <glyph glyph-name="Z.superior" horiz-adv-x="385" 
d="M370 350h-341l349 360h-233l13 42h314l-352 -361h267z" />
    <glyph glyph-name="ordfeminine" unicode="&#xaa;" horiz-adv-x="345" 
d="M146 613l10 50c33 22 72 31 107 31c67 0 98 -32 98 -88c0 -10 -1 -22 -3 -32l-47 -220l-44 -11l10 47c-34 -26 -81 -47 -128 -47c-50 0 -80 28 -80 72c0 48 32 89 94 112c40 15 86 26 150 32l3 14c2 9 3 20 3 31c0 33 -21 51 -60 51c-38 0 -79 -13 -113 -42zM288 443
l17 79c-39 -3 -85 -11 -116 -22c-57 -20 -76 -48 -76 -79c0 -25 16 -42 49 -42c39 0 85 22 126 64z" />
    <glyph glyph-name="b.superior" horiz-adv-x="405" 
d="M208 338c-29 0 -61 8 -78 19l-46 -16l109 513l44 10l-42 -197c31 20 63 31 104 31c79 0 134 -54 134 -142c0 -123 -93 -218 -225 -218zM289 660c-40 0 -76 -14 -104 -39l-48 -226c19 -17 44 -22 71 -22c105 0 180 76 180 182c0 63 -36 105 -99 105z" />
    <glyph glyph-name="c.superior" horiz-adv-x="356" 
d="M365 426l-21 -59c-27 -16 -70 -29 -110 -29c-91 0 -144 55 -144 142c0 117 86 218 217 218c43 0 80 -12 104 -33l-17 -40c-22 20 -48 33 -88 33c-105 0 -172 -79 -172 -176c0 -59 33 -104 105 -104c47 0 86 14 123 48h3z" />
    <glyph glyph-name="d.superior" horiz-adv-x="407" 
d="M322 339l7 31c-35 -23 -73 -32 -106 -32c-89 0 -134 62 -134 141c0 128 108 219 214 219c35 0 64 -7 90 -22l38 178l44 10l-109 -510zM230 376c38 0 77 12 107 35l47 224c-17 15 -48 24 -82 24c-89 0 -168 -74 -168 -179c0 -60 32 -104 96 -104z" />
    <glyph glyph-name="e.superior" horiz-adv-x="355" 
d="M256 500c-36 -8 -90 -17 -130 -23c1 -58 36 -99 103 -99c45 0 92 20 125 53h2l-13 -54c-30 -24 -76 -39 -117 -39c-96 0 -139 63 -139 136c0 107 103 224 215 224c63 0 95 -34 95 -79c0 -50 -34 -95 -141 -119zM297 661c-75 0 -150 -76 -167 -151c34 5 87 14 129 26
c65 18 95 48 95 81c0 27 -21 44 -57 44z" />
    <glyph glyph-name="f.superior" horiz-adv-x="237" 
d="M321 686l-7 -37h-99l-64 -299h-42l64 299h-73l8 37h73l6 28c14 66 46 112 93 132l84 18l-6 -27c-86 -18 -115 -56 -131 -132l-4 -19h98z" />
    <glyph glyph-name="g.superior" horiz-adv-x="372" 
d="M265 693c34 0 60 -9 80 -23c26 28 55 47 96 47l-9 -42c-22 0 -46 -9 -66 -26c12 -17 18 -37 18 -57c0 -59 -47 -102 -119 -119c-36 -8 -68 -12 -91 -17c-30 -7 -44 -13 -44 -27c0 -11 15 -18 39 -23c28 -6 86 -12 112 -17c46 -9 67 -35 67 -72c0 -73 -91 -132 -188 -132
c-77 0 -118 43 -118 92c0 35 17 75 83 104c-28 12 -40 29 -40 46c0 27 35 44 85 57c-32 17 -52 46 -52 81c0 67 68 128 147 128zM265 354c-22 5 -61 9 -102 17c-51 -17 -84 -48 -84 -88c0 -33 28 -62 84 -62c79 0 142 46 142 92c0 19 -11 35 -40 41zM158 564
c0 -25 15 -49 41 -62c6 -3 12 -5 19 -5c6 0 13 1 28 4c54 10 96 42 96 89c0 36 -27 66 -78 66c-57 0 -106 -39 -106 -92z" />
    <glyph glyph-name="h.superior" horiz-adv-x="399" 
d="M86 350l108 504l44 10l-51 -238c45 46 95 67 138 67c56 0 90 -28 90 -86c0 -11 -2 -25 -4 -35l-47 -222h-42l46 216c2 10 4 23 4 33c0 36 -22 55 -61 55c-40 0 -81 -23 -109 -52c-18 -19 -28 -37 -34 -65l-40 -187h-42z" />
    <glyph glyph-name="i.superior" horiz-adv-x="170" 
d="M157 682l44 9l-73 -341h-42zM210 845c17 0 28 -11 28 -27c0 -20 -17 -35 -36 -35c-18 0 -28 11 -28 26c0 21 16 36 36 36z" />
    <glyph glyph-name="j.superior" horiz-adv-x="169" 
d="M157 682l44 9l-76 -356c-16 -77 -36 -106 -61 -128l-74 -22l-2 9c55 31 78 66 95 144zM210 845c16 0 27 -11 27 -27c0 -20 -16 -35 -36 -35c-17 0 -27 11 -27 26c0 21 15 36 36 36z" />
    <glyph glyph-name="k.superior" horiz-adv-x="360" 
d="M238 864l-70 -327l191 149h63l-205 -157l183 -179h-58l-176 179l-38 -179h-42l108 504z" />
    <glyph glyph-name="l.superior" horiz-adv-x="169" 
d="M238 864l-110 -514h-42l108 504z" />
    <glyph glyph-name="m.superior" horiz-adv-x="580" 
d="M502 350l47 220c2 10 3 19 3 28c0 35 -20 56 -55 56c-39 0 -71 -21 -96 -52c-9 -12 -16 -25 -20 -43v1l-45 -210h-42l47 220c2 10 3 18 3 27c0 36 -20 57 -55 57c-39 0 -72 -21 -97 -53c-9 -12 -16 -25 -20 -45l-44 -206h-42l72 336h42l-10 -47c26 31 64 54 107 54
c52 0 80 -27 87 -67c34 42 78 67 122 67c62 0 89 -35 89 -89c0 -10 -2 -24 -5 -37l-46 -217h-42z" />
    <glyph glyph-name="n.superior" unicode="&#x207f;" horiz-adv-x="399" 
d="M86 350l72 336h42l-13 -60c45 46 95 67 138 67c56 0 90 -29 90 -87c0 -10 -2 -24 -4 -34l-48 -222h-42l46 216c3 12 4 23 4 33c0 36 -21 55 -60 55c-40 0 -81 -23 -109 -52c-18 -19 -28 -37 -34 -65l-40 -187h-42z" />
    <glyph glyph-name="ordmasculine" unicode="&#xba;" horiz-adv-x="396" 
d="M231 376c94 0 147 95 147 180c0 66 -35 105 -95 105c-86 0 -147 -77 -147 -171c0 -67 31 -114 95 -114zM228 338c-83 0 -136 57 -136 151c0 123 88 209 194 209c79 0 136 -47 136 -140c0 -108 -76 -220 -194 -220z" />
    <glyph glyph-name="p.superior" horiz-adv-x="406" 
d="M159 686h42l-2 -9c29 12 58 18 88 18c86 0 145 -55 145 -144c0 -122 -87 -213 -214 -213c-32 0 -62 7 -86 22l-35 -164l-45 -11zM283 657c-37 0 -67 -6 -93 -22l-50 -238c18 -16 44 -24 78 -24c99 0 170 74 170 177c0 65 -38 107 -105 107z" />
    <glyph glyph-name="q.superior" horiz-adv-x="410" 
d="M441 688l-104 -491l-45 -12l38 178c-27 -15 -66 -24 -102 -24c-87 0 -138 56 -138 142c0 127 94 217 220 217c33 0 63 -6 89 -17zM234 377c43 0 77 10 105 29l51 239c-21 10 -45 15 -80 15c-104 0 -175 -74 -175 -178c0 -64 35 -105 99 -105z" />
    <glyph glyph-name="r.superior" horiz-adv-x="252" 
d="M337 690l-10 -45c-51 1 -92 -14 -123 -37c-16 -12 -27 -27 -35 -67l-41 -191h-42l72 336h42l-11 -54c36 34 74 51 117 56c10 1 21 2 31 2z" />
    <glyph glyph-name="s.superior" horiz-adv-x="303" 
d="M64 376l12 43c20 -25 54 -45 99 -45c62 0 93 29 93 69c0 15 -7 30 -22 40c-31 20 -62 24 -88 40c-31 19 -42 41 -42 73c0 57 51 102 121 102c44 0 79 -15 105 -38l-20 -38c-20 27 -57 39 -86 39c-52 0 -78 -31 -78 -64c0 -19 9 -31 27 -41c23 -13 58 -23 80 -36
c32 -19 44 -43 44 -75c0 -63 -52 -107 -135 -107c-52 0 -87 16 -110 38z" />
    <glyph glyph-name="t.superior" horiz-adv-x="237" 
d="M108 686h66l23 108l44 10l-25 -118h105l-7 -37h-106l-39 -184c-4 -19 -6 -36 -6 -49c0 -27 12 -44 41 -60l-1 -5l-47 -6c-24 13 -36 34 -36 70c0 12 2 27 6 46l40 188h-66z" />
    <glyph glyph-name="u.superior" horiz-adv-x="397" 
d="M153 686h42l-46 -215c-2 -10 -3 -21 -3 -30c0 -41 22 -58 61 -58c44 0 86 26 117 64c10 12 17 28 20 43l42 196h42l-71 -333l-44 -10l14 66c-36 -40 -86 -66 -133 -66c-62 0 -92 32 -92 92c0 11 2 22 4 32z" />
    <glyph glyph-name="v.superior" horiz-adv-x="326" 
d="M103 686h44l39 -283l176 283h50l-217 -336h-37z" />
    <glyph glyph-name="w.superior" horiz-adv-x="523" 
d="M334 686h40l15 -284l171 284h49l-212 -336h-38l-19 266l-149 -266h-39l-49 336h44l34 -282z" />
    <glyph glyph-name="x.superior" horiz-adv-x="371" 
d="M443 686l-177 -165l106 -171h-45l-88 146l-152 -146h-59l190 177l-99 159h50l77 -134l137 134h60z" />
    <glyph glyph-name="y.superior" horiz-adv-x="334" 
d="M29 187c46 43 100 109 140 171l-67 328h45l52 -280l173 280h49l-220 -345c-49 -77 -83 -121 -116 -156h-56v2z" />
    <glyph glyph-name="z.superior" horiz-adv-x="360" 
d="M349 350h-310l302 299h-211l12 37h291l-302 -299h232z" />
    <glyph glyph-name="zero.superior" unicode="&#x2070;" horiz-adv-x="358" 
d="M230 448c-70 0 -112 53 -112 148c0 158 85 264 184 264c70 0 112 -51 112 -144c0 -160 -85 -268 -184 -268zM230 487c82 0 140 100 140 226c0 69 -25 108 -69 108c-82 0 -140 -100 -140 -225c0 -69 25 -109 69 -109z" />
    <glyph glyph-name="onesuperior" unicode="&#xb9;" horiz-adv-x="252" 
d="M197 458h-41l76 354l-92 -3l15 41h126z" />
    <glyph glyph-name="twosuperior" unicode="&#xb2;" horiz-adv-x="337" 
d="M280 590c-41 -35 -80 -65 -124 -92h195l-14 -40h-259l7 33c58 35 119 82 172 129c73 65 91 97 91 142c0 31 -21 56 -63 56c-41 0 -78 -12 -124 -44l23 59c26 18 66 27 102 27c71 0 105 -42 105 -96c0 -51 -21 -98 -111 -174z" />
    <glyph glyph-name="threesuperior" unicode="&#xb3;" horiz-adv-x="339" 
d="M386 767c0 -44 -31 -83 -83 -101c39 -15 60 -42 60 -86c0 -81 -71 -132 -166 -132c-51 0 -87 9 -110 28l7 41c28 -22 57 -30 103 -30c76 0 124 41 124 93c0 38 -29 64 -85 64c-33 0 -66 -4 -90 -10l21 51c14 -1 33 -2 51 -2c74 0 125 32 125 86c0 30 -22 52 -69 52
c-40 0 -67 -7 -99 -24l22 49c20 9 50 14 78 14c74 0 111 -40 111 -93z" />
    <glyph glyph-name="four.superior" unicode="&#x2074;" horiz-adv-x="360" 
d="M269 458l24 112h-209l4 20l254 260h50l-52 -241h79l-8 -39h-79l-24 -112h-39zM149 609h152l43 201z" />
    <glyph glyph-name="five.superior" unicode="&#x2075;" horiz-adv-x="350" 
d="M428 850l-14 -39h-179l-32 -92c8 2 21 3 32 3c92 0 137 -50 137 -113c0 -101 -87 -165 -251 -165c-11 0 -26 1 -36 3l14 42c11 -1 28 -2 41 -2c121 0 190 51 190 121c0 42 -33 74 -103 74c-28 0 -54 -3 -80 -8l59 176h222z" />
    <glyph glyph-name="six.superior" unicode="&#x2076;" horiz-adv-x="350" 
d="M409 816c-136 -12 -220 -81 -251 -163c33 33 67 50 111 50c73 0 119 -43 119 -112c0 -77 -65 -143 -150 -143s-130 50 -130 131c0 127 94 266 319 283zM267 664c-48 0 -86 -19 -121 -57v1c-2 -10 -2 -20 -2 -29c0 -59 36 -92 98 -92c53 0 104 49 104 105
c0 42 -32 72 -79 72z" />
    <glyph glyph-name="seven.superior" unicode="&#x2077;" horiz-adv-x="320" 
d="M133 458c68 130 150 257 216 353l-217 -5l28 44h256c-97 -145 -176 -271 -232 -392h-51z" />
    <glyph glyph-name="eight.superior" unicode="&#x2078;" horiz-adv-x="367" 
d="M111 546c0 54 38 94 108 114c-33 17 -53 45 -53 87c0 62 63 113 136 113c74 0 109 -42 109 -92c0 -46 -30 -81 -88 -103c44 -16 67 -51 67 -95c0 -65 -58 -122 -157 -122c-80 0 -122 40 -122 98zM348 574c0 36 -25 59 -83 72c-72 -14 -114 -58 -114 -100
c0 -32 29 -59 82 -59c74 0 115 40 115 87zM208 746c0 -33 19 -54 69 -69c57 16 94 44 94 90c0 31 -25 55 -67 55c-52 0 -96 -33 -96 -76z" />
    <glyph glyph-name="nine.superior" unicode="&#x2079;" horiz-adv-x="354" 
d="M155 441l-21 35c131 47 199 103 227 171c-24 -23 -61 -40 -100 -40c-75 0 -123 42 -123 111c0 75 58 142 144 142c83 0 132 -48 132 -132c0 -124 -77 -219 -259 -287zM264 648c45 0 77 15 108 42c2 13 4 27 4 41c0 56 -34 90 -94 90s-102 -47 -102 -104
c0 -41 33 -69 84 -69z" />
    <glyph glyph-name="zero.inferior" unicode="&#x2080;" horiz-adv-x="358" 
d="M103 -152c-70 0 -112 53 -112 148c0 158 85 264 184 264c70 0 112 -51 112 -144c0 -160 -85 -268 -184 -268zM103 -113c82 0 140 100 140 226c0 69 -25 108 -69 108c-82 0 -140 -100 -140 -225c0 -69 25 -109 69 -109z" />
    <glyph glyph-name="one.inferior" unicode="&#x2081;" horiz-adv-x="252" 
d="M69 -142h-41l76 354l-92 -3l15 41h126z" />
    <glyph glyph-name="two.inferior" unicode="&#x2082;" horiz-adv-x="337" 
d="M153 -10c-41 -35 -80 -65 -124 -92h195l-14 -40h-259l7 33c58 35 119 82 172 129c73 65 91 97 91 142c0 31 -21 56 -63 56c-41 0 -78 -12 -124 -44l23 59c26 18 66 27 102 27c71 0 105 -42 105 -96c0 -51 -21 -98 -111 -174z" />
    <glyph glyph-name="three.inferior" unicode="&#x2083;" horiz-adv-x="339" 
d="M259 167c0 -44 -31 -83 -83 -101c39 -15 60 -42 60 -86c0 -81 -71 -132 -166 -132c-51 0 -87 9 -110 28l7 41c28 -22 57 -30 103 -30c76 0 124 41 124 93c0 38 -29 64 -85 64c-33 0 -66 -4 -90 -10l21 51c14 -1 33 -2 51 -2c74 0 125 32 125 86c0 30 -22 52 -69 52
c-40 0 -67 -7 -99 -24l22 49c20 9 50 14 78 14c74 0 111 -40 111 -93z" />
    <glyph glyph-name="four.inferior" unicode="&#x2084;" horiz-adv-x="360" 
d="M142 -142l24 112h-209l4 20l254 260h50l-52 -241h79l-8 -39h-79l-24 -112h-39zM22 9h152l43 201z" />
    <glyph glyph-name="five.inferior" unicode="&#x2085;" horiz-adv-x="350" 
d="M300 250l-14 -39h-179l-32 -92c8 2 21 3 32 3c92 0 137 -50 137 -113c0 -101 -87 -165 -251 -165c-11 0 -26 1 -36 3l14 42c11 -1 28 -2 41 -2c121 0 190 51 190 121c0 42 -33 74 -103 74c-28 0 -54 -3 -80 -8l59 176h222z" />
    <glyph glyph-name="six.inferior" unicode="&#x2086;" horiz-adv-x="350" 
d="M282 216c-136 -12 -220 -81 -251 -163c33 33 67 50 111 50c73 0 119 -43 119 -112c0 -77 -65 -143 -150 -143s-130 50 -130 131c0 127 94 266 319 283zM140 64c-48 0 -86 -19 -121 -57v1c-2 -10 -2 -20 -2 -29c0 -59 36 -92 98 -92c53 0 104 49 104 105
c0 42 -32 72 -79 72z" />
    <glyph glyph-name="seven.inferior" unicode="&#x2087;" horiz-adv-x="320" 
d="M6 -142c68 130 150 257 216 353l-217 -5l28 44h256c-97 -145 -176 -271 -232 -392h-51z" />
    <glyph glyph-name="eight.inferior" unicode="&#x2088;" horiz-adv-x="367" 
d="M-17 -54c0 54 38 94 108 114c-33 17 -53 45 -53 87c0 62 63 113 136 113c74 0 109 -42 109 -92c0 -46 -30 -81 -88 -103c44 -16 67 -51 67 -95c0 -65 -58 -122 -157 -122c-80 0 -122 40 -122 98zM220 -26c0 36 -25 59 -83 72c-72 -14 -114 -58 -114 -100
c0 -32 29 -59 82 -59c74 0 115 40 115 87zM80 146c0 -33 19 -54 69 -69c57 16 94 44 94 90c0 31 -25 55 -67 55c-52 0 -96 -33 -96 -76z" />
    <glyph glyph-name="nine.inferior" unicode="&#x2089;" horiz-adv-x="354" 
d="M28 -159l-21 35c131 47 199 103 227 171c-24 -23 -61 -40 -100 -40c-75 0 -123 42 -123 111c0 75 58 142 144 142c83 0 132 -48 132 -132c0 -124 -77 -219 -259 -287zM137 48c45 0 77 15 108 42c2 13 4 27 4 41c0 56 -34 90 -94 90s-102 -47 -102 -104
c0 -41 33 -69 84 -69z" />
    <glyph glyph-name="zero.numerator" horiz-adv-x="358" 
d="M209 350c-70 0 -112 53 -112 148c0 158 85 264 184 264c70 0 112 -51 112 -144c0 -160 -85 -268 -184 -268zM209 389c82 0 140 100 140 226c0 69 -25 108 -69 108c-82 0 -140 -100 -140 -225c0 -69 25 -109 69 -109z" />
    <glyph glyph-name="one.numerator" horiz-adv-x="252" 
d="M176 360h-41l76 354l-92 -3l15 41h126z" />
    <glyph glyph-name="two.numerator" horiz-adv-x="337" 
d="M260 492c-41 -35 -80 -65 -124 -92h195l-14 -40h-259l7 33c58 35 119 82 172 129c73 65 91 97 91 142c0 31 -21 56 -63 56c-41 0 -78 -12 -124 -44l23 59c26 18 66 27 102 27c71 0 105 -42 105 -96c0 -51 -21 -98 -111 -174z" />
    <glyph glyph-name="three.numerator" horiz-adv-x="339" 
d="M365 669c0 -44 -31 -83 -83 -101c39 -15 60 -42 60 -86c0 -81 -71 -132 -166 -132c-51 0 -87 9 -110 28l7 41c28 -22 57 -30 103 -30c76 0 124 41 124 93c0 38 -29 64 -85 64c-33 0 -66 -4 -90 -10l21 51c14 -1 33 -2 51 -2c74 0 125 32 125 86c0 30 -22 52 -69 52
c-40 0 -67 -7 -99 -24l22 49c20 9 50 14 78 14c74 0 111 -40 111 -93z" />
    <glyph glyph-name="four.numerator" horiz-adv-x="360" 
d="M248 360l24 112h-209l4 20l254 260h50l-52 -241h79l-8 -39h-79l-24 -112h-39zM128 511h152l43 201z" />
    <glyph glyph-name="five.numerator" horiz-adv-x="350" 
d="M407 752l-14 -39h-179l-32 -92c8 2 21 3 32 3c92 0 137 -50 137 -113c0 -101 -87 -165 -251 -165c-11 0 -26 1 -36 3l14 42c11 -1 28 -2 41 -2c121 0 190 51 190 121c0 42 -33 74 -103 74c-28 0 -54 -3 -80 -8l59 176h222z" />
    <glyph glyph-name="six.numerator" horiz-adv-x="350" 
d="M388 718c-136 -12 -220 -81 -251 -163c33 33 67 50 111 50c73 0 119 -43 119 -112c0 -77 -65 -143 -150 -143s-130 50 -130 131c0 127 94 266 319 283zM246 566c-48 0 -86 -19 -121 -57v1c-2 -10 -2 -20 -2 -29c0 -59 36 -92 98 -92c53 0 104 49 104 105
c0 42 -32 72 -79 72z" />
    <glyph glyph-name="seven.numerator" horiz-adv-x="320" 
d="M112 360c68 130 150 257 216 353l-217 -5l28 44h256c-97 -145 -176 -271 -232 -392h-51z" />
    <glyph glyph-name="eight.numerator" horiz-adv-x="367" 
d="M90 448c0 54 38 94 108 114c-33 17 -53 45 -53 87c0 62 63 113 136 113c74 0 109 -42 109 -92c0 -46 -30 -81 -88 -103c44 -16 67 -51 67 -95c0 -65 -58 -122 -157 -122c-80 0 -122 40 -122 98zM327 476c0 36 -25 59 -83 72c-72 -14 -114 -58 -114 -100
c0 -32 29 -59 82 -59c74 0 115 40 115 87zM187 648c0 -33 19 -54 69 -69c57 16 94 44 94 90c0 31 -25 55 -67 55c-52 0 -96 -33 -96 -76z" />
    <glyph glyph-name="nine.numerator" horiz-adv-x="354" 
d="M134 343l-21 35c131 47 199 103 227 171c-24 -23 -61 -40 -100 -40c-75 0 -123 42 -123 111c0 75 58 142 144 142c83 0 132 -48 132 -132c0 -124 -77 -219 -259 -287zM243 550c45 0 77 15 108 42c2 13 4 27 4 41c0 56 -34 90 -94 90s-102 -47 -102 -104
c0 -41 33 -69 84 -69z" />
    <glyph glyph-name="zero.denominator" horiz-adv-x="358" 
d="M133 -10c-70 0 -112 53 -112 148c0 158 85 264 184 264c70 0 112 -51 112 -144c0 -160 -85 -268 -184 -268zM133 29c82 0 140 100 140 226c0 69 -25 108 -69 108c-82 0 -140 -100 -140 -225c0 -69 25 -109 69 -109z" />
    <glyph glyph-name="one.denominator" horiz-adv-x="252" 
d="M100 0h-41l76 354l-92 -3l15 41h126z" />
    <glyph glyph-name="two.denominator" horiz-adv-x="337" 
d="M183 132c-41 -35 -80 -65 -124 -92h195l-14 -40h-259l7 33c58 35 119 82 172 129c73 65 91 97 91 142c0 31 -21 56 -63 56c-41 0 -78 -12 -124 -44l23 59c26 18 66 27 102 27c71 0 105 -42 105 -96c0 -51 -21 -98 -111 -174z" />
    <glyph glyph-name="three.denominator" horiz-adv-x="339" 
d="M289 309c0 -44 -31 -83 -83 -101c39 -15 60 -42 60 -86c0 -81 -71 -132 -166 -132c-51 0 -87 9 -110 28l7 41c28 -22 57 -30 103 -30c76 0 124 41 124 93c0 38 -29 64 -85 64c-33 0 -66 -4 -90 -10l21 51c14 -1 33 -2 51 -2c74 0 125 32 125 86c0 30 -22 52 -69 52
c-40 0 -67 -7 -99 -24l22 49c20 9 50 14 78 14c74 0 111 -40 111 -93z" />
    <glyph glyph-name="four.denominator" horiz-adv-x="360" 
d="M172 0l24 112h-209l4 20l254 260h50l-52 -241h79l-8 -39h-79l-24 -112h-39zM52 151h152l43 201z" />
    <glyph glyph-name="five.denominator" horiz-adv-x="350" 
d="M330 392l-14 -39h-179l-32 -92c8 2 21 3 32 3c92 0 137 -50 137 -113c0 -101 -87 -165 -251 -165c-11 0 -26 1 -36 3l14 42c11 -1 28 -2 41 -2c121 0 190 51 190 121c0 42 -33 74 -103 74c-28 0 -54 -3 -80 -8l59 176h222z" />
    <glyph glyph-name="six.denominator" horiz-adv-x="350" 
d="M312 358c-136 -12 -220 -81 -251 -163c33 33 67 50 111 50c73 0 119 -43 119 -112c0 -77 -65 -143 -150 -143s-130 50 -130 131c0 127 94 266 319 283zM170 206c-48 0 -86 -19 -121 -57v1c-2 -10 -2 -20 -2 -29c0 -59 36 -92 98 -92c53 0 104 49 104 105
c0 42 -32 72 -79 72z" />
    <glyph glyph-name="seven.denominator" horiz-adv-x="320" 
d="M36 0c68 130 150 257 216 353l-217 -5l28 44h256c-97 -145 -176 -271 -232 -392h-51z" />
    <glyph glyph-name="eight.denominator" horiz-adv-x="367" 
d="M13 88c0 54 38 94 108 114c-33 17 -53 45 -53 87c0 62 63 113 136 113c74 0 109 -42 109 -92c0 -46 -30 -81 -88 -103c44 -16 67 -51 67 -95c0 -65 -58 -122 -157 -122c-80 0 -122 40 -122 98zM250 116c0 36 -25 59 -83 72c-72 -14 -114 -58 -114 -100
c0 -32 29 -59 82 -59c74 0 115 40 115 87zM110 288c0 -33 19 -54 69 -69c57 16 94 44 94 90c0 31 -25 55 -67 55c-52 0 -96 -33 -96 -76z" />
    <glyph glyph-name="nine.denominator" horiz-adv-x="354" 
d="M58 -17l-21 35c131 47 199 103 227 171c-24 -23 -61 -40 -100 -40c-75 0 -123 42 -123 111c0 75 58 142 144 142c83 0 132 -48 132 -132c0 -124 -77 -219 -259 -287zM167 190c45 0 77 15 108 42c2 13 4 27 4 41c0 56 -34 90 -94 90s-102 -47 -102 -104
c0 -41 33 -69 84 -69z" />
    <glyph glyph-name="zero.scprop" horiz-adv-x="528" 
d="M218 -16c-99 0 -160 74 -160 204c0 207 115 337 256 337c99 0 160 -72 160 -201c0 -208 -115 -340 -256 -340zM217 25c124 0 214 126 214 304c0 101 -43 155 -116 155c-125 0 -213 -123 -213 -301c0 -101 42 -158 115 -158z" />
    <glyph glyph-name="one.scprop" horiz-adv-x="283" 
d="M125 0h-43l100 471l-90 -3l16 44h126z" />
    <glyph glyph-name="two.scprop" horiz-adv-x="489" 
d="M267 172c-43 -35 -117 -92 -171 -129h278l-14 -43h-349l7 35c66 45 153 110 223 167c92 75 138 123 138 199c0 44 -30 80 -92 80c-59 0 -114 -17 -173 -57l27 64c42 24 95 37 149 37c92 0 134 -56 134 -123c0 -65 -29 -125 -157 -230z" />
    <glyph glyph-name="three.scprop" horiz-adv-x="473" 
d="M408 407c0 -61 -42 -117 -111 -139c48 -20 75 -56 75 -111c0 -103 -91 -171 -210 -171c-64 0 -111 11 -143 32l7 43c37 -24 75 -34 133 -34c102 0 169 57 169 129c0 52 -40 88 -118 88c-44 0 -87 -4 -119 -9l21 53c20 -3 47 -3 71 -3c106 0 181 45 181 123
c0 43 -31 76 -92 76c-56 0 -96 -9 -141 -34l23 54c34 14 75 21 120 21c90 0 134 -51 134 -118z" />
    <glyph glyph-name="four.scprop" horiz-adv-x="504" 
d="M266 0l31 147h-288l4 20l353 345h50l-69 -323h88l-9 -42h-88l-31 -147h-41zM89 189h217l57 268z" />
    <glyph glyph-name="five.scprop" horiz-adv-x="457" 
d="M426 512l-15 -42h-216l-47 -137c10 2 28 3 41 3c121 0 180 -63 180 -144c0 -140 -120 -226 -342 -226c-9 0 -23 1 -30 2l16 46c11 -2 28 -3 40 -3c172 0 271 76 271 180c0 59 -45 103 -135 103c-35 0 -69 -3 -101 -8l76 226h262z" />
    <glyph glyph-name="six.scprop" horiz-adv-x="518" 
d="M454 500c-174 -15 -291 -111 -339 -224c45 39 98 61 160 61c95 0 154 -57 154 -147c0 -111 -96 -204 -216 -204c-109 0 -163 66 -163 171c0 177 140 372 424 393zM272 296c-68 0 -124 -25 -173 -68c-6 -24 -9 -48 -9 -71c0 -81 45 -130 127 -130c84 0 167 72 167 163
c0 62 -43 106 -112 106z" />
    <glyph glyph-name="seven.scprop" horiz-adv-x="436" 
d="M102 512h346c-120 -176 -237 -367 -298 -512h-53c79 165 199 351 282 470l-307 -5z" />
    <glyph glyph-name="eight.scprop" horiz-adv-x="519" 
d="M416 142c0 -83 -76 -155 -199 -155c-107 0 -163 50 -163 124s58 125 156 152c-47 26 -76 64 -76 122c0 77 83 140 179 140c92 0 139 -50 139 -117s-44 -114 -130 -145c61 -23 94 -64 94 -121zM371 138c0 52 -32 86 -108 107c-107 -22 -166 -71 -166 -129
c0 -50 43 -88 119 -88c98 0 155 51 155 110zM178 382c0 -49 25 -80 92 -104c83 25 139 61 139 129c0 45 -35 78 -95 78c-74 0 -136 -44 -136 -103z" />
    <glyph glyph-name="nine.scprop" horiz-adv-x="500" 
d="M116 -19l-20 37c165 63 252 138 288 228c-36 -36 -85 -59 -143 -59c-95 0 -154 56 -154 148c0 102 89 190 200 190c102 0 159 -62 159 -167c0 -159 -96 -286 -330 -377zM244 230c64 0 109 23 155 64c5 22 7 45 7 68c0 77 -40 122 -119 122c-90 0 -156 -68 -156 -149
c0 -63 44 -105 113 -105z" />
    <glyph glyph-name="zero.sctab" horiz-adv-x="460" 
d="M184 -16c-99 0 -160 73 -160 204c0 206 115 337 256 337c99 0 160 -71 160 -202c0 -206 -115 -339 -256 -339zM183 25c124 0 214 126 214 303c0 102 -43 156 -116 156c-125 0 -213 -123 -213 -301c0 -101 42 -158 115 -158z" />
    <glyph glyph-name="one.sctab" horiz-adv-x="460" 
d="M72 0l9 43h100l91 428l-90 -3l16 44h126l-100 -469h100l-9 -43h-243z" />
    <glyph glyph-name="two.sctab" horiz-adv-x="460" 
d="M254 172c-43 -35 -117 -92 -171 -129h278l-14 -43h-349l7 35c66 45 153 110 223 167c92 75 138 123 138 199c0 44 -30 80 -92 80c-59 0 -114 -17 -173 -57l27 64c42 24 95 37 149 37c92 0 134 -56 134 -123c0 -65 -29 -125 -157 -230z" />
    <glyph glyph-name="three.sctab" horiz-adv-x="460" 
d="M405 408c0 -61 -42 -118 -111 -140c48 -20 75 -56 75 -111c0 -103 -91 -171 -210 -171c-64 0 -111 11 -143 32l7 43c37 -24 75 -34 133 -34c102 0 169 57 169 129c0 52 -40 88 -118 88c-44 0 -87 -4 -119 -9l21 53c20 -3 47 -3 71 -3c106 0 181 46 181 124
c0 43 -31 75 -92 75c-56 0 -96 -9 -141 -34l23 54c34 14 75 21 120 21c90 0 134 -50 134 -117z" />
    <glyph glyph-name="four.sctab" horiz-adv-x="460" 
d="M256 0l31 147h-288l4 20l353 345h50l-69 -323h88l-9 -42h-88l-31 -147h-41zM79 189h217l57 268z" />
    <glyph glyph-name="five.sctab" horiz-adv-x="460" 
d="M437 512l-15 -42h-216l-47 -137c10 2 28 3 41 3c121 0 180 -63 180 -144c0 -140 -120 -226 -342 -226c-9 0 -23 1 -30 2l16 46c11 -2 28 -3 40 -3c172 0 271 76 271 180c0 59 -45 103 -135 103c-35 0 -69 -3 -101 -8l76 226h262z" />
    <glyph glyph-name="six.sctab" horiz-adv-x="460" 
d="M430 500c-174 -15 -291 -111 -339 -224c45 39 98 61 160 61c95 0 154 -57 154 -147c0 -111 -96 -204 -216 -204c-109 0 -163 66 -163 171c0 177 140 372 424 393zM248 296c-68 0 -124 -25 -173 -68c-6 -24 -9 -48 -9 -71c0 -81 45 -130 127 -130c84 0 167 72 167 163
c0 62 -43 106 -112 106z" />
    <glyph glyph-name="seven.sctab" horiz-adv-x="460" 
d="M114 512h346c-120 -176 -237 -367 -298 -512h-53c79 165 199 351 282 470l-307 -5z" />
    <glyph glyph-name="eight.sctab" horiz-adv-x="460" 
d="M386 142c0 -83 -76 -155 -199 -155c-107 0 -163 50 -163 124s58 125 156 152c-47 26 -76 64 -76 122c0 77 83 140 179 140c92 0 139 -50 139 -117s-44 -114 -130 -145c61 -23 94 -64 94 -121zM341 138c0 52 -32 86 -108 107c-107 -22 -166 -71 -166 -129
c0 -50 43 -88 119 -88c98 0 155 51 155 110zM148 382c0 -49 25 -80 92 -104c83 25 139 61 139 129c0 45 -35 78 -95 78c-74 0 -136 -44 -136 -103z" />
    <glyph glyph-name="nine.sctab" horiz-adv-x="460" 
d="M96 -19l-20 37c165 63 252 138 288 228c-36 -36 -85 -59 -143 -59c-95 0 -154 56 -154 148c0 102 89 190 200 190c102 0 159 -62 159 -167c0 -159 -96 -286 -330 -377zM224 230c64 0 109 23 155 64c5 22 7 45 7 68c0 77 -40 122 -119 122c-90 0 -156 -68 -156 -149
c0 -63 44 -105 113 -105z" />
    <glyph glyph-name="a.sc" horiz-adv-x="523" 
d="M420 0l-45 205h-229l-139 -205h-53l349 509l43 7l119 -516h-45zM318 460l-144 -213h192z" />
    <glyph glyph-name="b.sc" horiz-adv-x="487" 
d="M427 401c0 -53 -37 -103 -98 -128c49 -19 74 -57 74 -109c0 -96 -87 -164 -206 -164h-147l109 512h133c90 0 135 -49 135 -111zM146 250l-44 -208h96c99 0 160 56 160 122c0 49 -37 86 -109 86h-103zM193 471l-38 -180h103c75 0 125 58 125 110c0 40 -30 70 -92 70h-98z
" />
    <glyph glyph-name="c.sc" horiz-adv-x="546" 
d="M455 97l-22 -69c-44 -27 -106 -41 -157 -41c-140 0 -229 89 -229 222c0 179 144 316 312 316c81 0 131 -15 171 -41l-20 -52h-3c-27 34 -77 49 -148 49c-152 0 -268 -122 -268 -272c0 -111 74 -178 185 -178c58 0 119 17 176 66h3z" />
    <glyph glyph-name="d.sc" horiz-adv-x="566" 
d="M187 0h-137l109 512h123c161 0 243 -86 243 -208c0 -181 -118 -304 -338 -304zM193 471l-91 -429h86c190 0 292 107 292 261c0 94 -65 168 -199 168h-88z" />
    <glyph glyph-name="e.sc" horiz-adv-x="466" 
d="M193 469l-38 -178h225l-9 -42h-225l-44 -207h256l-9 -42h-299l109 512h289l-9 -43h-246z" />
    <glyph glyph-name="f.sc" horiz-adv-x="431" 
d="M193 469l-39 -183h225l-9 -42h-225l-52 -244h-43l109 512h299l-9 -43h-256z" />
    <glyph glyph-name="g.sc" horiz-adv-x="572" 
d="M502 248l-39 -185c-53 -49 -132 -76 -198 -76c-134 0 -219 91 -219 222c0 171 139 316 313 316c82 0 137 -22 175 -55l-19 -48h-3c-36 42 -94 59 -153 59c-159 0 -268 -125 -268 -271c0 -110 69 -179 174 -179c66 0 116 22 161 59l33 158h43z" />
    <glyph glyph-name="h.sc" horiz-adv-x="601" 
d="M93 0h-43l109 512h43l-47 -220h311l47 220h43l-109 -512h-43l53 250h-311z" />
    <glyph glyph-name="i.sc" horiz-adv-x="247" 
d="M93 0h-43l109 512h43z" />
    <glyph glyph-name="j.sc" horiz-adv-x="247" 
d="M161 512h43l-83 -391c-32 -150 -69 -227 -136 -284l-101 -34l-3 11c109 57 159 129 197 308z" />
    <glyph glyph-name="k.sc" horiz-adv-x="551" 
d="M93 0h-43l109 512h43l-53 -248l340 248h75l-354 -253l276 -259h-66l-271 261z" />
    <glyph glyph-name="l.sc" horiz-adv-x="451" 
d="M50 0l109 512h43l-100 -470h296l-9 -42h-339z" />
    <glyph glyph-name="m.sc" horiz-adv-x="759" 
d="M605 0h-43l95 448l-309 -448h-37l-119 469l-99 -469h-43l109 512h63l115 -454l314 454h63z" />
    <glyph glyph-name="n.sc" horiz-adv-x="666" 
d="M159 512h50l272 -456l97 456h43l-109 -512h-47l-274 459l-98 -459h-43z" />
    <glyph glyph-name="o.sc" horiz-adv-x="602" 
d="M255 29c147 4 259 132 259 287c0 97 -65 165 -163 165c-141 0 -261 -123 -261 -274c0 -103 64 -178 165 -178zM255 -15c-128 0 -209 94 -209 222c0 177 144 318 305 318c128 0 208 -86 208 -212c0 -169 -129 -328 -304 -328z" />
    <glyph glyph-name="p.sc" horiz-adv-x="445" 
d="M93 0h-43l109 512h107c109 0 171 -46 171 -129c0 -114 -81 -181 -228 -181h-73zM193 470l-48 -226h73c112 0 175 51 175 139c0 56 -47 87 -131 87h-69z" />
    <glyph glyph-name="q.sc" horiz-adv-x="582" 
d="M247 -1c-23 0 -45 4 -65 11l-1 -3c79 -44 134 -79 234 -83l-25 -44c-71 8 -124 29 -229 95c-19 12 -37 21 -54 28l28 32c-53 40 -85 109 -85 188c0 167 138 302 292 302c122 0 200 -91 200 -214c0 -173 -139 -312 -295 -312zM497 311c0 98 -60 170 -156 170
c-133 0 -247 -115 -247 -257c0 -107 63 -181 154 -181c134 0 249 121 249 268z" />
    <glyph glyph-name="r.sc" horiz-adv-x="504" 
d="M50 0l109 512h135c97 0 150 -42 150 -118c0 -94 -55 -145 -149 -166l147 -228h-55l-136 221c-24 -3 -50 -4 -78 -4h-34l-46 -217h-43zM193 470l-45 -211h26c149 0 225 38 225 134c0 49 -37 77 -107 77h-99z" />
    <glyph glyph-name="s.sc" horiz-adv-x="448" 
d="M25 81c35 -35 78 -52 149 -52c88 0 146 43 146 106c0 51 -27 85 -101 114c-79 32 -117 67 -117 134c0 79 73 142 170 142c56 0 99 -12 139 -34l-12 -52c-35 30 -81 44 -127 44c-81 0 -126 -45 -126 -99c0 -41 27 -68 95 -97c86 -37 123 -81 123 -147
c0 -100 -86 -153 -194 -153c-64 0 -121 14 -152 36z" />
    <glyph glyph-name="t.sc" horiz-adv-x="467" 
d="M203 0h-43l100 470h-202l9 42h447l-9 -42h-202z" />
    <glyph glyph-name="u.sc" horiz-adv-x="578" 
d="M153 512h43l-69 -324c-3 -14 -5 -33 -5 -47c0 -78 52 -113 121 -113c82 0 160 49 184 160l69 324h43l-69 -324c-30 -141 -124 -202 -227 -202c-96 0 -165 49 -165 155c0 12 3 35 6 47z" />
    <glyph glyph-name="v.sc" horiz-adv-x="530" 
d="M72 512h43l101 -456l305 456h51l-346 -512h-38z" />
    <glyph glyph-name="w.sc" horiz-adv-x="732" 
d="M422 0l-47 292l-177 -292h-38l-88 512h45l72 -450l176 290l-25 160h43l66 -454l274 454h51l-314 -512h-38z" />
    <glyph glyph-name="x.sc" horiz-adv-x="575" 
d="M-43 0l305 279l-151 233h53l126 -206l214 206h66l-259 -240l182 -272h-53l-157 245l-260 -245h-66z" />
    <glyph glyph-name="y.sc" horiz-adv-x="516" 
d="M563 512l-295 -291l-47 -221h-43l47 222l-157 290h48l134 -253l249 253h64z" />
    <glyph glyph-name="z.sc" horiz-adv-x="539" 
d="M445 0h-477l485 470h-349l13 42h438l-487 -470h393z" />
    <glyph glyph-name="agrave.sc" horiz-adv-x="523" 
d="M420 0l-45 205h-229l-139 -205h-53l349 509l43 7l119 -516h-45zM318 460l-144 -213h192zM364 601l-94 149h61l59 -149h-26z" />
    <glyph glyph-name="aacute.sc" horiz-adv-x="523" 
d="M420 0l-45 205h-229l-139 -205h-53l349 509l43 7l119 -516h-45zM318 460l-144 -213h192zM482 750l-148 -149h-35l115 149h68z" />
    <glyph glyph-name="acircumflex.sc" horiz-adv-x="523" 
d="M420 0l-45 205h-229l-139 -205h-53l349 509l43 7l119 -516h-45zM318 460l-144 -213h192zM434 601l-66 91l-102 -91h-40l136 149h30l72 -149h-30z" />
    <glyph glyph-name="atilde.sc" horiz-adv-x="523" 
d="M420 0l-45 205h-229l-139 -205h-53l349 509l43 7l119 -516h-45zM318 460l-144 -213h192zM295 676c-28 0 -51 -24 -59 -56l-24 6c16 63 51 99 88 99c44 0 82 -54 116 -54c29 0 50 23 59 56l24 -6c-16 -63 -51 -99 -88 -99c-44 0 -82 54 -116 54z" />
    <glyph glyph-name="adieresis.sc" horiz-adv-x="523" 
d="M420 0l-45 205h-229l-139 -205h-53l349 509l43 7l119 -516h-45zM318 460l-144 -213h192zM284 709c19 0 32 -13 32 -31c0 -25 -19 -42 -43 -42c-20 0 -32 12 -32 30c0 25 18 43 43 43zM447 709c19 0 32 -13 32 -31c0 -25 -19 -42 -43 -42c-20 0 -32 12 -32 30
c0 25 18 43 43 43z" />
    <glyph glyph-name="amacron.sc" horiz-adv-x="523" 
d="M420 0l-45 205h-229l-139 -205h-53l349 509l43 7l119 -516h-45zM318 460l-144 -213h192zM491 693l-9 -42h-254l9 42h254z" />
    <glyph glyph-name="abreve.sc" horiz-adv-x="523" 
d="M420 0l-45 205h-229l-139 -205h-53l349 509l43 7l119 -516h-45zM318 460l-144 -213h192zM353 654c56 0 86 33 97 86h38c-13 -64 -56 -129 -141 -129c-65 0 -91 38 -91 87c0 15 1 26 4 42h32c-2 -10 -3 -19 -3 -28c0 -36 19 -58 64 -58z" />
    <glyph glyph-name="aring.sc" horiz-adv-x="523" 
d="M420 0l-45 205h-229l-139 -205h-53l349 509l43 7l119 -516h-45zM318 460l-144 -213h192zM266 674c0 55 54 103 108 103c48 0 82 -37 82 -83c0 -55 -53 -103 -107 -103c-47 0 -83 37 -83 83zM302 674c0 -27 19 -48 47 -48c36 0 72 31 72 68c0 27 -19 48 -47 48
c-36 0 -72 -31 -72 -68z" />
    <glyph glyph-name="aogonek.sc" horiz-adv-x="523" 
d="M420 0l-45 205h-229l-139 -205h-53l349 509l43 7l119 -516c-115 -86 -142 -119 -142 -166c0 -17 13 -29 35 -29s43 8 61 27h2l-16 -53c-16 -11 -34 -16 -54 -16c-45 0 -73 22 -73 67c0 59 45 99 142 170zM318 460l-144 -213h192z" />
    <glyph glyph-name="ae.sc" horiz-adv-x="674" 
d="M401 469l-38 -178h225l-9 -42h-225l-44 -207h256l-9 -42h-299l39 185h-171l-144 -185h-53l403 512h324l-9 -43h-246zM158 225h148l52 244h-10z" />
    <glyph glyph-name="cacute.sc" horiz-adv-x="546" 
d="M455 97l-22 -69c-44 -27 -106 -41 -157 -41c-140 0 -229 89 -229 222c0 179 144 316 312 316c81 0 131 -15 171 -41l-20 -52h-3c-27 34 -77 49 -148 49c-152 0 -268 -122 -268 -272c0 -111 74 -178 185 -178c58 0 119 17 176 66h3zM508 750l-148 -149h-35l115 149h68z
" />
    <glyph glyph-name="ccircumflex.sc" horiz-adv-x="546" 
d="M455 97l-22 -69c-44 -27 -106 -41 -157 -41c-140 0 -229 89 -229 222c0 179 144 316 312 316c81 0 131 -15 171 -41l-20 -52h-3c-27 34 -77 49 -148 49c-152 0 -268 -122 -268 -272c0 -111 74 -178 185 -178c58 0 119 17 176 66h3zM460 601l-66 91l-102 -91h-40l136 149
h30l72 -149h-30z" />
    <glyph glyph-name="ccaron.sc" horiz-adv-x="546" 
d="M455 97l-22 -69c-44 -27 -106 -41 -157 -41c-140 0 -229 89 -229 222c0 179 144 316 312 316c81 0 131 -15 171 -41l-20 -52h-3c-27 34 -77 49 -148 49c-152 0 -268 -122 -268 -272c0 -111 74 -178 185 -178c58 0 119 17 176 66h3zM284 750h30l65 -91l103 91h40
l-136 -149h-30z" />
    <glyph glyph-name="ccedilla.sc" horiz-adv-x="546" 
d="M455 97l-22 -69c-44 -27 -106 -41 -157 -41h-5l-34 -48c3 1 8 2 13 2c47 0 74 -29 74 -70c0 -50 -53 -89 -116 -89c-34 0 -62 10 -78 27l12 41c11 -19 35 -29 65 -29c50 0 72 22 72 49c0 22 -17 39 -50 39c-21 0 -39 -4 -54 -10l-1 2l61 89c-116 15 -188 99 -188 219
c0 179 144 316 312 316c81 0 131 -15 171 -41l-20 -52h-3c-27 34 -77 49 -148 49c-152 0 -268 -122 -268 -272c0 -111 74 -178 185 -178c58 0 119 17 176 66h3z" />
    <glyph glyph-name="cdotaccent.sc" horiz-adv-x="546" 
d="M455 97l-22 -69c-44 -27 -106 -41 -157 -41c-140 0 -229 89 -229 222c0 179 144 316 312 316c81 0 131 -15 171 -41l-20 -52h-3c-27 34 -77 49 -148 49c-152 0 -268 -122 -268 -272c0 -111 74 -178 185 -178c58 0 119 17 176 66h3zM392 709c19 0 32 -13 32 -31
c0 -25 -19 -42 -43 -42c-20 0 -32 12 -32 30c0 25 18 43 43 43z" />
    <glyph glyph-name="dcaron.sc" horiz-adv-x="566" 
d="M187 0h-137l109 512h123c161 0 243 -86 243 -208c0 -181 -118 -304 -338 -304zM193 471l-91 -429h86c190 0 292 107 292 261c0 94 -65 168 -199 168h-88zM243 750h30l65 -91l103 91h40l-136 -149h-30z" />
    <glyph glyph-name="dcroat.sc" horiz-adv-x="566" 
d="M187 0h-137l52 245h-70l9 40h69l49 227h123c161 0 243 -86 243 -208c0 -181 -118 -304 -338 -304zM193 471l-40 -186h135l-9 -40h-134l-43 -203h86c190 0 292 107 292 261c0 94 -65 168 -199 168h-88z" />
    <glyph glyph-name="eth.sc" horiz-adv-x="566" 
d="M187 0h-137l52 245h-70l9 40h69l49 227h123c161 0 243 -86 243 -208c0 -181 -118 -304 -338 -304zM193 471l-40 -186h135l-9 -40h-134l-43 -203h86c190 0 292 107 292 261c0 94 -65 168 -199 168h-88z" />
    <glyph glyph-name="egrave.sc" horiz-adv-x="466" 
d="M193 469l-38 -178h225l-9 -42h-225l-44 -207h256l-9 -42h-299l109 512h289l-9 -43h-246zM332 601l-94 149h61l59 -149h-26z" />
    <glyph glyph-name="eacute.sc" horiz-adv-x="466" 
d="M193 469l-38 -178h225l-9 -42h-225l-44 -207h256l-9 -42h-299l109 512h289l-9 -43h-246zM450 750l-148 -149h-35l115 149h68z" />
    <glyph glyph-name="ecircumflex.sc" horiz-adv-x="466" 
d="M193 469l-38 -178h225l-9 -42h-225l-44 -207h256l-9 -42h-299l109 512h289l-9 -43h-246zM402 601l-66 91l-102 -91h-40l136 149h30l72 -149h-30z" />
    <glyph glyph-name="edieresis.sc" horiz-adv-x="466" 
d="M193 469l-38 -178h225l-9 -42h-225l-44 -207h256l-9 -42h-299l109 512h289l-9 -43h-246zM252 709c19 0 32 -13 32 -31c0 -25 -19 -42 -43 -42c-20 0 -32 12 -32 30c0 25 18 43 43 43zM415 709c19 0 32 -13 32 -31c0 -25 -19 -42 -43 -42c-20 0 -32 12 -32 30
c0 25 18 43 43 43z" />
    <glyph glyph-name="emacron.sc" horiz-adv-x="466" 
d="M193 469l-38 -178h225l-9 -42h-225l-44 -207h256l-9 -42h-299l109 512h289l-9 -43h-246zM459 693l-9 -42h-254l9 42h254z" />
    <glyph glyph-name="ebreve.sc" horiz-adv-x="466" 
d="M193 469l-38 -178h225l-9 -42h-225l-44 -207h256l-9 -42h-299l109 512h289l-9 -43h-246zM321 654c56 0 86 33 97 86h38c-13 -64 -56 -129 -141 -129c-65 0 -91 38 -91 87c0 15 1 26 4 42h32c-2 -10 -3 -19 -3 -28c0 -36 19 -58 64 -58z" />
    <glyph glyph-name="edotaccent.sc" horiz-adv-x="466" 
d="M193 469l-38 -178h225l-9 -42h-225l-44 -207h256l-9 -42h-299l109 512h289l-9 -43h-246zM334 709c19 0 32 -13 32 -31c0 -25 -19 -42 -43 -42c-20 0 -32 12 -32 30c0 25 18 43 43 43z" />
    <glyph glyph-name="ecaron.sc" horiz-adv-x="466" 
d="M193 469l-38 -178h225l-9 -42h-225l-44 -207h256l-9 -42h-299l109 512h289l-9 -43h-246zM226 750h30l65 -91l103 91h40l-136 -149h-30z" />
    <glyph glyph-name="eogonek.sc" horiz-adv-x="466" 
d="M306 0h-256l109 512h289l-9 -43h-246l-38 -178h225l-9 -42h-225l-44 -207h256l-9 -42c-109 -86 -136 -119 -136 -166c0 -17 13 -29 35 -29s43 8 61 27h2l-16 -53c-16 -11 -34 -16 -54 -16c-45 0 -73 22 -73 67c0 59 43 99 138 170z" />
    <glyph glyph-name="gcircumflex.sc" horiz-adv-x="572" 
d="M502 248l-39 -185c-53 -49 -132 -76 -198 -76c-134 0 -219 91 -219 222c0 171 139 316 313 316c82 0 137 -22 175 -55l-19 -48h-3c-36 42 -94 59 -153 59c-159 0 -268 -125 -268 -271c0 -110 69 -179 174 -179c66 0 116 22 161 59l33 158h43zM460 601l-66 91l-102 -91
h-40l136 149h30l72 -149h-30z" />
    <glyph glyph-name="gbreve.sc" horiz-adv-x="572" 
d="M502 248l-39 -185c-53 -49 -132 -76 -198 -76c-134 0 -219 91 -219 222c0 171 139 316 313 316c82 0 137 -22 175 -55l-19 -48h-3c-36 42 -94 59 -153 59c-159 0 -268 -125 -268 -271c0 -110 69 -179 174 -179c66 0 116 22 161 59l33 158h43zM379 654c56 0 86 33 97 86
h38c-13 -64 -56 -129 -141 -129c-65 0 -91 38 -91 87c0 15 1 26 4 42h32c-2 -10 -3 -19 -3 -28c0 -36 19 -58 64 -58z" />
    <glyph glyph-name="gdotaccent.sc" horiz-adv-x="572" 
d="M502 248l-39 -185c-53 -49 -132 -76 -198 -76c-134 0 -219 91 -219 222c0 171 139 316 313 316c82 0 137 -22 175 -55l-19 -48h-3c-36 42 -94 59 -153 59c-159 0 -268 -125 -268 -271c0 -110 69 -179 174 -179c66 0 116 22 161 59l33 158h43zM392 709c19 0 32 -13 32 -31
c0 -25 -19 -42 -43 -42c-20 0 -32 12 -32 30c0 25 18 43 43 43z" />
    <glyph glyph-name="gcommaaccent.sc" horiz-adv-x="572" 
d="M502 248l-39 -185c-53 -49 -132 -76 -198 -76c-134 0 -219 91 -219 222c0 171 139 316 313 316c82 0 137 -22 175 -55l-19 -48h-3c-36 42 -94 59 -153 59c-159 0 -268 -125 -268 -271c0 -110 69 -179 174 -179c66 0 116 22 161 59l33 158h43zM268 -69c3 -9 5 -21 5 -32
c0 -37 -15 -70 -101 -136h-42c82 67 95 97 95 126c0 9 -2 20 -5 28z" />
    <glyph glyph-name="hcircumflex.sc" horiz-adv-x="601" 
d="M93 0h-43l109 512h43l-47 -220h311l47 220h43l-109 -512h-43l53 250h-311zM454 601l-66 91l-102 -91h-40l136 149h30l72 -149h-30z" />
    <glyph glyph-name="hbar.sc" horiz-adv-x="601" 
d="M93 0h-43l80 375h-70l9 40h69l21 97h43l-21 -97h311l21 97h43l-21 -97h71l-9 -40h-70l-80 -375h-43l53 250h-311zM155 292h311l17 83h-311z" />
    <glyph glyph-name="igrave.sc" horiz-adv-x="247" 
d="M93 0h-43l109 512h43zM218 601l-94 149h61l59 -149h-26z" />
    <glyph glyph-name="iacute.sc" horiz-adv-x="247" 
d="M93 0h-43l109 512h43zM336 750l-148 -149h-35l115 149h68z" />
    <glyph glyph-name="icircumflex.sc" horiz-adv-x="247" 
d="M93 0h-43l109 512h43zM288 601l-66 91l-102 -91h-40l136 149h30l72 -149h-30z" />
    <glyph glyph-name="itilde.sc" horiz-adv-x="247" 
d="M165 676c-26 0 -47 -24 -55 -56l-24 6c16 63 49 99 84 99c40 0 72 -54 104 -54c27 0 47 23 55 56l24 -6c-16 -63 -49 -99 -84 -99c-40 0 -72 54 -104 54zM93 0h-43l109 512h43z" />
    <glyph glyph-name="idieresis.sc" horiz-adv-x="247" 
d="M148 709c19 0 32 -13 32 -31c0 -25 -19 -42 -43 -42c-20 0 -32 12 -32 30c0 25 18 43 43 43zM291 709c20 0 32 -13 32 -31c0 -25 -19 -42 -43 -42c-20 0 -32 12 -32 30c0 25 18 43 43 43zM93 0h-43l109 512h43z" />
    <glyph glyph-name="imacron.sc" horiz-adv-x="247" 
d="M325 693l-9 -42h-214l9 42h214zM93 0h-43l109 512h43z" />
    <glyph glyph-name="ibreve.sc" horiz-adv-x="247" 
d="M93 0h-43l109 512h43zM207 654c56 0 86 33 97 86h38c-13 -64 -56 -129 -141 -129c-65 0 -91 38 -91 87c0 15 1 26 4 42h32c-2 -10 -3 -19 -3 -28c0 -36 19 -58 64 -58z" />
    <glyph glyph-name="idotaccent.sc" horiz-adv-x="247" 
d="M93 0h-43l109 512h43zM220 709c19 0 32 -13 32 -31c0 -25 -19 -42 -43 -42c-20 0 -32 12 -32 30c0 25 18 43 43 43z" />
    <glyph glyph-name="iogonek.sc" horiz-adv-x="247" 
d="M93 0c-95 -86 -118 -119 -118 -166c0 -17 13 -29 35 -29s43 8 61 27h2l-16 -53c-16 -11 -34 -16 -54 -16c-45 0 -73 22 -73 67c0 59 38 99 120 170l109 512h43z" />
    <glyph glyph-name="ij.sc" horiz-adv-x="460" 
d="M93 0h-43l109 512h43zM374 512h43l-83 -391c-32 -150 -69 -227 -136 -284l-101 -34l-3 11c109 57 159 129 197 308z" />
    <glyph glyph-name="jcircumflex.sc" horiz-adv-x="247" 
d="M161 512h43l-83 -391c-32 -150 -69 -227 -136 -284l-101 -34l-3 11c109 57 159 129 197 308zM290 601l-66 91l-102 -91h-40l136 149h30l72 -149h-30z" />
    <glyph glyph-name="kcommaaccent.sc" horiz-adv-x="551" 
d="M93 0h-43l109 512h43l-53 -248l340 248h75l-354 -253l276 -259h-66l-271 261zM235 -69c3 -9 5 -21 5 -32c0 -37 -15 -70 -101 -136h-42c82 67 95 97 95 126c0 9 -2 20 -5 28z" />
    <glyph glyph-name="lacute.sc" horiz-adv-x="451" 
d="M50 0l109 512h43l-100 -470h296l-9 -42h-339zM366 750l-148 -149h-35l115 149h68z" />
    <glyph glyph-name="lcaron.sc" horiz-adv-x="451" 
d="M50 0l109 512h43l-100 -470h296l-9 -42h-339zM359 521c3 -10 4 -23 4 -35c0 -46 -22 -85 -90 -153h-33c49 60 75 92 75 142c0 10 -2 23 -4 32z" />
    <glyph glyph-name="lcommaaccent.sc" horiz-adv-x="451" 
d="M50 0l109 512h43l-100 -470h296l-9 -42h-339zM228 -69c3 -9 5 -21 5 -32c0 -37 -15 -70 -101 -136h-42c82 67 95 97 95 126c0 9 -2 20 -5 28z" />
    <glyph glyph-name="ldot.sc" horiz-adv-x="451" 
d="M50 0l109 512h43l-100 -470h296l-9 -42h-339zM365 346c19 0 32 -13 32 -31c0 -25 -19 -42 -43 -42c-20 0 -32 12 -32 30c0 25 18 43 43 43z" />
    <glyph glyph-name="lslash.sc" horiz-adv-x="451" 
d="M50 0l45 213l-80 -46l11 49l80 46l53 250h43l-47 -222l137 80l-10 -49l-138 -80l-42 -199h296l-9 -42h-339z" />
    <glyph glyph-name="nacute.sc" horiz-adv-x="666" 
d="M159 512h50l272 -456l97 456h43l-109 -512h-47l-274 459l-98 -459h-43zM546 750l-148 -149h-35l115 149h68z" />
    <glyph glyph-name="ncaron.sc" horiz-adv-x="666" 
d="M159 512h50l272 -456l97 456h43l-109 -512h-47l-274 459l-98 -459h-43zM322 750h30l65 -91l103 91h40l-136 -149h-30z" />
    <glyph glyph-name="ntilde.sc" horiz-adv-x="666" 
d="M159 512h50l272 -456l97 456h43l-109 -512h-47l-274 459l-98 -459h-43zM359 676c-28 0 -51 -24 -59 -56l-24 6c16 63 51 99 88 99c44 0 82 -54 116 -54c29 0 50 23 59 56l24 -6c-16 -63 -51 -99 -88 -99c-44 0 -82 54 -116 54z" />
    <glyph glyph-name="ncommaaccent.sc" horiz-adv-x="666" 
d="M159 512h50l272 -456l97 456h43l-109 -512h-47l-274 459l-98 -459h-43zM290 -69c3 -9 5 -21 5 -32c0 -37 -15 -70 -101 -136h-42c82 67 95 97 95 126c0 9 -2 20 -5 28z" />
    <glyph glyph-name="eng.sc" horiz-adv-x="666" 
d="M521 42l-9 -42l-16 -77c-21 -100 -73 -160 -149 -160c-28 0 -52 7 -69 18l4 49c17 -18 35 -25 66 -25c49 0 88 41 105 119l15 71l-9 15l-268 449l-98 -459h-43l109 512h50l272 -455l97 455h43z" />
    <glyph glyph-name="ograve.sc" horiz-adv-x="602" 
d="M255 29c147 4 259 132 259 287c0 97 -65 165 -163 165c-141 0 -261 -123 -261 -274c0 -103 64 -178 165 -178zM255 -15c-128 0 -209 94 -209 222c0 177 144 318 305 318c128 0 208 -86 208 -212c0 -169 -129 -328 -304 -328zM386 601l-94 149h61l59 -149h-26z" />
    <glyph glyph-name="oacute.sc" horiz-adv-x="602" 
d="M255 29c147 4 259 132 259 287c0 97 -65 165 -163 165c-141 0 -261 -123 -261 -274c0 -103 64 -178 165 -178zM255 -15c-128 0 -209 94 -209 222c0 177 144 318 305 318c128 0 208 -86 208 -212c0 -169 -129 -328 -304 -328zM504 750l-148 -149h-35l115 149h68z" />
    <glyph glyph-name="ocircumflex.sc" horiz-adv-x="602" 
d="M255 29c147 4 259 132 259 287c0 97 -65 165 -163 165c-141 0 -261 -123 -261 -274c0 -103 64 -178 165 -178zM255 -15c-128 0 -209 94 -209 222c0 177 144 318 305 318c128 0 208 -86 208 -212c0 -169 -129 -328 -304 -328zM456 601l-66 91l-102 -91h-40l136 149h30
l72 -149h-30z" />
    <glyph glyph-name="otilde.sc" horiz-adv-x="602" 
d="M255 29c147 4 259 132 259 287c0 97 -65 165 -163 165c-141 0 -261 -123 -261 -274c0 -103 64 -178 165 -178zM255 -15c-128 0 -209 94 -209 222c0 177 144 318 305 318c128 0 208 -86 208 -212c0 -169 -129 -328 -304 -328zM317 676c-28 0 -51 -24 -59 -56l-24 6
c16 63 51 99 88 99c44 0 82 -54 116 -54c29 0 50 23 59 56l24 -6c-16 -63 -51 -99 -88 -99c-44 0 -82 54 -116 54z" />
    <glyph glyph-name="odieresis.sc" horiz-adv-x="602" 
d="M255 29c147 4 259 132 259 287c0 97 -65 165 -163 165c-141 0 -261 -123 -261 -274c0 -103 64 -178 165 -178zM255 -15c-128 0 -209 94 -209 222c0 177 144 318 305 318c128 0 208 -86 208 -212c0 -169 -129 -328 -304 -328zM306 709c19 0 32 -13 32 -31
c0 -25 -19 -42 -43 -42c-20 0 -32 12 -32 30c0 25 18 43 43 43zM469 709c19 0 32 -13 32 -31c0 -25 -19 -42 -43 -42c-20 0 -32 12 -32 30c0 25 18 43 43 43z" />
    <glyph glyph-name="omacron.sc" horiz-adv-x="602" 
d="M255 29c147 4 259 132 259 287c0 97 -65 165 -163 165c-141 0 -261 -123 -261 -274c0 -103 64 -178 165 -178zM255 -15c-128 0 -209 94 -209 222c0 177 144 318 305 318c128 0 208 -86 208 -212c0 -169 -129 -328 -304 -328zM513 693l-9 -42h-254l9 42h254z" />
    <glyph glyph-name="obreve.sc" horiz-adv-x="602" 
d="M255 29c147 4 259 132 259 287c0 97 -65 165 -163 165c-141 0 -261 -123 -261 -274c0 -103 64 -178 165 -178zM255 -15c-128 0 -209 94 -209 222c0 177 144 318 305 318c128 0 208 -86 208 -212c0 -169 -129 -328 -304 -328zM375 654c56 0 86 33 97 86h38
c-13 -64 -56 -129 -141 -129c-65 0 -91 38 -91 87c0 15 1 26 4 42h32c-2 -10 -3 -19 -3 -28c0 -36 19 -58 64 -58z" />
    <glyph glyph-name="ohungarumlaut.sc" horiz-adv-x="602" 
d="M255 29c147 4 259 132 259 287c0 97 -65 165 -163 165c-141 0 -261 -123 -261 -274c0 -103 64 -178 165 -178zM255 -15c-128 0 -209 94 -209 222c0 177 144 318 305 318c128 0 208 -86 208 -212c0 -169 -129 -328 -304 -328zM386 750h67l-139 -149h-33zM496 750h67
l-139 -149h-34z" />
    <glyph glyph-name="oslash.sc" horiz-adv-x="602" 
d="M255 -15c-57 0 -104 18 -139 49l-38 -40l-40 16l51 54c-28 38 -43 87 -43 143c0 177 144 318 305 318c53 0 97 -15 132 -41l33 35l41 -16l-45 -47c30 -37 47 -86 47 -143c0 -169 -129 -328 -304 -328zM255 29c147 4 259 132 259 287c0 41 -12 78 -34 106l-333 -355
c27 -24 64 -38 108 -38zM90 207c0 -42 11 -80 30 -109l331 352c-27 20 -61 31 -100 31c-141 0 -261 -123 -261 -274z" />
    <glyph glyph-name="oe.sc" horiz-adv-x="735" 
d="M462 469l-38 -178h225l-9 -42h-225l-44 -207h256l-9 -42h-345c-138 0 -226 90 -226 215c0 167 146 297 317 297h353l-9 -43h-246zM94 216c0 -102 69 -174 179 -174h55l91 428h-55c-149 0 -270 -112 -270 -254z" />
    <glyph glyph-name="racute.sc" horiz-adv-x="504" 
d="M50 0l109 512h135c97 0 150 -42 150 -118c0 -94 -55 -145 -149 -166l147 -228h-55l-136 221c-24 -3 -50 -4 -78 -4h-34l-46 -217h-43zM193 470l-45 -211h26c149 0 225 38 225 134c0 49 -37 77 -107 77h-99zM450 750l-148 -149h-35l115 149h68z" />
    <glyph glyph-name="rcaron.sc" horiz-adv-x="504" 
d="M50 0l109 512h135c97 0 150 -42 150 -118c0 -94 -55 -145 -149 -166l147 -228h-55l-136 221c-24 -3 -50 -4 -78 -4h-34l-46 -217h-43zM193 470l-45 -211h26c149 0 225 38 225 134c0 49 -37 77 -107 77h-99zM226 750h30l65 -91l103 91h40l-136 -149h-30z" />
    <glyph glyph-name="rcommaaccent.sc" horiz-adv-x="504" 
d="M50 0l109 512h135c97 0 150 -42 150 -118c0 -94 -55 -145 -149 -166l147 -228h-55l-136 221c-24 -3 -50 -4 -78 -4h-34l-46 -217h-43zM193 470l-45 -211h26c149 0 225 38 225 134c0 49 -37 77 -107 77h-99zM223 -69c3 -9 5 -21 5 -32c0 -37 -15 -70 -101 -136h-42
c82 67 95 97 95 126c0 9 -2 20 -5 28z" />
    <glyph glyph-name="sacute.sc" horiz-adv-x="448" 
d="M25 81c35 -35 78 -52 149 -52c88 0 146 43 146 106c0 51 -27 85 -101 114c-79 32 -117 67 -117 134c0 79 73 142 170 142c56 0 99 -12 139 -34l-12 -52c-35 30 -81 44 -127 44c-81 0 -126 -45 -126 -99c0 -41 27 -68 95 -97c86 -37 123 -81 123 -147
c0 -100 -86 -153 -194 -153c-64 0 -121 14 -152 36zM437 750l-148 -149h-35l115 149h68z" />
    <glyph glyph-name="scaron.sc" horiz-adv-x="448" 
d="M25 81c35 -35 78 -52 149 -52c88 0 146 43 146 106c0 51 -27 85 -101 114c-79 32 -117 67 -117 134c0 79 73 142 170 142c56 0 99 -12 139 -34l-12 -52c-35 30 -81 44 -127 44c-81 0 -126 -45 -126 -99c0 -41 27 -68 95 -97c86 -37 123 -81 123 -147
c0 -100 -86 -153 -194 -153c-64 0 -121 14 -152 36zM213 750h30l65 -91l103 91h40l-136 -149h-30z" />
    <glyph glyph-name="scircumflex.sc" horiz-adv-x="448" 
d="M25 81c35 -35 78 -52 149 -52c88 0 146 43 146 106c0 51 -27 85 -101 114c-79 32 -117 67 -117 134c0 79 73 142 170 142c56 0 99 -12 139 -34l-12 -52c-35 30 -81 44 -127 44c-81 0 -126 -45 -126 -99c0 -41 27 -68 95 -97c86 -37 123 -81 123 -147
c0 -100 -86 -153 -194 -153c-64 0 -121 14 -152 36zM389 601l-66 91l-102 -91h-40l136 149h30l72 -149h-30z" />
    <glyph glyph-name="scedilla.sc" horiz-adv-x="448" 
d="M25 81c35 -35 78 -52 149 -52c88 0 146 43 146 106c0 51 -27 85 -101 114c-79 32 -117 67 -117 134c0 79 73 142 170 142c56 0 99 -12 139 -34l-12 -52c-35 30 -81 44 -127 44c-81 0 -126 -45 -126 -99c0 -41 27 -68 95 -97c86 -37 123 -81 123 -147
c0 -97 -81 -149 -184 -153l-34 -48c3 1 8 2 13 2c47 0 74 -29 74 -70c0 -50 -53 -89 -116 -89c-34 0 -62 10 -78 27l12 41c11 -19 35 -29 65 -29c50 0 72 22 72 49c0 22 -17 39 -50 39c-21 0 -39 -4 -54 -10l-1 2l59 87c-52 4 -98 16 -124 35z" />
    <glyph glyph-name="uni0219.sc" horiz-adv-x="448" 
d="M25 81c35 -35 78 -52 149 -52c88 0 146 43 146 106c0 51 -27 85 -101 114c-79 32 -117 67 -117 134c0 79 73 142 170 142c56 0 99 -12 139 -34l-12 -52c-35 30 -81 44 -127 44c-81 0 -126 -45 -126 -99c0 -41 27 -68 95 -97c86 -37 123 -81 123 -147
c0 -100 -86 -153 -194 -153c-64 0 -121 14 -152 36zM181 -69c3 -9 5 -21 5 -32c0 -37 -15 -70 -101 -136h-42c82 67 95 97 95 126c0 9 -2 20 -5 28z" />
    <glyph glyph-name="tcaron.sc" horiz-adv-x="467" 
d="M203 0h-43l100 470h-202l9 42h447l-9 -42h-202zM222 750h30l65 -91l103 91h40l-136 -149h-30z" />
    <glyph glyph-name="uni0163.sc" horiz-adv-x="467" 
d="M203 0h-43l100 470h-202l9 42h447l-9 -42h-202zM192 -69c3 -9 5 -21 5 -32c0 -37 -15 -70 -101 -136h-42c82 67 95 97 95 126c0 9 -2 20 -5 28z" />
    <glyph glyph-name="uni021B.sc" horiz-adv-x="467" 
d="M203 0h-43l100 470h-202l9 42h447l-9 -42h-202zM192 -69c3 -9 5 -21 5 -32c0 -37 -15 -70 -101 -136h-42c82 67 95 97 95 126c0 9 -2 20 -5 28z" />
    <glyph glyph-name="tbar.sc" horiz-adv-x="467" 
d="M203 0h-43l51 241h-100l9 40h100l40 189h-202l9 42h447l-9 -42h-202l-40 -189h100l-9 -40h-100z" />
    <glyph glyph-name="ugrave.sc" horiz-adv-x="578" 
d="M153 512h43l-69 -324c-3 -14 -5 -33 -5 -47c0 -78 52 -113 121 -113c82 0 160 49 184 160l69 324h43l-69 -324c-30 -141 -124 -202 -227 -202c-96 0 -165 49 -165 155c0 12 3 35 6 47zM374 601l-94 149h61l59 -149h-26z" />
    <glyph glyph-name="uacute.sc" horiz-adv-x="578" 
d="M153 512h43l-69 -324c-3 -14 -5 -33 -5 -47c0 -78 52 -113 121 -113c82 0 160 49 184 160l69 324h43l-69 -324c-30 -141 -124 -202 -227 -202c-96 0 -165 49 -165 155c0 12 3 35 6 47zM492 750l-148 -149h-35l115 149h68z" />
    <glyph glyph-name="ucircumflex.sc" horiz-adv-x="578" 
d="M153 512h43l-69 -324c-3 -14 -5 -33 -5 -47c0 -78 52 -113 121 -113c82 0 160 49 184 160l69 324h43l-69 -324c-30 -141 -124 -202 -227 -202c-96 0 -165 49 -165 155c0 12 3 35 6 47zM444 601l-66 91l-102 -91h-40l136 149h30l72 -149h-30z" />
    <glyph glyph-name="utilde.sc" horiz-adv-x="578" 
d="M153 512h43l-69 -324c-3 -14 -5 -33 -5 -47c0 -78 52 -113 121 -113c82 0 160 49 184 160l69 324h43l-69 -324c-30 -141 -124 -202 -227 -202c-96 0 -165 49 -165 155c0 12 3 35 6 47zM305 676c-28 0 -51 -24 -59 -56l-24 6c16 63 51 99 88 99c44 0 82 -54 116 -54
c29 0 50 23 59 56l24 -6c-16 -63 -51 -99 -88 -99c-44 0 -82 54 -116 54z" />
    <glyph glyph-name="udieresis.sc" horiz-adv-x="578" 
d="M153 512h43l-69 -324c-3 -14 -5 -33 -5 -47c0 -78 52 -113 121 -113c82 0 160 49 184 160l69 324h43l-69 -324c-30 -141 -124 -202 -227 -202c-96 0 -165 49 -165 155c0 12 3 35 6 47zM294 709c19 0 32 -13 32 -31c0 -25 -19 -42 -43 -42c-20 0 -32 12 -32 30
c0 25 18 43 43 43zM457 709c19 0 32 -13 32 -31c0 -25 -19 -42 -43 -42c-20 0 -32 12 -32 30c0 25 18 43 43 43z" />
    <glyph glyph-name="umacron.sc" horiz-adv-x="578" 
d="M153 512h43l-69 -324c-3 -14 -5 -33 -5 -47c0 -78 52 -113 121 -113c82 0 160 49 184 160l69 324h43l-69 -324c-30 -141 -124 -202 -227 -202c-96 0 -165 49 -165 155c0 12 3 35 6 47zM501 693l-9 -42h-254l9 42h254z" />
    <glyph glyph-name="ubreve.sc" horiz-adv-x="578" 
d="M153 512h43l-69 -324c-3 -14 -5 -33 -5 -47c0 -78 52 -113 121 -113c82 0 160 49 184 160l69 324h43l-69 -324c-30 -141 -124 -202 -227 -202c-96 0 -165 49 -165 155c0 12 3 35 6 47zM363 654c56 0 86 33 97 86h38c-13 -64 -56 -129 -141 -129c-65 0 -91 38 -91 87
c0 15 1 26 4 42h32c-2 -10 -3 -19 -3 -28c0 -36 19 -58 64 -58z" />
    <glyph glyph-name="uring.sc" horiz-adv-x="578" 
d="M153 512h43l-69 -324c-3 -14 -5 -33 -5 -47c0 -78 52 -113 121 -113c82 0 160 49 184 160l69 324h43l-69 -324c-30 -141 -124 -202 -227 -202c-96 0 -165 49 -165 155c0 12 3 35 6 47zM276 674c0 55 54 103 108 103c48 0 82 -37 82 -83c0 -55 -53 -103 -107 -103
c-47 0 -83 37 -83 83zM312 674c0 -27 19 -48 47 -48c36 0 72 31 72 68c0 27 -19 48 -47 48c-36 0 -72 -31 -72 -68z" />
    <glyph glyph-name="uhungarumlaut.sc" horiz-adv-x="578" 
d="M153 512h43l-69 -324c-3 -14 -5 -33 -5 -47c0 -78 52 -113 121 -113c82 0 160 49 184 160l69 324h43l-69 -324c-30 -141 -124 -202 -227 -202c-96 0 -165 49 -165 155c0 12 3 35 6 47zM374 750h67l-139 -149h-33zM484 750h67l-139 -149h-34z" />
    <glyph glyph-name="uogonek.sc" horiz-adv-x="578" 
d="M153 512h43l-69 -324c-3 -14 -5 -33 -5 -47c0 -78 52 -113 121 -113c82 0 160 49 184 160l69 324h43l-69 -324c-17 -77 -52 -130 -97 -162c-141 -105 -169 -145 -169 -192c0 -17 13 -29 35 -29s43 8 61 27h2l-16 -53c-16 -11 -34 -16 -54 -16c-45 0 -73 22 -73 67
c0 56 38 95 123 159c-13 -2 -26 -3 -39 -3c-96 0 -165 49 -165 155c0 12 3 35 6 47z" />
    <glyph glyph-name="wgrave.sc" horiz-adv-x="732" 
d="M422 0l-47 292l-177 -292h-38l-88 512h45l72 -450l176 290l-25 160h43l66 -454l274 454h51l-314 -512h-38zM434 601l-94 149h61l59 -149h-26z" />
    <glyph glyph-name="wacute.sc" horiz-adv-x="732" 
d="M422 0l-47 292l-177 -292h-38l-88 512h45l72 -450l176 290l-25 160h43l66 -454l274 454h51l-314 -512h-38zM552 750l-148 -149h-35l115 149h68z" />
    <glyph glyph-name="wcircumflex.sc" horiz-adv-x="732" 
d="M422 0l-47 292l-177 -292h-38l-88 512h45l72 -450l176 290l-25 160h43l66 -454l274 454h51l-314 -512h-38zM504 601l-66 91l-102 -91h-40l136 149h30l72 -149h-30z" />
    <glyph glyph-name="wdieresis.sc" horiz-adv-x="732" 
d="M422 0l-47 292l-177 -292h-38l-88 512h45l72 -450l176 290l-25 160h43l66 -454l274 454h51l-314 -512h-38zM354 709c19 0 32 -13 32 -31c0 -25 -19 -42 -43 -42c-20 0 -32 12 -32 30c0 25 18 43 43 43zM517 709c19 0 32 -13 32 -31c0 -25 -19 -42 -43 -42
c-20 0 -32 12 -32 30c0 25 18 43 43 43z" />
    <glyph glyph-name="ygrave.sc" horiz-adv-x="516" 
d="M563 512l-295 -291l-47 -221h-43l47 222l-157 290h48l134 -253l249 253h64zM334 601l-94 149h61l59 -149h-26z" />
    <glyph glyph-name="yacute.sc" horiz-adv-x="516" 
d="M563 512l-295 -291l-47 -221h-43l47 222l-157 290h48l134 -253l249 253h64zM452 750l-148 -149h-35l115 149h68z" />
    <glyph glyph-name="ycircumflex.sc" horiz-adv-x="516" 
d="M563 512l-295 -291l-47 -221h-43l47 222l-157 290h48l134 -253l249 253h64zM404 601l-66 91l-102 -91h-40l136 149h30l72 -149h-30z" />
    <glyph glyph-name="ydieresis.sc" horiz-adv-x="516" 
d="M563 512l-295 -291l-47 -221h-43l47 222l-157 290h48l134 -253l249 253h64zM254 709c19 0 32 -13 32 -31c0 -25 -19 -42 -43 -42c-20 0 -32 12 -32 30c0 25 18 43 43 43zM417 709c19 0 32 -13 32 -31c0 -25 -19 -42 -43 -42c-20 0 -32 12 -32 30c0 25 18 43 43 43z" />
    <glyph glyph-name="zacute.sc" horiz-adv-x="539" 
d="M445 0h-477l485 470h-349l13 42h438l-487 -470h393zM462 750l-148 -149h-35l115 149h68z" />
    <glyph glyph-name="zcaron.sc" horiz-adv-x="539" 
d="M445 0h-477l485 470h-349l13 42h438l-487 -470h393zM238 750h30l65 -91l103 91h40l-136 -149h-30z" />
    <glyph glyph-name="zdotaccent.sc" horiz-adv-x="539" 
d="M445 0h-477l485 470h-349l13 42h438l-487 -470h393zM346 709c19 0 32 -13 32 -31c0 -25 -19 -42 -43 -42c-20 0 -32 12 -32 30c0 25 18 43 43 43z" />
    <glyph glyph-name="germandbls.sc" horiz-adv-x="602" 
d="M545 468l-156 -182c91 -5 138 -55 138 -127c0 -92 -77 -171 -193 -171c-60 0 -100 13 -127 34l6 61c26 -32 65 -51 121 -51c92 0 148 60 148 127c0 55 -44 90 -135 90c-13 0 -33 -1 -43 -3l-1 2l173 205c-27 18 -64 28 -115 28c-98 0 -185 -66 -211 -186l-63 -295h-43
l65 306c28 132 133 219 252 219c82 0 141 -23 184 -57z" />
    <glyph glyph-name="thorn.sc" horiz-adv-x="445" 
d="M93 0h-43l109 512h43l-21 -99h64c109 0 171 -46 171 -129c0 -114 -81 -181 -228 -181h-73zM172 371l-48 -226h73c112 0 175 51 175 139c0 56 -47 87 -131 87h-69z" />
    <glyph glyph-name="fi.sc" horiz-adv-x="678" 
d="M193 469l-39 -183h225l-9 -42h-225l-52 -244h-43l109 512h299l-9 -43h-256zM524 0h-43l109 512h43z" />
    <glyph glyph-name="fl.sc" horiz-adv-x="882" 
d="M193 469l-39 -183h225l-9 -42h-225l-52 -244h-43l109 512h299l-9 -43h-256zM481 0l109 512h43l-100 -470h296l-9 -42h-339z" />
    <glyph glyph-name="ampersand.sc" horiz-adv-x="632" 
d="M335 240l5 48c80 25 183 22 267 53l-4 -46c-33 -12 -71 -18 -111 -24c1 -9 1 -20 1 -28c0 -156 -92 -260 -262 -260c-120 0 -181 69 -181 157c0 78 48 140 132 171c-15 17 -21 45 -21 70c0 86 83 145 182 145c46 0 79 -6 110 -17l-20 -49c-22 13 -57 21 -91 21
c-83 0 -140 -44 -140 -110c0 -24 7 -51 26 -75c-92 -36 -134 -90 -134 -158c0 -63 47 -111 137 -111c142 0 223 78 223 211c0 7 -1 19 -1 28c-42 -6 -83 -13 -118 -26z" />
    <glyph glyph-name="exclam.sc" horiz-adv-x="253" 
d="M86 64c20 0 32 -13 32 -31c0 -25 -19 -42 -43 -42c-20 0 -32 12 -32 30c0 25 18 43 43 43zM160 508l59 11c-32 -127 -73 -272 -101 -362l-22 4c13 88 41 236 64 347z" />
    <glyph glyph-name="question.sc" horiz-adv-x="345" 
d="M71 64c20 0 32 -13 32 -31c0 -25 -19 -42 -43 -42c-20 0 -32 12 -32 30c0 25 18 43 43 43zM111 156l-45 -10l28 131c120 4 194 56 194 131c0 49 -41 75 -107 75c-26 0 -50 -3 -73 -12l23 48c16 4 32 6 50 6c89 0 152 -37 152 -119c0 -95 -86 -154 -205 -170z" />
    <glyph glyph-name="exclamdown.sc" horiz-adv-x="253" 
d="M172 446c-20 0 -32 13 -32 31c0 25 19 42 42 42c21 0 33 -12 33 -30c0 -25 -18 -43 -43 -43zM97 2l-58 -11c32 127 73 272 101 362l22 -4c-14 -88 -41 -236 -65 -347z" />
    <glyph glyph-name="questiondown.sc" horiz-adv-x="345" 
d="M280 453c-20 0 -32 13 -32 31c0 25 19 42 43 42c20 0 32 -12 32 -30c0 -25 -18 -43 -43 -43zM240 361l45 10l-28 -131c-120 -4 -194 -56 -194 -131c0 -49 41 -75 107 -75c26 0 50 3 73 12l-23 -49c-16 -4 -32 -6 -50 -6c-89 0 -152 38 -152 120c0 95 86 154 205 170z" />
    <glyph glyph-name="percent.sc" horiz-adv-x="685" 
d="M591 512l-441 -512h-49l440 512h50zM167 240c-60 0 -96 33 -96 96c0 86 86 176 169 176c60 0 96 -33 96 -96c0 -86 -86 -176 -169 -176zM240 472c-65 0 -127 -71 -127 -141c0 -34 18 -51 55 -51c65 0 126 71 126 142c0 33 -18 50 -54 50zM452 0c-60 0 -96 33 -96 96
c0 86 85 176 169 176c60 0 96 -35 96 -96c0 -86 -86 -176 -169 -176zM525 232c-65 0 -127 -71 -127 -141c0 -34 18 -51 55 -51c65 0 126 71 126 142c0 33 -18 50 -54 50z" />
    <glyph glyph-name="perthousand.sc" horiz-adv-x="988" 
d="M591 512l-441 -512h-49l440 512h50zM167 240c-60 0 -96 33 -96 96c0 86 86 176 169 176c60 0 96 -33 96 -96c0 -86 -86 -176 -169 -176zM240 472c-65 0 -127 -71 -127 -141c0 -34 18 -51 55 -51c65 0 126 71 126 142c0 33 -18 50 -54 50zM452 0c-60 0 -96 33 -96 96
c0 86 85 176 169 176c60 0 96 -35 96 -96c0 -86 -86 -176 -169 -176zM525 232c-65 0 -127 -71 -127 -141c0 -34 18 -51 55 -51c65 0 126 71 126 142c0 33 -18 50 -54 50zM752 0c-60 0 -96 33 -96 96c0 86 86 176 169 176c60 0 96 -35 96 -96c0 -86 -86 -176 -169 -176z
M825 232c-65 0 -127 -71 -127 -141c0 -34 18 -51 55 -51c65 0 126 71 126 142c0 33 -18 50 -54 50z" />
    <glyph glyph-name="dollar.sc" horiz-adv-x="460" 
d="M321 609l-18 -85c44 -4 81 -16 113 -35l-11 -50c-31 27 -70 42 -111 45l-43 -204c82 -36 120 -77 120 -138c0 -97 -80 -152 -182 -157l-16 -75h-35l15 75c-54 2 -101 16 -129 37l6 56c33 -33 71 -51 132 -54l48 230c-71 30 -105 68 -105 127c0 76 71 140 163 144l18 84
h35zM329 144c0 41 -26 71 -86 97l-46 -216c80 6 132 54 132 119zM148 382c0 -36 19 -61 71 -87l40 189c-71 -7 -111 -51 -111 -102z" />
    <glyph glyph-name="Euro.sc" horiz-adv-x="460" 
d="M26 300l22 40h33c44 115 144 185 271 185c63 0 100 -9 134 -27l-25 -44c-25 17 -60 27 -108 27c-108 0 -188 -53 -227 -141h270l-22 -40h-262c-7 -24 -11 -50 -13 -78h230l-22 -40h-208c6 -103 69 -151 166 -151c43 0 88 12 132 45h3l-21 -63c-30 -16 -76 -26 -113 -26
c-129 0 -204 72 -210 195h-65l22 40h43c2 27 6 53 12 78h-42z" />
    <glyph glyph-name="cent.sc" horiz-adv-x="460" 
d="M449 609l-57 -122c34 -9 63 -23 86 -43l-21 -45c-23 23 -50 40 -84 49l-182 -389c9 -1 19 -2 29 -2c74 0 134 24 196 83h3l-26 -73c-42 -29 -109 -52 -172 -52c-17 0 -33 1 -48 4l-51 -109h-39l55 118c-73 26 -113 90 -113 179c0 157 111 289 292 289c14 0 27 -1 39 -2
l54 115h39zM69 207c0 -65 28 -119 88 -140l180 386c-6 1 -13 1 -19 1c-159 0 -249 -109 -249 -247z" />
    <glyph glyph-name="sterling.sc" horiz-adv-x="460" 
d="M336 286l-17 -39c-37 3 -84 5 -129 5h-2c0 -13 1 -26 1 -37c0 -58 -18 -106 -49 -140c40 -15 75 -48 134 -48c33 0 62 13 99 50h3v-50c-35 -32 -68 -43 -98 -43c-78 0 -120 51 -163 60c-39 -39 -66 -52 -79 -52c-23 0 -37 15 -37 33c0 27 49 57 103 57
c35 29 52 77 52 133c0 12 -1 24 -2 36c-28 -1 -57 -5 -87 -10l22 43c21 2 42 3 62 4c-4 32 -7 63 -7 91c0 86 63 146 150 146c56 0 102 -22 141 -57l-24 -37c-36 38 -74 52 -116 52c-68 0 -111 -43 -111 -122c0 -22 2 -47 3 -71h21c38 0 96 -2 130 -4z" />
    <glyph glyph-name="florin.sc" horiz-adv-x="460" 
d="M-32 -45l5 46c12 -15 34 -22 58 -22c56 0 93 52 142 182l42 114h-109l8 39h116l8 21c50 133 102 190 179 190c30 0 57 -9 73 -25l-16 -45c-13 19 -33 27 -57 27c-62 0 -97 -45 -140 -160l-3 -8h135l-8 -39h-142l-46 -125c-57 -154 -111 -214 -182 -214
c-27 0 -51 8 -63 19z" />
    <glyph glyph-name="yen.sc" horiz-adv-x="460" 
d="M426 201l-9 -41h-190l-34 -160h-43l34 160h-177l9 41h177l-39 99h-117l8 41h93l-67 171h49l98 -273l225 273h61l-147 -171h98l-8 -41h-126l-85 -99h190z" />
    <glyph glyph-name="uni20B9.sc" horiz-adv-x="460" 
d="M66 343l27 41h234v9c0 49 -45 78 -130 78h-104l27 41h352l-27 -41h-111c24 -19 37 -45 37 -78v-9h74l-27 -41h-55c-21 -65 -88 -109 -226 -125l181 -218h-55l-200 246l1 4c172 13 235 45 255 93h-253z" />
    <glyph glyph-name="uni20BA.sc" horiz-adv-x="460" 
d="M59 281l11 51l67 28l32 152h43l-29 -135l158 64l-11 -51l-158 -64l-15 -74l157 64l-11 -51l-157 -64l-34 -160c8 -3 18 -4 28 -4c106 0 201 58 244 156l35 -23c-48 -107 -156 -176 -279 -176c-29 0 -57 4 -79 10l38 181l-67 -29l11 51l67 29l16 74z" />
    <glyph glyph-name="zero.onumprop" horiz-adv-x="598" 
d="M254 -16c-122 0 -199 77 -199 214c0 204 129 327 294 327c122 0 199 -76 199 -214c0 -203 -130 -327 -294 -327zM252 25c147 0 252 112 252 290c0 110 -57 169 -153 169c-148 0 -252 -111 -252 -289c0 -109 57 -170 153 -170z" />
    <glyph glyph-name="one.onumprop" horiz-adv-x="337" 
d="M145 0h-43l100 471l-90 -3l16 44h126z" />
    <glyph glyph-name="two.onumprop" horiz-adv-x="509" 
d="M288 178c-42 -35 -132 -96 -201 -135h319l-14 -43h-399l7 35c86 47 194 118 265 177c113 95 133 127 133 191c0 45 -32 81 -98 81c-60 0 -123 -19 -184 -62l27 66c45 24 102 37 159 37c95 0 141 -53 141 -122c0 -72 -26 -116 -155 -225z" />
    <glyph glyph-name="three.onumprop" horiz-adv-x="510" 
d="M456 379c0 -84 -60 -161 -153 -194c67 -24 100 -70 100 -139c0 -137 -122 -232 -283 -232c-68 0 -117 11 -153 32l7 43c40 -24 81 -34 143 -34c143 0 241 84 241 190c0 69 -50 117 -151 117c-45 0 -89 -3 -123 -10l21 54c22 -2 49 -3 75 -3c136 0 232 66 232 178
c0 58 -39 103 -121 103c-58 0 -98 -9 -146 -34l23 56c34 12 77 19 124 19c111 0 164 -65 164 -146z" />
    <glyph glyph-name="four.onumprop" horiz-adv-x="585" 
d="M299 -187l40 187h-341l9 41l453 471h29l-100 -470h103l-9 -42h-103l-40 -187h-41zM58 42h290l81 384z" />
    <glyph glyph-name="five.onumprop" horiz-adv-x="462" 
d="M459 512l-15 -42h-256l-78 -229c10 3 28 5 41 5c149 0 224 -70 224 -166c0 -160 -132 -266 -380 -266c-16 0 -35 1 -50 3l15 45c14 -2 32 -3 50 -3c205 0 320 95 320 219c0 73 -58 126 -179 126c-35 0 -69 -4 -102 -12l108 320h302z" />
    <glyph glyph-name="six.onumprop" horiz-adv-x="588" 
d="M595 712c-249 -19 -413 -183 -472 -358c59 53 128 83 208 83c130 0 205 -72 205 -197c0 -139 -116 -254 -262 -254c-143 0 -216 87 -216 223c0 236 185 525 556 551zM328 396c-85 0 -157 -34 -219 -90c-7 -33 -11 -65 -11 -97c0 -113 64 -182 178 -182
c112 0 215 94 215 213c0 97 -58 156 -163 156z" />
    <glyph glyph-name="seven.onumprop" horiz-adv-x="531" 
d="M112 512h416c-152 -231 -305 -499 -388 -699h-53c102 225 265 499 372 657l-377 -5z" />
    <glyph glyph-name="eight.onumprop" horiz-adv-x="591" 
d="M513 207c0 -113 -106 -220 -260 -220c-129 0 -201 70 -201 170c0 110 87 191 222 229c-85 43 -115 106 -115 171c0 118 112 215 241 215c115 0 178 -69 178 -160c0 -106 -71 -181 -199 -228c88 -42 134 -101 134 -177zM468 214c0 69 -48 111 -148 152
c-137 -35 -224 -114 -224 -209c0 -72 58 -126 157 -126c129 0 215 88 215 183zM205 554c0 -71 42 -112 130 -151c117 40 198 103 198 207c0 69 -50 119 -132 119c-105 0 -196 -78 -196 -175z" />
    <glyph glyph-name="nine.onumprop" horiz-adv-x="590" 
d="M80 -209l-20 37c220 84 348 186 404 312c-57 -40 -123 -63 -202 -63c-120 0 -194 75 -194 190c0 141 116 258 263 258c136 0 207 -86 207 -221c0 -224 -145 -395 -458 -513zM265 120c85 0 156 21 214 63c12 38 18 78 18 121c0 112 -61 180 -170 180
c-111 0 -215 -94 -215 -217c0 -88 59 -147 153 -147z" />
    <glyph glyph-name="zero.onumtab" 
d="M234 -16c-110 0 -180 75 -180 210c0 205 123 331 276 331c110 0 180 -74 180 -209c0 -205 -123 -332 -276 -332zM233 25c135 0 234 117 234 295c0 106 -51 164 -136 164c-135 0 -233 -115 -233 -294c0 -106 50 -165 135 -165z" />
    <glyph glyph-name="one.onumtab" 
d="M436 0h-343l9 43h150l91 428l-149 -3l15 44h186l-100 -469h150z" />
    <glyph glyph-name="two.onumtab" 
d="M320 178c-41 -35 -131 -96 -200 -135h319l-14 -43h-399l7 35c86 47 194 118 265 177c104 87 133 137 133 192c0 46 -31 80 -98 80c-60 0 -125 -20 -184 -62l27 66c44 24 101 37 158 37c96 0 141 -51 141 -119c0 -76 -46 -135 -155 -228z" />
    <glyph glyph-name="three.onumtab" 
d="M472 379c0 -84 -60 -161 -153 -194c67 -24 100 -70 100 -139c0 -137 -122 -232 -283 -232c-68 0 -117 11 -153 32l7 43c40 -24 81 -34 143 -34c143 0 241 84 241 190c0 69 -50 117 -151 117c-45 0 -89 -3 -123 -10l21 54c22 -2 49 -3 75 -3c136 0 232 66 232 178
c0 58 -39 103 -121 103c-58 0 -98 -9 -146 -34l23 56c34 12 77 19 124 19c111 0 164 -65 164 -146z" />
    <glyph glyph-name="four.onumtab" 
d="M290 -187l40 187h-341l9 41l453 471h29l-100 -470h103l-9 -42h-103l-40 -187h-41zM47 42h292l82 388z" />
    <glyph glyph-name="five.onumtab" 
d="M511 512l-15 -42h-276l-78 -229c12 3 35 5 51 5c155 0 232 -74 232 -176c0 -154 -134 -256 -388 -256c-19 0 -42 1 -60 4l15 45c17 -3 38 -4 60 -4c210 0 328 91 328 209c0 79 -60 136 -187 136c-38 0 -76 -4 -112 -12l108 320h322z" />
    <glyph glyph-name="six.onumtab" 
d="M576 712c-247 -19 -408 -185 -464 -359c57 54 123 84 200 84c124 0 195 -72 195 -197c0 -139 -112 -254 -252 -254c-135 0 -204 91 -204 233c0 232 181 515 544 541zM309 396c-81 0 -150 -34 -209 -90c-6 -30 -9 -59 -9 -87c0 -119 59 -192 166 -192s205 94 205 213
c0 97 -54 156 -153 156z" />
    <glyph glyph-name="seven.onumtab" 
d="M129 512h416c-152 -231 -305 -499 -388 -699h-53c102 225 265 499 372 657l-377 -5z" />
    <glyph glyph-name="eight.onumtab" 
d="M485 197c0 -108 -101 -210 -248 -210c-122 0 -189 74 -189 180c0 105 82 183 211 220c-77 45 -104 111 -104 180c0 113 106 205 229 205c108 0 166 -73 166 -170c0 -101 -67 -173 -189 -218c81 -44 124 -107 124 -187zM440 204c0 75 -44 119 -136 162
c-131 -32 -212 -109 -212 -199c0 -78 53 -136 145 -136c122 0 203 83 203 173zM201 564c0 -76 37 -120 117 -161c111 38 187 98 187 197c0 75 -45 129 -120 129c-99 0 -184 -74 -184 -165z" />
    <glyph glyph-name="nine.onumtab" 
d="M65 -209l-20 37c220 84 348 186 404 312c-57 -40 -123 -63 -202 -63c-120 0 -194 75 -194 190c0 141 116 258 263 258c136 0 207 -86 207 -221c0 -224 -145 -395 -458 -513zM250 120c85 0 156 21 214 63c12 38 18 78 18 121c0 112 -61 180 -170 180
c-111 0 -215 -94 -215 -217c0 -88 59 -147 153 -147z" />
    <glyph glyph-name="zero.prop" horiz-adv-x="648" 
d="M279 -16c-119 0 -192 97 -192 275c0 306 150 509 339 509c119 0 192 -93 192 -273c0 -306 -151 -511 -339 -511zM278 28c172 0 295 201 295 473c0 147 -54 223 -147 223c-174 0 -294 -199 -294 -472c0 -146 54 -224 146 -224z" />
    <glyph glyph-name="one.prop" horiz-adv-x="332" 
d="M150 0h-43l151 711l-110 -4l16 45h146z" />
    <glyph glyph-name="two.prop" horiz-adv-x="559" 
d="M182 716c54 31 122 49 190 49c128 0 191 -74 191 -171c0 -94 -41 -158 -157 -269c-83 -80 -246 -212 -341 -282h402l-14 -43h-469l7 35c87 59 277 214 385 320c121 119 141 162 141 238c0 72 -47 128 -146 128c-72 0 -140 -21 -217 -71z" />
    <glyph glyph-name="three.prop" 
d="M539 596c0 -95 -70 -176 -175 -212c77 -26 115 -80 115 -152c0 -146 -137 -245 -320 -245c-68 0 -116 12 -150 32l8 46c40 -24 80 -34 142 -34c162 0 274 85 274 201c0 78 -59 132 -178 132c-49 0 -95 -3 -133 -9l22 54c24 -2 54 -3 84 -3c154 0 265 71 265 192
c0 69 -47 123 -147 123c-62 0 -105 -9 -155 -35l24 59c38 14 81 20 131 20c129 0 193 -74 193 -169z" />
    <glyph glyph-name="four.prop" horiz-adv-x="604" 
d="M372 0l50 237h-409l4 20l507 495h50l-100 -473h102l-9 -42h-102l-50 -237h-43zM96 279h335l88 413z" />
    <glyph glyph-name="five.prop" 
d="M597 752l-15 -42h-334l-82 -237c12 2 33 3 49 3c184 0 275 -87 275 -210c0 -191 -166 -312 -459 -312c-10 0 -25 1 -30 2l16 48c10 -1 27 -2 40 -2c242 0 386 108 386 263c0 99 -73 169 -228 169c-38 0 -76 -3 -111 -8l111 326h382z" />
    <glyph glyph-name="six.prop" horiz-adv-x="627" 
d="M634 730c-262 -18 -432 -183 -492 -362c66 51 139 79 226 79c129 0 209 -76 209 -195c0 -146 -125 -266 -284 -266c-143 0 -219 93 -219 237c0 245 195 531 581 557zM129 317v1c-7 -32 -11 -64 -11 -95c0 -119 63 -193 175 -193c124 0 236 95 236 221
c0 91 -62 152 -162 152c-92 0 -170 -31 -238 -86z" />
    <glyph glyph-name="seven.prop" horiz-adv-x="486" 
d="M123 752h446c-147 -243 -298 -540 -379 -752h-55c101 237 260 542 363 710l-405 -5z" />
    <glyph glyph-name="eight.prop" horiz-adv-x="605" 
d="M520 207c0 -113 -106 -220 -260 -220c-129 0 -201 70 -201 170c0 110 87 191 222 229c-85 43 -115 106 -115 171c0 118 112 215 241 215c115 0 178 -69 178 -160c0 -106 -71 -181 -199 -228c88 -42 134 -101 134 -177zM475 214c0 69 -48 111 -148 152
c-137 -35 -224 -114 -224 -209c0 -72 58 -126 157 -126c129 0 215 88 215 183zM212 554c0 -71 42 -112 130 -151c117 40 198 103 198 207c0 69 -50 119 -132 119c-105 0 -196 -78 -196 -175z" />
    <glyph glyph-name="nine.prop" horiz-adv-x="619" 
d="M133 -19l-20 37c228 91 358 206 413 345c-57 -36 -123 -56 -201 -56c-133 0 -216 78 -216 200c0 145 120 265 272 265c143 0 219 -93 219 -237c0 -241 -148 -427 -467 -554zM327 353c85 0 155 19 215 60c10 39 15 79 15 121c0 120 -63 194 -176 194
c-122 0 -226 -97 -226 -221c0 -92 66 -154 172 -154z" />
    <glyph glyph-name="ampersand.salt" horiz-adv-x="758" 
d="M667 344l42 -17c-42 -79 -94 -148 -153 -204l93 -123h-54l-71 94c-82 -67 -174 -107 -266 -107c-132 0 -205 64 -205 166c0 104 54 167 229 265c-46 66 -66 117 -66 168c0 104 88 194 200 194c97 0 142 -60 142 -135c0 -77 -38 -144 -213 -240l186 -248
c54 53 101 118 136 187zM258 29c85 0 168 39 241 99l-192 256c-143 -77 -207 -130 -207 -231c0 -77 54 -124 158 -124zM263 584c0 -38 13 -82 57 -145c141 76 191 119 191 206c0 49 -33 91 -95 91c-91 0 -153 -64 -153 -152z" />
    <glyph glyph-name="comma.salt" horiz-adv-x="233" 
d="M146 74l-144 -214h-39l129 214h54z" />
    <glyph glyph-name="semicolon.salt" horiz-adv-x="233" 
d="M166 488c20 0 32 -13 32 -31c0 -25 -19 -42 -43 -42c-20 0 -32 12 -32 30c0 25 18 43 43 43zM119 74l-144 -214h-39l129 214h54z" />
    <glyph glyph-name="quoteleft.salt" horiz-adv-x="168" 
d="M81 540l144 214h39l-129 -214h-54z" />
    <glyph glyph-name="quoteright.salt" horiz-adv-x="168" 
d="M258 754l-144 -214h-39l129 214h54z" />
    <glyph glyph-name="quotesinglbase.salt" horiz-adv-x="218" 
d="M146 74l-144 -214h-39l129 214h54z" />
    <glyph glyph-name="quotedblleft.salt" horiz-adv-x="296" 
d="M226 540l144 214h39l-129 -214h-54zM81 540l144 214h39l-129 -214h-54z" />
    <glyph glyph-name="quotedblright.salt" horiz-adv-x="296" 
d="M409 754l-144 -214h-39l129 214h54zM266 754l-144 -214h-39l129 214h54z" />
    <glyph glyph-name="quotedblbase.salt" horiz-adv-x="361" 
d="M289 74l-144 -214h-39l129 214h54zM146 74l-144 -214h-39l129 214h54z" />
    <glyph glyph-name="A.salt" horiz-adv-x="735" 
d="M628 0l-72 314h-336l-211 -314h-51l527 780h4l184 -780h-45zM469 685l-222 -329h299z" />
    <glyph glyph-name="G.salt" horiz-adv-x="787" 
d="M739 368l-60 -282c-81 -64 -184 -99 -284 -99c-187 0 -307 132 -307 321c0 261 193 477 457 477c110 0 189 -30 241 -75l-19 -47h-3c-56 55 -132 78 -219 78c-241 0 -410 -199 -410 -433c0 -169 101 -277 261 -277c98 0 181 31 246 83l45 212h-210l9 42h253z" />
    <glyph glyph-name="J.salt" horiz-adv-x="408" 
d="M415 772l-112 -525c-33 -154 -128 -250 -258 -250c-28 0 -48 5 -70 14l4 48c18 -15 36 -20 67 -20c103 0 185 75 214 209l111 524h44z" />
    <glyph glyph-name="M.salt" horiz-adv-x="972" 
d="M900 784l-65 -784h-41l50 618l-405 -643h-4l-140 648l-215 -623h-47l271 782h4l147 -698l441 700h4z" />
    <glyph glyph-name="N.salt" horiz-adv-x="824" 
d="M58 0l166 780h4l409 -697l146 689h43l-169 -797h-4l-410 696l-142 -671h-43z" />
    <glyph glyph-name="V.salt" horiz-adv-x="682" 
d="M122 772h44l131 -695l435 695h52l-503 -794h-4z" />
    <glyph glyph-name="W.salt" horiz-adv-x="1058" 
d="M122 772h44l99 -686l378 703h4l56 -702l405 685h52l-483 -804h-4l-57 676l-369 -676h-4z" />
    <glyph glyph-name="a.sc.salt" horiz-adv-x="523" 
d="M420 0l-47 205h-225l-141 -205h-53l375 535h4l132 -535h-45zM315 444l-138 -197h186z" />
    <glyph glyph-name="g.sc.salt" horiz-adv-x="572" 
d="M359 481c-156 0 -268 -128 -268 -271c0 -110 69 -179 174 -179c66 0 116 22 161 59l27 129h-132l9 42h175l-42 -197c-56 -50 -129 -77 -198 -77c-135 0 -219 91 -219 222c0 174 137 316 313 316c82 0 137 -22 175 -55l-19 -48h-3c-36 42 -94 59 -153 59z" />
    <glyph glyph-name="j.sc.salt" horiz-adv-x="350" 
d="M311 512l-68 -319c-26 -124 -100 -200 -203 -200c-28 0 -48 5 -70 14l4 48c16 -14 36 -20 67 -20c76 0 138 56 160 159l68 318h42z" />
    <glyph glyph-name="m.sc.salt" horiz-adv-x="726" 
d="M645 524l-43 -524h-43l31 370l-275 -395h-4l-114 405l-132 -380h-45l181 522h4l126 -448l310 450h4z" />
    <glyph glyph-name="n.sc.salt" horiz-adv-x="665" 
d="M503 -20l-320 443l-90 -423h-43l112 525h4l319 -445l92 432h43l-113 -532h-4z" />
    <glyph glyph-name="v.sc.salt" horiz-adv-x="499" 
d="M72 512h44l90 -437l283 437h52l-350 -534h-4z" />
    <glyph glyph-name="w.sc.salt" horiz-adv-x="763" 
d="M462 -32l-48 428l-245 -428h-4l-93 544h44l72 -425l251 442h4l49 -443l261 426h52l-339 -544h-4z" />
    <glyph glyph-name="a.salt" horiz-adv-x="574" 
d="M440 7l-47 -18c-1 7 -1 15 -1 21c0 11 1 23 3 34c-52 -39 -108 -53 -157 -53c-127 0 -191 86 -191 197c0 179 131 308 299 308c55 0 94 -10 139 -36l42 8l-80 -376c-6 -28 -9 -47 -9 -64c0 -7 1 -16 2 -21zM238 32c66 0 124 24 168 68l66 313c-29 27 -70 41 -126 41
c-152 0 -253 -116 -253 -265c0 -91 49 -157 145 -157z" />
    <glyph glyph-name="e.salt" horiz-adv-x="534" 
d="M477 243l-383 -10c-3 -17 -4 -35 -4 -52c0 -101 54 -156 146 -156c71 0 141 25 198 85l-27 -76c-43 -30 -100 -51 -172 -51c-108 0 -189 66 -189 196c0 172 125 317 282 317c105 0 165 -68 165 -168c0 -32 -6 -62 -16 -85zM328 455c-104 0 -193 -79 -225 -186l339 9
c4 17 6 35 6 50c0 73 -38 127 -120 127z" />
    <glyph glyph-name="g.salt" horiz-adv-x="580" 
d="M0 -180l8 56c33 -45 87 -71 160 -71c123 0 196 68 220 185l7 35c-40 -25 -101 -41 -155 -41c-122 0 -195 79 -195 201c0 182 132 311 311 311c57 0 97 -8 136 -22l43 8l-106 -497c-28 -132 -122 -222 -261 -222c-78 0 -138 23 -168 57zM242 25c66 0 119 16 163 48l76 357
c-33 16 -69 24 -124 24c-157 0 -265 -112 -265 -269c0 -98 54 -160 150 -160z" />
    <glyph glyph-name="v.salt" horiz-adv-x="459" 
d="M65 479h45l65 -414l266 414h53l-337 -511h-4z" />
    <glyph glyph-name="w.salt" horiz-adv-x="725" 
d="M65 479h45l55 -419l253 447h4l33 -442l252 414h53l-328 -519h-4l-38 408l-242 -415h-4z" />
    <glyph glyph-name="ae.salt" horiz-adv-x="817" 
d="M760 245l-363 -10c-3 -18 -4 -36 -4 -55c0 -98 53 -148 138 -148c67 0 128 23 186 82l-26 -74c-38 -30 -91 -50 -159 -50c-91 0 -147 41 -166 101c-64 -54 -150 -101 -228 -101s-123 40 -123 106c0 75 61 135 164 156c48 10 108 16 188 18l14 66c2 9 4 23 4 33
c0 52 -35 79 -93 79c-57 0 -113 -20 -166 -63l13 57c50 35 103 48 154 48c81 0 121 -36 127 -100c50 60 122 100 198 100c102 0 158 -65 158 -161c0 -33 -6 -61 -16 -84zM334 118l25 118c-67 -1 -130 -8 -178 -19c-85 -19 -119 -65 -119 -120c0 -39 23 -68 75 -68
c62 0 133 30 197 89zM619 449c-100 0 -184 -69 -214 -178l321 9c4 19 5 33 5 50c0 70 -38 119 -112 119z" />
    <glyph glyph-name="oe.salt" horiz-adv-x="887" 
d="M759 33c-38 -30 -91 -50 -159 -50c-85 0 -149 43 -169 132c-49 -86 -130 -132 -213 -132c-104 0 -170 78 -170 206c0 185 124 307 259 307c86 0 145 -52 162 -142c48 85 128 142 220 142c101 0 158 -67 158 -164c0 -38 -6 -62 -17 -87l-359 -10c-3 -18 -4 -36 -4 -55
c0 -99 49 -155 132 -155c67 0 128 23 186 82zM217 25c122 0 213 119 213 270c0 90 -42 160 -121 160c-114 0 -217 -112 -217 -269c0 -94 42 -161 125 -161zM691 455c-99 0 -181 -78 -212 -184l317 9c4 19 6 37 6 54c0 70 -36 121 -111 121z" />
    <glyph glyph-name="Agrave.salt" horiz-adv-x="735" 
d="M628 0l-72 314h-336l-211 -314h-51l527 780h4l184 -780h-45zM469 685l-222 -329h299zM519 830l-100 119h69l62 -119h-31z" />
    <glyph glyph-name="Aacute.salt" horiz-adv-x="735" 
d="M628 0l-72 314h-336l-211 -314h-51l527 780h4l184 -780h-45zM469 685l-222 -329h299zM621 949l-141 -119h-40l102 119h79z" />
    <glyph glyph-name="Acircumflex.salt" horiz-adv-x="735" 
d="M628 0l-72 314h-336l-211 -314h-51l527 780h4l184 -780h-45zM469 685l-222 -329h299zM590 830l-74 73l-103 -73h-46l128 119h51l79 -119h-35z" />
    <glyph glyph-name="Atilde.salt" horiz-adv-x="735" 
d="M628 0l-72 314h-336l-211 -314h-51l527 780h4l184 -780h-45zM469 685l-222 -329h299zM450 875c-28 0 -52 -24 -62 -56l-24 6c20 63 58 99 97 99c42 0 82 -34 114 -34c29 0 51 23 62 56l24 -6c-20 -63 -58 -99 -97 -99c-42 0 -82 34 -114 34z" />
    <glyph glyph-name="Adieresis.salt" horiz-adv-x="735" 
d="M628 0l-72 314h-336l-211 -314h-51l527 780h4l184 -780h-45zM469 685l-222 -329h299zM421 923c20 0 32 -13 32 -31c0 -25 -19 -42 -42 -42c-21 0 -33 12 -33 30c0 25 18 43 43 43zM604 923c20 0 32 -13 32 -31c0 -25 -19 -42 -42 -42c-21 0 -33 12 -33 30
c0 25 18 43 43 43z" />
    <glyph glyph-name="Amacron.salt" horiz-adv-x="735" 
d="M628 0l-72 314h-336l-211 -314h-51l527 780h4l184 -780h-45zM469 685l-222 -329h299zM637 897l-9 -42h-254l9 42h254z" />
    <glyph glyph-name="Abreve.salt" horiz-adv-x="735" 
d="M628 0l-72 314h-336l-211 -314h-51l527 780h4l184 -780h-45zM469 685l-222 -329h299zM503 873c53 0 81 27 93 70h38c-11 -56 -53 -113 -138 -113c-67 0 -93 35 -93 81c0 12 1 21 3 32h32c-1 -6 -1 -10 -1 -15c0 -35 20 -55 66 -55z" />
    <glyph glyph-name="Aring.salt" horiz-adv-x="735" 
d="M628 0l-72 314h-336l-211 -314h-51l527 780h4l184 -780h-45zM469 685l-222 -329h299zM416 893c0 55 53 103 106 103c48 0 82 -37 82 -83c0 -55 -52 -103 -106 -103c-48 0 -82 37 -82 83zM451 893c0 -27 19 -48 47 -48c36 0 71 31 71 68c0 27 -19 48 -47 48
c-36 0 -71 -31 -71 -68z" />
    <glyph glyph-name="Aogonek.salt" horiz-adv-x="735" 
d="M628 0l-72 314h-336l-211 -314h-51l527 780h4l184 -780c-109 -84 -137 -119 -137 -166c0 -17 12 -29 33 -29c23 0 44 8 63 27h2l-16 -53c-16 -11 -34 -16 -54 -16c-45 0 -73 22 -73 67c0 59 42 99 137 170zM469 685l-222 -329h299z" />
    <glyph glyph-name="Gcircumflex.salt" horiz-adv-x="787" 
d="M739 368l-60 -282c-81 -64 -184 -99 -284 -99c-187 0 -307 132 -307 321c0 261 193 477 457 477c110 0 189 -30 241 -75l-19 -47h-3c-56 55 -132 78 -219 78c-241 0 -410 -199 -410 -433c0 -169 101 -277 261 -277c98 0 181 31 246 83l45 212h-210l9 42h253zM647 830
l-74 73l-103 -73h-46l128 119h51l79 -119h-35z" />
    <glyph glyph-name="Gbreve.salt" horiz-adv-x="787" 
d="M739 368l-60 -282c-81 -64 -184 -99 -284 -99c-187 0 -307 132 -307 321c0 261 193 477 457 477c110 0 189 -30 241 -75l-19 -47h-3c-56 55 -132 78 -219 78c-241 0 -410 -199 -410 -433c0 -169 101 -277 261 -277c98 0 181 31 246 83l45 212h-210l9 42h253zM559 873
c53 0 81 27 93 70h38c-11 -56 -53 -113 -138 -113c-67 0 -93 35 -93 81c0 12 1 21 3 32h32c-1 -6 -1 -10 -1 -15c0 -35 20 -55 66 -55z" />
    <glyph glyph-name="Gdotaccent.salt" horiz-adv-x="787" 
d="M739 368l-60 -282c-81 -64 -184 -99 -284 -99c-187 0 -307 132 -307 321c0 261 193 477 457 477c110 0 189 -30 241 -75l-19 -47h-3c-56 55 -132 78 -219 78c-241 0 -410 -199 -410 -433c0 -169 101 -277 261 -277c98 0 181 31 246 83l45 212h-210l9 42h253zM569 923
c20 0 32 -13 32 -31c0 -25 -19 -42 -42 -42c-21 0 -33 12 -33 30c0 25 18 43 43 43z" />
    <glyph glyph-name="Gcommaaccent.salt" horiz-adv-x="787" 
d="M739 368l-60 -282c-81 -64 -184 -99 -284 -99c-187 0 -307 132 -307 321c0 261 193 477 457 477c110 0 189 -30 241 -75l-19 -47h-3c-56 55 -132 78 -219 78c-241 0 -410 -199 -410 -433c0 -169 101 -277 261 -277c98 0 181 31 246 83l45 212h-210l9 42h253zM398 -69
c3 -9 5 -21 5 -32c0 -37 -15 -70 -101 -136h-42c82 67 95 97 95 126c0 9 -2 20 -5 28z" />
    <glyph glyph-name="IJ.salt" horiz-adv-x="631" 
d="M101 0h-43l164 772h43zM638 772l-112 -525c-33 -154 -128 -250 -258 -250c-28 0 -48 5 -70 14l4 48c18 -15 36 -20 67 -20c103 0 185 75 214 209l111 524h44z" />
    <glyph glyph-name="Jcircumflex.salt" horiz-adv-x="408" 
d="M415 772l-112 -525c-33 -154 -128 -250 -258 -250c-28 0 -48 5 -70 14l4 48c18 -15 36 -20 67 -20c103 0 185 75 214 209l111 524h44zM500 830l-74 73l-103 -73h-46l128 119h51l79 -119h-35z" />
    <glyph glyph-name="Nacute.salt" horiz-adv-x="824" 
d="M58 0l166 780h4l409 -697l146 689h43l-169 -797h-4l-410 696l-142 -671h-43zM662 949l-141 -119h-40l102 119h79z" />
    <glyph glyph-name="Ncaron.salt" horiz-adv-x="824" 
d="M58 0l166 780h4l409 -697l146 689h43l-169 -797h-4l-410 696l-142 -671h-43zM432 949h36l73 -74l104 74h45l-128 -119h-51z" />
    <glyph glyph-name="Ntilde.salt" horiz-adv-x="824" 
d="M58 0l166 780h4l409 -697l146 689h43l-169 -797h-4l-410 696l-142 -671h-43zM491 875c-28 0 -52 -24 -62 -56l-24 6c20 63 58 99 97 99c42 0 82 -34 114 -34c29 0 51 23 62 56l24 -6c-20 -63 -58 -99 -97 -99c-42 0 -82 34 -114 34z" />
    <glyph glyph-name="Ncommaaccent.salt" horiz-adv-x="824" 
d="M58 0l166 780h4l409 -697l146 689h43l-169 -797h-4l-410 696l-142 -671h-43zM362 -69c3 -9 5 -21 5 -32c0 -37 -15 -70 -101 -136h-42c82 67 95 97 95 126c0 9 -2 20 -5 28z" />
    <glyph glyph-name="Eng.salt" horiz-adv-x="824" 
d="M58 0l166 780h4l409 -697l146 689h43l-155 -731l-14 -66l-7 -32c-24 -112 -85 -180 -173 -180c-36 0 -66 9 -88 24l6 53c19 -23 41 -35 83 -35c61 0 109 47 129 139l17 80l-381 647l-142 -671h-43z" />
    <glyph glyph-name="Wgrave.salt" horiz-adv-x="1058" 
d="M122 772h44l99 -686l378 703h4l56 -702l405 685h52l-483 -804h-4l-57 676l-369 -676h-4zM674 830l-100 119h69l62 -119h-31z" />
    <glyph glyph-name="Wacute.salt" horiz-adv-x="1058" 
d="M122 772h44l99 -686l378 703h4l56 -702l405 685h52l-483 -804h-4l-57 676l-369 -676h-4zM776 949l-141 -119h-40l102 119h79z" />
    <glyph glyph-name="Wcircumflex.salt" horiz-adv-x="1058" 
d="M122 772h44l99 -686l378 703h4l56 -702l405 685h52l-483 -804h-4l-57 676l-369 -676h-4zM745 830l-74 73l-103 -73h-46l128 119h51l79 -119h-35z" />
    <glyph glyph-name="Wdieresis.salt" horiz-adv-x="1058" 
d="M122 772h44l99 -686l378 703h4l56 -702l405 685h52l-483 -804h-4l-57 676l-369 -676h-4zM576 923c20 0 32 -13 32 -31c0 -25 -19 -42 -42 -42c-21 0 -33 12 -33 30c0 25 18 43 43 43zM759 923c20 0 32 -13 32 -31c0 -25 -19 -42 -42 -42c-21 0 -33 12 -33 30
c0 25 18 43 43 43z" />
    <glyph glyph-name="agrave.sc.salt" horiz-adv-x="523" 
d="M420 0l-47 205h-225l-141 -205h-53l375 535h4l132 -535h-45zM315 444l-138 -197h186zM364 601l-94 149h61l59 -149h-26z" />
    <glyph glyph-name="aacute.sc.salt" horiz-adv-x="523" 
d="M420 0l-47 205h-225l-141 -205h-53l375 535h4l132 -535h-45zM315 444l-138 -197h186zM482 750l-148 -149h-35l115 149h68z" />
    </font>
</defs>
</svg>
